<svg xmlns="http://www.w3.org/2000/svg" xmlns:xlink="http://www.w3.org/1999/xlink" viewBox="0 0 1060 596"><defs><clipPath id="a"><circle cx="904.21" cy="481.02" r="100.99" transform="translate(-107.62 322.33) rotate(-19.1)" fill="none"/></clipPath><clipPath id="b"><circle cx="743.94" cy="320.76" r="100.99" transform="translate(262.25 972.15) rotate(-76.84)" fill="none"/></clipPath><clipPath id="c"><circle cx="525.02" cy="262.1" r="100.99" transform="translate(260.19 785.74) rotate(-89.7)" fill="none"/></clipPath><clipPath id="d"><circle cx="306.09" cy="320.76" r="100.99" transform="translate(-31.28 33.08) rotate(-5.89)" fill="none"/></clipPath><clipPath id="e"><circle cx="145.83" cy="481.02" r="100.99" transform="translate(-297.42 244) rotate(-45)" fill="none"/></clipPath></defs><path d="M139.13,581.8a404.48,404.48,0,0,1,91.55-155.57A101,101,0,0,1,139.13,581.8Z" fill-rule="evenodd" opacity="0.15"/><path d="M911.78,332.53H896.63a1.2,1.2,0,0,0,0,2.4H903v29.24a4,4,0,1,0,2.4,0V334.93h6.37a1.2,1.2,0,1,0,0-2.4Z" fill="#8cb9c9" fill-rule="evenodd"/><circle cx="904.21" cy="481.02" r="100.99" transform="translate(-107.62 322.33) rotate(-19.1)" fill="#21d8de"/><g clip-path="url(#a)"><circle cx="904.21" cy="481.02" r="100.99" transform="translate(-75.3 780.26) rotate(-45)" fill="none" stroke="#fff" stroke-linecap="round" stroke-linejoin="round" stroke-width="14.4" opacity="0.5"/></g><path d="M840.72,444.37a73.31,73.31,0,1,1,26.83,100.14A73.3,73.3,0,0,1,840.72,444.37Z" fill="#00b7bd" fill-rule="evenodd"/><path d="M819.35,426.23A404.36,404.36,0,0,1,910.9,581.8a101,101,0,0,1-91.55-155.57Z" fill-rule="evenodd" opacity="0.15"/><path d="M893.17,273.56c7.18,0,10.2,5.17,10.2,12.61s-3,12.65-10.2,12.65S883,293.65,883,286.17,886,273.56,893.17,273.56Zm0,7.14c-2.48,0-2.78,2.38-2.78,5.47s.3,5.51,2.78,5.51,2.76-2.38,2.76-5.51S895.62,280.7,893.17,280.7Z" fill="#21d8de"/><path d="M924.21,274.1v6.63h-9.85v2.86a6,6,0,0,1,4-1.26c4.82,0,7.07,3.77,7.07,8,0,5.48-3.26,8.6-8.6,8.6-6,0-9.42-3.33-9.32-7.95h7.35a1.45,1.45,0,0,0,1.59,1.49c1.19,0,1.67-.95,1.67-2.27s-.68-2-1.77-2-1.46.58-1.46,1.12h-7.34V274.1Z" fill="#21d8de"/><path d="M910.9,442.37a1.89,1.89,0,0,0,1.89-1.89V438a1.89,1.89,0,1,0-3.77,0v2.52A1.89,1.89,0,0,0,910.9,442.37Z" fill="#fff" fill-rule="evenodd"/><path d="M926.72,445.2a1.9,1.9,0,0,0-2.58-.69L922,445.77a1.89,1.89,0,0,0,1.89,3.27l2.18-1.26A1.89,1.89,0,0,0,926.72,445.2Z" fill="#fff" fill-rule="evenodd"/><path d="M920,438.52a1.89,1.89,0,0,0-2.58.69l-1.26,2.18a1.89,1.89,0,0,0,3.28,1.89l1.25-2.18A1.88,1.88,0,0,0,920,438.52Z" fill="#fff" fill-rule="evenodd"/><path d="M904.92,444a1.87,1.87,0,0,0,.69-2.58l-1.25-2.18a1.9,1.9,0,0,0-2.58-.69,1.88,1.88,0,0,0-.69,2.58l1.25,2.18A1.9,1.9,0,0,0,904.92,444Z" fill="#fff" fill-rule="evenodd"/><path d="M899.85,445.77l-2.18-1.26a1.89,1.89,0,1,0-1.88,3.27L898,449a1.89,1.89,0,1,0,1.88-3.27Z" fill="#fff" fill-rule="evenodd"/><path d="M910.9,444.89a9.43,9.43,0,0,0-7.9,14.6,8.92,8.92,0,0,1,1.61,4.91v5a4.42,4.42,0,0,0,4.41,4.41h3.77a4.42,4.42,0,0,0,4.41-4.41v-5a8.92,8.92,0,0,1,1.61-4.91,9.43,9.43,0,0,0-7.91-14.6Zm2.52,24.55a.63.63,0,0,1-.63.63H909a.63.63,0,0,1-.63-.63v-3.15h5v3.15Zm2.23-12a13.33,13.33,0,0,0-2.06,5.1h-5.37a13.49,13.49,0,0,0-2.06-5.1,5.67,5.67,0,1,1,9.49,0Z" fill="#fff" fill-rule="evenodd"/><path d="M892.82,488a5.58,5.58,0,0,0,1-3.15v-2.52a5.67,5.67,0,0,0-11.33,0v2.52a5.58,5.58,0,0,0,1,3.15,9.46,9.46,0,0,0-4.74,8.18v2.52a1.89,1.89,0,0,0,1.89,1.89h15.11a1.89,1.89,0,0,0,1.89-1.89v-2.52a9.46,9.46,0,0,0-4.74-8.18Zm-6.59-5.67a1.89,1.89,0,0,1,3.77,0v2.52a1.89,1.89,0,1,1-3.77,0v-2.52Zm7.55,14.48H882.45v-.63a5.67,5.67,0,0,1,11.33,0Z" fill="#fff" fill-rule="evenodd"/><path d="M915.61,488a5.58,5.58,0,0,0,1-3.15v-2.52a5.67,5.67,0,0,0-11.33,0v2.52a5.58,5.58,0,0,0,1,3.15,9.46,9.46,0,0,0-4.74,8.18v2.52a1.89,1.89,0,0,0,1.89,1.89h15.11a1.89,1.89,0,0,0,1.89-1.89v-2.52a9.46,9.46,0,0,0-4.74-8.18ZM909,482.28a1.89,1.89,0,0,1,3.77,0v2.52a1.89,1.89,0,1,1-3.77,0v-2.52Zm7.55,14.48H905.24v-.63a5.67,5.67,0,0,1,11.33,0Z" fill="#fff" fill-rule="evenodd"/><path d="M938.4,488a5.58,5.58,0,0,0,1-3.15v-2.52a5.67,5.67,0,0,0-11.33,0v2.52a5.58,5.58,0,0,0,1,3.15,9.46,9.46,0,0,0-4.74,8.18v2.52a1.89,1.89,0,0,0,1.89,1.89h15.11a1.89,1.89,0,0,0,1.89-1.89v-2.52A9.46,9.46,0,0,0,938.4,488Zm-6.59-5.67a1.89,1.89,0,0,1,3.77,0v2.52a1.89,1.89,0,1,1-3.77,0v-2.52Zm7.55,14.48H928v-.63a5.67,5.67,0,0,1,11.33,0Z" fill="#fff" fill-rule="evenodd"/><path d="M854.64,312.83a13.57,13.57,0,0,1,2.26,1.07,1,1,0,0,1,.26,1.6c-.5.75-1.09.89-1.76.41a18.91,18.91,0,0,0-1.68-.92c-.85-.37-1-.93-.47-1.68A1.07,1.07,0,0,1,854.64,312.83Zm-.84,10.67q1.8-2.91,2.54-4.35c.47-.87,1-1,1.77-.33a1.25,1.25,0,0,1,.32,1.58c-.76,1.52-1.58,3-2.44,4.53a1.07,1.07,0,0,1-1.82.35,1.57,1.57,0,0,1-.63-.83A1.31,1.31,0,0,1,853.8,323.5Zm3.42-15.67.42.23.44.24a1,1,0,0,1,.29,1.64,1.52,1.52,0,0,1-.82.68,1.28,1.28,0,0,1-1-.33c-.66-.41-1.21-.72-1.64-.94-.84-.38-1-.94-.47-1.68a1.08,1.08,0,0,1,1.43-.47A10.28,10.28,0,0,1,857.22,307.83ZM869,315.5l-9.51.68a1.11,1.11,0,0,1-.88-.23,1.45,1.45,0,0,1-.37-.9c-.1-.88.29-1.32,1.15-1.33l.37,0a2.71,2.71,0,0,1,.36,0,41,41,0,0,0,2.1-5.62,1.39,1.39,0,0,1,.59-.91,1.65,1.65,0,0,1,1.11-.08c1,.22,1.3.82.9,1.81q-1.12,2.76-2,4.65l4.8-.28c-.19-.31-.49-.73-.9-1.28-.58-.71-.44-1.27.41-1.7a1.18,1.18,0,0,1,1.58.31,30.59,30.59,0,0,1,3,4.43,1.16,1.16,0,0,1,.08.89,1.54,1.54,0,0,1-.72.63,1.11,1.11,0,0,1-1.78-.56l-.12-.23Zm-7.83,2.15h7.69a1.34,1.34,0,0,1,1,.38,1.41,1.41,0,0,1,.36,1v5.17a1.26,1.26,0,0,1-1.35,1.35h-7.69a1.34,1.34,0,0,1-1-.37,1.28,1.28,0,0,1-.38-1V319a1.3,1.3,0,0,1,1.37-1.38Zm1.54,5.6h4.49a.43.43,0,0,0,.49-.49v-2.3a.43.43,0,0,0-.49-.49h-4.49a.44.44,0,0,0-.51.49v2.3C862.17,323.09,862.34,323.25,862.68,323.25Z" fill="#008f70"/><path d="M874.76,308h4.55a1,1,0,0,1,1.15,1.14c0,.8-.38,1.19-1.15,1.19h-1.09V314H879a1,1,0,0,1,1.13,1.13,1,1,0,0,1-1.13,1.17h-.74v4.18l.8-.24a1,1,0,0,1,1.48.9,1.15,1.15,0,0,1-.84,1.42l-4.53,1.49c-.84.28-1.34,0-1.52-.92a1.12,1.12,0,0,1,.88-1.5l1.42-.41v-4.92h-1a1,1,0,0,1-1.15-1.17,1,1,0,0,1,1.15-1.13h1v-3.69h-1.15c-.77,0-1.15-.39-1.15-1.19A1,1,0,0,1,874.76,308Zm17.14,17.75H880.81a1.13,1.13,0,1,1,0-2.25h4.61v-2h-3.2a1,1,0,0,1-1.1-1.13,1,1,0,0,1,1.1-1.11h3.2v-1.8h-2.81a1.3,1.3,0,0,1-1-.38,1.34,1.34,0,0,1-.37-1v-7a1.27,1.27,0,0,1,1.35-1.35h8.14a1.27,1.27,0,0,1,1.36,1.35v7a1.38,1.38,0,0,1-.37,1,1.34,1.34,0,0,1-1,.38h-2.83v1.8h3.31a1,1,0,0,1,1.1,1.11,1,1,0,0,1-1.1,1.13h-3.31v2h4a1.13,1.13,0,1,1,0,2.25Zm-6.27-15.95H884a.42.42,0,0,0-.48.47v1.27h2.16Zm0,3.71h-2.16v1.31c0,.33.17.5.52.5h1.64Zm2.07-2h2v-1.23a.44.44,0,0,0-.49-.51H887.7Zm0,3.78h1.62a.38.38,0,0,0,.43-.43v-1.38h-2Z" fill="#008f70"/><path d="M912.43,325H896.09a1.26,1.26,0,1,1,0-2.51h6.64V311.58h-5.5a1.3,1.3,0,0,1,0-2.6h14a1.3,1.3,0,1,1,0,2.6h-5.68v10.87h6.87a1.26,1.26,0,1,1,0,2.51Z" fill="#008f70"/><path d="M920.47,312v13.15a1.25,1.25,0,0,1-2.5,0v-9.27l0,0v0c-.85,1-1.55.94-2.09-.1a1.74,1.74,0,0,1-.23-1,1.8,1.8,0,0,1,.51-.94,21.61,21.61,0,0,0,3.45-5.78,1.17,1.17,0,0,1,1.62-.82,1,1,0,0,1,.78,1.56A30.37,30.37,0,0,1,920.47,312Zm6.42-1.78h6.89a1.18,1.18,0,0,1,0,2.36H929v2.21h4.27a1.13,1.13,0,1,1,0,2.26H929v2.38h4.51a1,1,0,0,1,1.15,1.15,1,1,0,0,1-1.15,1.17H929v3.4a1.11,1.11,0,0,1-1.25,1.25,1.12,1.12,0,0,1-1.29-1.25V312.59h-.76a27,27,0,0,1-2,3.08,1.24,1.24,0,0,1-.83.57,1.38,1.38,0,0,1-.91-.45,1.51,1.51,0,0,1-.54-.88,1.31,1.31,0,0,1,.42-.93,22.14,22.14,0,0,0,3.19-5.78,1.18,1.18,0,0,1,1.56-.9,1,1,0,0,1,.8,1.54C927.46,308.92,927.26,309.38,926.89,310.23Z" fill="#008f70"/><path d="M938.68,307.61h15a1.26,1.26,0,0,1,1.36,1.35V324.3a1.27,1.27,0,0,1-1.36,1.35h-15a1.27,1.27,0,0,1-1.35-1.35V309a1.26,1.26,0,0,1,1.35-1.35Zm13.47,2.23h-12c-.33,0-.49.17-.49.51v12.57c0,.35.16.52.49.52h12c.33,0,.5-.17.5-.52V310.35A.45.45,0,0,0,952.15,309.84Zm-9.49,8.84a4,4,0,0,1-1.27.78.83.83,0,0,1-.88-.39c-.43-.53-.29-1,.41-1.42a6.87,6.87,0,0,0,1.51-1.33H941.1a.64.64,0,0,1-.72-.74.63.63,0,0,1,.72-.71h2.34a8.93,8.93,0,0,0,.49-1h-1.19c-.22,0-.33-.12-.33-.35v-.06c0-.19-.07-.21-.2,0a.21.21,0,0,0-.06.08.81.81,0,0,1-1.15.12c-.55-.38-.56-.82,0-1.31a8.6,8.6,0,0,0,1-1.33.85.85,0,0,1,1.09-.43c.61.16.77.52.47,1.08a4.29,4.29,0,0,1-.28.47l-.23.35h1.45c.1-.36.19-.76.29-1.18a.9.9,0,0,1,1.09-.85,1.15,1.15,0,0,1,.56.2.6.6,0,0,1,.2.5,2.42,2.42,0,0,1,0,.53,4.7,4.7,0,0,1-.15.64,1.23,1.23,0,0,1,0,.16h3.06l-.6-.67c-.44-.45-.37-.84.21-1.15a.77.77,0,0,1,1,.08,18.75,18.75,0,0,1,1.68,1.87.76.76,0,0,1,.18.6,1,1,0,0,1-.46.48.79.79,0,0,1-1.21-.22c-.05-.07-.15-.2-.31-.39v.47c0,.23-.11.35-.33.35h-1.09c.13.29.3.63.52,1h2.25a.63.63,0,0,1,.72.71.64.64,0,0,1-.72.74H950a7.06,7.06,0,0,0,1.25,1.07,1.28,1.28,0,0,1,.68.63.93.93,0,0,1-.29.82.89.89,0,0,1-1.29.21,6.34,6.34,0,0,1-1.42-1.25,4.67,4.67,0,0,1-.45,2.38,1.47,1.47,0,0,1-1.06.43c-.37,0-.66.06-.86.06-.48,0-.78-.21-.89-.55s0-.51.09-.62a1,1,0,0,1,.71-.12h.19c.23,0,.37-.05.43-.15a2.1,2.1,0,0,0,.14-.63h-2.66v2.11c0,.27.06.45.19.52a1.9,1.9,0,0,0,.85.12h3a.89.89,0,0,0,.45-.09c.27-.87.73-1.2,1.37-1,.45.15.6.63.45,1.43a1.52,1.52,0,0,1-.7.91,3.09,3.09,0,0,1-1.37.24h-3.38a3.81,3.81,0,0,1-2.17-.43,2,2,0,0,1-.56-1.68Zm1.41-1.44h4.41a9.36,9.36,0,0,1-.63-.92h-3.14A9.58,9.58,0,0,1,944.07,317.24Zm1.62-2.89a3.31,3.31,0,0,1-.2.52h1.64a8.85,8.85,0,0,1-.37-1h-.84A2.79,2.79,0,0,1,945.69,314.35Z" fill="#008f70"/><circle cx="743.94" cy="320.76" r="100.99" transform="translate(262.25 972.15) rotate(-76.84)" fill="#d661b5"/><g clip-path="url(#b)"><circle cx="743.94" cy="320.76" r="100.99" transform="translate(160.2 882.53) rotate(-67.23)" fill="none" stroke="#fff" stroke-miterlimit="22.93" stroke-width="14.4" opacity="0.5"/></g><circle cx="743.94" cy="320.76" r="73.31" transform="translate(132.36 852.08) rotate(-64.31)" fill="#bf4a9e"/><path d="M643,316.75a404.22,404.22,0,0,1,155.52,89,101,101,0,0,1-155.52-89Z" fill-rule="evenodd" opacity="0.15"/><path d="M732.21,109c7.17,0,10.2,5.17,10.2,12.62s-3,12.64-10.2,12.64S722,129.07,722,121.59,725,109,732.21,109Zm0,7.14c-2.48,0-2.79,2.38-2.79,5.48s.31,5.5,2.79,5.5,2.76-2.38,2.76-5.5S734.66,116.11,732.21,116.11Z" fill="#d661b5"/><path d="M755.81,130.63H745.17v-6.29l10.13-14.45h8.12V124.1h2.45v6.53h-2.45v3.74h-7.61Zm.61-6.53v-5.61l-3.67,5.61Z" fill="#d661b5"/><path d="M751.52,171.69H736.37a1.2,1.2,0,0,0,0,2.4h6.37v29.24a4,4,0,1,0,2.4,0V174.09h6.38a1.2,1.2,0,1,0,0-2.4Z" fill="#8cb9c9" fill-rule="evenodd"/><path d="M680.24,159.37h-6.49l1.15.49c.3.14.46.3.48.49s-.09.37-.35.52a31.75,31.75,0,0,1-4.66,2,1.46,1.46,0,0,1-1.56-.37c-.85-.85-.61-1.44.7-1.77a19.74,19.74,0,0,0,3.75-1.37H671.5a1.38,1.38,0,0,1-1-.38,1.37,1.37,0,0,1-.38-1v-7.87h0a1.12,1.12,0,0,1-1.62-.06c-.71-.71-.56-1.41.43-2.09a15.32,15.32,0,0,0,3.51-3.69q.45-.78,1.89-.54a1.4,1.4,0,0,1,.76.38.53.53,0,0,1,0,.67l0,0v0h4.41a1,1,0,0,1,1,.43,1.69,1.69,0,0,1,0,1.33,10.19,10.19,0,0,1-1.07,1.66h3.57a1.34,1.34,0,0,1,1,.38,1.41,1.41,0,0,1,.36,1V158a1.39,1.39,0,0,1-.36,1,1.34,1.34,0,0,1-1,.38h-2.13c1.87.74,3.19,1.28,4,1.64s.91.61.86.86-.42.53-1.09.84a1.57,1.57,0,0,1-1.46,0c-.77-.42-1.7-.89-2.78-1.39-.58-.25-.89-.53-.94-.85s.17-.64.65-.94Zm-8-11.1h4.1c.48-.56.87-1.06,1.19-1.51h-3.92A12.48,12.48,0,0,1,672.24,148.27Zm.35,3.14h9.06v-.7c0-.34-.16-.51-.49-.51h-8.57Zm0,3h9.06v-1.17h-9.06Zm9.06,1.8h-9.06v.72a.45.45,0,0,0,.51.51h8.06c.33,0,.49-.17.49-.51Z" fill="#3a7a91"/><path d="M706.59,152.05h-8.08v.67a34.14,34.14,0,0,1-.25,4.33,7,7,0,0,0,.78-2.48.8.8,0,0,1,1-.8.79.79,0,0,1,.73,1,10,10,0,0,1-.55,2.26,1.09,1.09,0,0,1-.69.59,1.32,1.32,0,0,1-1-.14l-.35-.2a15.07,15.07,0,0,1-1.31,4.63q-.6,1.13-1.56.45a1.15,1.15,0,0,1-.49-.6,1,1,0,0,1,0-.61,5.7,5.7,0,0,1,.3-.74h-4.06a1.31,1.31,0,0,1-1-.37,1.37,1.37,0,0,1-.37-1v-2.19s0,0,0,0,0,0,0,0a.42.42,0,0,1-.53.2,1.15,1.15,0,0,1-.52-.53,2.14,2.14,0,0,1-.24-2,24.25,24.25,0,0,0,2.05-7.94h-1a1.09,1.09,0,0,1,0-2.17h5.19a1.09,1.09,0,1,1,0,2.17h-2c-.2,1.48-.47,2.91-.8,4.31h1.87a1.34,1.34,0,0,1,1,.38,1.3,1.3,0,0,1,.38,1v8.12a18.81,18.81,0,0,0,1.28-7.71v-.65h0a.71.71,0,0,1-.61-.3,1.39,1.39,0,0,1,0-1.5.7.7,0,0,1,.61-.29h0v-.05a.65.65,0,0,1,.31-.57,1.32,1.32,0,0,1,.73-.2,1.27,1.27,0,0,1,.73.2.66.66,0,0,1,.32.57V150h8.08a1,1,0,0,1,0,2.09Zm-14.85,1v4.7c0,.34.16.51.49.51h.84v-4.72a.43.43,0,0,0-.49-.49Zm13.84-4.37H698a1.34,1.34,0,0,1-1-.37,1.38,1.38,0,0,1-.38-1v-2.19a.93.93,0,0,1,1-1,.92.92,0,0,1,1,1v1a.43.43,0,0,0,.49.49h1.44v-2.09a1.09,1.09,0,0,1,2.17,0v2.09h1.54c.34,0,.51-.16.51-.49v-1a1.07,1.07,0,1,1,2.14,0v2.15a1.42,1.42,0,0,1-.37,1A1.34,1.34,0,0,1,705.58,148.7Zm-6.68,11.94a4.93,4.93,0,0,0,2.08-2.58,16.14,16.14,0,0,0,.64-4.47c0-.81.37-1.21,1-1.21a.88.88,0,0,1,1,1s0,.12,0,.23,0,.18,0,.22a17,17,0,0,0,.41,2.87,18.63,18.63,0,0,0,1-2.4.93.93,0,0,1,1.35-.67c.71.23.87.72.47,1.47,0,.09-.32.62-.86,1.6a1.15,1.15,0,0,1-.71.57,1.45,1.45,0,0,1-1-.1l-.12,0a6.07,6.07,0,0,0,2.27,3.22c1,.58,1.3,1.21.8,1.89s-1,.59-1.72.16a7,7,0,0,1-2.64-3.46,6.76,6.76,0,0,1-3,3.57c-.77.37-1.33.3-1.68-.19C697.65,161.67,697.9,161.1,698.9,160.64Z" fill="#3a7a91"/><path d="M714.32,155.29v5a3.76,3.76,0,0,1-.21,1.42,1.57,1.57,0,0,1-.71.78,4.86,4.86,0,0,1-1.22.39,2.92,2.92,0,0,1-1.38-.09,1.17,1.17,0,0,1-.85-.8.94.94,0,0,1,.13-1,1.53,1.53,0,0,1,1.12-.31h.27c.26,0,.39-.14.39-.41V156l-.84.21a1.1,1.1,0,0,1-1.5-.86,1,1,0,0,1,.84-1.46l.75-.18.75-.19v-3.71h-1.23a1,1,0,0,1-1.15-1.15,1,1,0,0,1,1.15-1.17h1.23v-2.76a1.23,1.23,0,0,1,2.46,0v2.76h.88a1,1,0,0,1,1.15,1.17,1,1,0,0,1-1.15,1.15h-.88v3.1l.7-.19a1,1,0,0,1,1.37.95,1.09,1.09,0,0,1-.84,1.33Q715.24,155.07,714.32,155.29Zm12.73-6.52h-3.5v2.52h3a1.09,1.09,0,0,1,1,.45,1.7,1.7,0,0,1,.06,1.33,14.12,14.12,0,0,1-3.39,5.74,11.63,11.63,0,0,0,3,1.56q1.82.58.84,1.89a1.42,1.42,0,0,1-1.77.45,13.52,13.52,0,0,1-4-2.25,18.4,18.4,0,0,1-4.27,2.19,1.33,1.33,0,0,1-1.76-.57c-.52-.87-.22-1.46.9-1.79a13.59,13.59,0,0,0,3.3-1.58,16,16,0,0,1-2.71-4.43c-.15-.37,0-.62.37-.76h0c-.68,0-1-.35-1-1.06s.37-1.17,1.1-1.17h3v-2.52h-3.3a1.16,1.16,0,1,1,0-2.32h3.3v-1.79a1.09,1.09,0,0,1,1.25-1.21,1.07,1.07,0,0,1,1.21,1.21v1.79h3.5a1.16,1.16,0,1,1,0,2.32Zm-2.13,4.75h-5a11.7,11.7,0,0,0,2.44,3.72A11.53,11.53,0,0,0,724.92,153.52Z" fill="#3a7a91"/><path d="M738.58,161.93v-12h-2a.57.57,0,0,1-.61-.62v-.06c-.41.8-.82,1.55-1.23,2.23V162a1.14,1.14,0,0,1-2.28,0v-7.38a.49.49,0,0,1-.08.12.58.58,0,0,1-.1.11q-1.1,1.13-1.83-.15a1.58,1.58,0,0,1-.27-1,1.62,1.62,0,0,1,.56-.89,18.16,18.16,0,0,0,2.77-3.76,1.37,1.37,0,0,1,.73-.71,1.51,1.51,0,0,1,1.05,0l.68.23v-.47a.32.32,0,0,1,.37-.37h2.19V144.6c0-.75.39-1.12,1.17-1.12a1,1,0,0,1,1.13,1.12v3.08h1.74a1.13,1.13,0,0,1,0,2.26h-1.74v12a1,1,0,0,1-1.13,1.13A1,1,0,0,1,738.58,161.93ZM733.82,147a20.24,20.24,0,0,1-1.52,1.56.91.91,0,0,1-1.55-.2,1.1,1.1,0,0,1,.26-1.64,14.79,14.79,0,0,0,2.09-2.44,1.19,1.19,0,0,1,1.52-.48c.84.29,1,.8.54,1.52A18.62,18.62,0,0,1,733.82,147Zm3.9,5.36v2.46a12.47,12.47,0,0,1-.76,5c-.34.63-.77.75-1.27.35a1,1,0,0,1-.23-1.48,9.76,9.76,0,0,0,.62-3.89V152.4a.82.82,0,1,1,1.64,0Zm4.55-6c0-.1-.15-.29-.28-.59s-.23-.51-.31-.66c-.3-.58-.17-1,.41-1.21a.79.79,0,0,1,1.15.39c.49,1,.74,1.48.75,1.54.2.47,0,.82-.49,1A.8.8,0,0,1,742.27,146.45Zm1.05,10.81v.48a.34.34,0,0,0,0,.11.11.11,0,0,0,0,.08.06.06,0,0,0,.06,0h.29c.19,0,.3-.15.35-.47a.44.44,0,0,0,0-.1q0-.12,0-.33c0-.13,0-.25,0-.36a2.36,2.36,0,0,1,0-.35,1.23,1.23,0,0,1,.07-.29,1.13,1.13,0,0,1,.12-.21.2.2,0,0,1,.21-.07l.31.09a.75.75,0,0,1,.36.8,7.28,7.28,0,0,1-.2,2,1.34,1.34,0,0,1-.43.54,1.28,1.28,0,0,1-.84.24h-.66A1.35,1.35,0,0,1,742,159a3.08,3.08,0,0,1-.36-1.89v-4.73a.84.84,0,0,1,1.68,0Zm1.8-6.87h3.45a1,1,0,0,1,1.1,1.1c0,.76-.36,1.13-1.1,1.13h-.37v7.84a4,4,0,0,1-.19,1.4,1.37,1.37,0,0,1-.67.77,2.85,2.85,0,0,1-1.14.39,2.65,2.65,0,0,1-1.26-.15,1.13,1.13,0,0,1-.74-.81,1,1,0,0,1,.14-1,1.58,1.58,0,0,1,1.13-.3h.1c.24,0,.35-.09.35-.28v-7.82h-.8a1.12,1.12,0,0,1,0-2.23Zm.39-5.79h2.69a1.1,1.1,0,1,1,0,2.2h-2.69a1.1,1.1,0,0,1,0-2.2Z" fill="#3a7a91"/><path d="M769.22,161.62H752.87a1.25,1.25,0,1,1,0-2.5h6.65V148.25H754a1.3,1.3,0,0,1,0-2.6h14a1.3,1.3,0,1,1,0,2.6h-5.68v10.87h6.87a1.25,1.25,0,1,1,0,2.5Z" fill="#3a7a91"/><path d="M777.26,148.68v13.15a1.25,1.25,0,0,1-2.5,0v-9.27l0,0v0c-.85,1-1.55.94-2.1-.1a1.53,1.53,0,0,1,.29-2,21.61,21.61,0,0,0,3.45-5.78,1.17,1.17,0,0,1,1.62-.82,1,1,0,0,1,.78,1.55A29.68,29.68,0,0,1,777.26,148.68Zm6.42-1.78h6.89a1.18,1.18,0,0,1,0,2.36h-4.74v2.21h4.27a1.13,1.13,0,1,1,0,2.26h-4.27v2.38h4.51a1,1,0,0,1,1.15,1.15,1,1,0,0,1-1.15,1.17h-4.51v3.4a1.11,1.11,0,0,1-1.25,1.25,1.12,1.12,0,0,1-1.29-1.25V149.26h-.76a27.29,27.29,0,0,1-1.95,3.07,1.23,1.23,0,0,1-.83.58,1.36,1.36,0,0,1-.91-.45,1.54,1.54,0,0,1-.55-.88,1.4,1.4,0,0,1,.42-.93,22.15,22.15,0,0,0,3.2-5.78,1.18,1.18,0,0,1,1.56-.9,1,1,0,0,1,.8,1.54C784.24,145.59,784.05,146.05,783.68,146.9Z" fill="#3a7a91"/><path d="M795.47,144.27h15a1.26,1.26,0,0,1,1.35,1.36V161a1.26,1.26,0,0,1-1.35,1.35h-15a1.26,1.26,0,0,1-1.35-1.35V145.63a1.26,1.26,0,0,1,1.35-1.36Zm13.47,2.24H797a.45.45,0,0,0-.5.51v12.57c0,.35.17.52.5.52h12c.33,0,.49-.17.49-.52V147C809.43,146.68,809.27,146.51,808.94,146.51Zm-9.49,8.84a4,4,0,0,1-1.27.78.85.85,0,0,1-.89-.39c-.42-.53-.28-1,.41-1.42a6.91,6.91,0,0,0,1.52-1.33h-1.33a.65.65,0,0,1-.72-.74.64.64,0,0,1,.72-.72h2.34a9.7,9.7,0,0,0,.49-1h-1.19c-.22,0-.33-.12-.33-.35v-.06c0-.19-.07-.21-.2,0l-.07.08a.8.8,0,0,1-1.14.12c-.55-.38-.56-.82,0-1.31a8.6,8.6,0,0,0,1-1.33.84.84,0,0,1,1.09-.43c.61.16.77.52.47,1.08-.06.11-.15.27-.28.47l-.23.35h1.45c.1-.36.19-.76.29-1.19a.9.9,0,0,1,1.09-.84,1.15,1.15,0,0,1,.56.2.59.59,0,0,1,.19.5,3.51,3.51,0,0,1,0,.53c0,.13-.07.34-.15.64a1.23,1.23,0,0,1,0,.16h3.05c-.12-.15-.32-.37-.59-.67-.44-.45-.37-.84.2-1.15a.78.78,0,0,1,1,.08,18.75,18.75,0,0,1,1.68,1.87.74.74,0,0,1,.17.6.93.93,0,0,1-.46.48.8.8,0,0,1-1.21-.22,3.44,3.44,0,0,0-.3-.39v.47c0,.23-.11.35-.33.35h-1.09a9.63,9.63,0,0,0,.51,1H808a.64.64,0,0,1,.72.72.65.65,0,0,1-.72.74h-1.23a7.06,7.06,0,0,0,1.25,1.07,1.28,1.28,0,0,1,.68.63.93.93,0,0,1-.29.82.89.89,0,0,1-1.29.21,6.34,6.34,0,0,1-1.42-1.25,4.67,4.67,0,0,1-.45,2.38,1.48,1.48,0,0,1-1.06.43,8.61,8.61,0,0,1-.87.06.86.86,0,0,1-.88-.56c-.08-.3-.05-.5.08-.61a1,1,0,0,1,.72-.12h.19c.23,0,.37-.05.43-.15a2.1,2.1,0,0,0,.14-.63h-2.67v2.11c0,.27.07.45.2.52a1.9,1.9,0,0,0,.85.12h3a.84.84,0,0,0,.45-.09c.28-.87.74-1.2,1.38-1,.45.15.6.63.45,1.43a1.52,1.52,0,0,1-.7.91,3.09,3.09,0,0,1-1.37.24h-3.39a3.79,3.79,0,0,1-2.16-.43,2,2,0,0,1-.56-1.68Zm1.41-1.44h4.41a9.36,9.36,0,0,1-.63-.92H801.5A9.58,9.58,0,0,1,800.86,153.91Zm1.62-2.89a2.69,2.69,0,0,1-.2.51h1.64a8.07,8.07,0,0,1-.37-1h-.84A3.69,3.69,0,0,1,802.48,151Z" fill="#3a7a91"/><path d="M744.48,332.08a19.43,19.43,0,0,1,.73-2.67H711.66a12,12,0,0,1-12-12v-3.28a12,12,0,0,1,12-12,11.84,11.84,0,0,1,4.91,1.05,2.57,2.57,0,0,0,2.45-.18,2.54,2.54,0,0,0,1.17-2.14V297.4a12.09,12.09,0,0,1,.59-3.74,1.33,1.33,0,1,0-2.53-.83,14.72,14.72,0,0,0-.73,4.57v3.35A14.63,14.63,0,0,0,697,314.16v3.28a14.66,14.66,0,0,0,14.64,14.64Z" fill="#fff" fill-rule="evenodd"/><path d="M732.19,298.25c4,0,6.2,2.52,6.2,4a1.43,1.43,0,0,1-1.58,1.58c-2,0-1.42-2.78-4.62-2.78-2.2,0-4,1.9-4,5.23,0,2.79,1.11,5.22,4.14,5.22,2.75,0,2.68-2.94,4.37-2.94a1.53,1.53,0,0,1,1.7,1.34c0,2.22-2.68,4.41-6.07,4.41-4.8,0-7.63-2.75-7.63-8C724.69,302,727.24,298.25,732.19,298.25Z" fill="#fff"/><path d="M747.64,298.25c5,0,7.76,3.35,7.76,7.84,0,4.33-2.51,8.23-7.76,8.23-5.5,0-7.76-3.58-7.76-8.23C739.88,301.6,742.61,298.25,747.64,298.25Zm0,13.26c3.18,0,4.27-2.47,4.27-5.42s-1.41-5-4.27-5-4.26,2.09-4.26,5S744.36,311.51,747.64,311.51Z" fill="#fff"/><path d="M763.14,313.58a1.14,1.14,0,1,1,0,2.28h-5.53a1.11,1.11,0,0,1-1.15-1.13c0-.84.2-1.28,2.69-3l1.29-.9c.67-.46.91-.84.91-1.4a1.06,1.06,0,0,0-1.18-1.09c-1.55,0-.74,1.88-2.28,1.88a1.17,1.17,0,0,1-1.33-1.31c0-1.31,1.28-2.69,3.69-2.69,2.89,0,3.9,1.57,3.9,3.08a3.09,3.09,0,0,1-1.78,2.71l-2.46,1.55v0Z" fill="#fff"/><path d="M772.22,282.31a4.38,4.38,0,1,1,4.37-4.38A4.39,4.39,0,0,1,772.22,282.31Zm0-6.09a1.71,1.71,0,1,0,1.71,1.71A1.71,1.71,0,0,0,772.22,276.22Z" fill="#fff"/><path d="M715.47,346.67a3.36,3.36,0,1,1,3.36-3.36A3.37,3.37,0,0,1,715.47,346.67Zm0-4.06a.7.7,0,1,0,.7.7A.7.7,0,0,0,715.47,342.61Z" fill="#fff"/><path d="M727.68,343.81a5.19,5.19,0,1,1,5.19-5.19A5.2,5.2,0,0,1,727.68,343.81Zm0-7.72a2.53,2.53,0,1,0,2.53,2.53A2.53,2.53,0,0,0,727.68,336.09Z" fill="#fff"/><path d="M780.83,326.63a12.2,12.2,0,0,0,2.14-2.34,11.92,11.92,0,0,0,2.16-6.86v-7.77a12,12,0,0,0-12-12,11.84,11.84,0,0,0-4.91,1.05,2.56,2.56,0,0,1-3.62-2.33v-3.87a12,12,0,0,0-22.32-6,2.54,2.54,0,0,1-3.61.84,12,12,0,0,0-14.86,1.42,1.33,1.33,0,0,1-1.85-1.91,14.64,14.64,0,0,1,18.08-1.79,14.64,14.64,0,0,1,27.23,7.46v3.7a14.65,14.65,0,0,1,20.5,13.42v7.77A14.59,14.59,0,0,1,782,329.12,20,20,0,0,0,780.83,326.63Z" fill="#fff" fill-rule="evenodd"/><path d="M763.64,351.07a15.14,15.14,0,1,0-15.14-15.14A15.14,15.14,0,0,0,763.64,351.07Zm0,2.27a17.41,17.41,0,1,0-17.41-17.41A17.42,17.42,0,0,0,763.64,353.34Z" fill="#fff" fill-rule="evenodd"/><path d="M762.22,323.14v3a5.69,5.69,0,0,0-3.28,2.31,5.67,5.67,0,0,0,4.7,8.86,2.88,2.88,0,0,1,1.58.48,2.83,2.83,0,0,1,1,1.27,2.91,2.91,0,0,1,.16,1.65,2.86,2.86,0,0,1-2.24,2.23,2.88,2.88,0,0,1-1.64-.16,2.83,2.83,0,0,1-1.27-1.05,2.8,2.8,0,0,1-.48-1.58H758a5.7,5.7,0,0,0,4.27,5.49v3h2.84v-3a5.67,5.67,0,0,0,4.21-6.22,5.67,5.67,0,0,0-5.63-4.95,2.84,2.84,0,0,1-2.79-3.4,2.79,2.79,0,0,1,.78-1.45,2.83,2.83,0,0,1,4.37.43,2.75,2.75,0,0,1,.48,1.58h2.84a5.65,5.65,0,0,0-1.19-3.47,5.73,5.73,0,0,0-3.07-2v-3Z" fill="#fff"/><circle cx="525.02" cy="262.1" r="100.99" transform="translate(260.19 785.74) rotate(-89.7)" fill="#f76897"/><g clip-path="url(#c)"><circle cx="525.02" cy="262.1" r="100.99" transform="translate(33.95 583.33) rotate(-59.72)" fill="none" stroke="#fff" stroke-miterlimit="22.93" stroke-width="14.4" opacity="0.5"/></g><circle cx="525.02" cy="262.1" r="73.31" transform="translate(43.02 596.8) rotate(-61.31)" fill="#e64077"/><path d="M525,299.26a406,406,0,0,1,89.35,9.92,101,101,0,0,1-178.71,0A406,406,0,0,1,525,299.26Z" fill-rule="evenodd" opacity="0.15"/><path d="M514.93,51.19c7.18,0,10.2,5.17,10.2,12.61s-3,12.65-10.2,12.65-10.19-5.17-10.19-12.65S507.73,51.19,514.93,51.19Zm0,7.14c-2.48,0-2.78,2.38-2.78,5.47s.3,5.51,2.78,5.51,2.76-2.38,2.76-5.51S517.38,58.33,514.93,58.33Z" fill="#f76897"/><path d="M536.42,51.19c5.51,0,8.44,3.06,8.44,6.94a5.44,5.44,0,0,1-3.64,5.54v.13a5.67,5.67,0,0,1,4.08,5.68c0,4.39-3.16,7.35-8.4,7.35-5.58,0-9.42-2.45-9.52-8.71h7.34c-.1,1.6.41,2.48,1.84,2.48A1.48,1.48,0,0,0,538,68.94c0-1.23-.68-1.94-2.76-1.94H534V60.92h1.22c.61,0,2.31.06,2.31-1.84,0-1.22-.61-1.67-1.26-1.67-1.08,0-1.25,1.13-1.25,2.11h-7.35C527.79,54.12,530.88,51.19,536.42,51.19Z" fill="#f76897"/><line x1="525.02" y1="148.46" x2="525.02" y2="114.23" fill="none" stroke="#8cb9c9" stroke-linecap="round" stroke-linejoin="round" stroke-width="2.4"/><line x1="517.44" y1="114.23" x2="532.59" y2="114.23" fill="none" stroke="#8cb9c9" stroke-linecap="round" stroke-linejoin="round" stroke-width="2.4"/><circle cx="525.02" cy="148.46" r="3.99" fill="#8cb9c9"/><path d="M401.91,100.62a18.82,18.82,0,0,1-.76,3.51,1,1,0,0,1-.47.65,1,1,0,0,1-.8-.12,1.15,1.15,0,0,1-.62-.52,1.1,1.1,0,0,1,.09-.81,16.6,16.6,0,0,0,.57-2.85c.08-.74.47-1.06,1.15-1A.9.9,0,0,1,401.91,100.62ZM404.43,98v7.65a.92.92,0,0,1-1,1c-.73,0-1.09-.35-1.09-1V98.16l-1.81.16a1,1,0,0,1-1.18-1,.93.93,0,0,1,1-1.17l.35,0q.68-.83,1-1.23a17.69,17.69,0,0,0-1.78-2.3,1,1,0,0,1-.23-.81A2,2,0,0,1,400,91a1,1,0,0,1,.44-.34.46.46,0,0,1,.48.1h0l0,0a21.33,21.33,0,0,0,1.12-2.61,1,1,0,0,1,1.42-.65c.72.24.89.74.51,1.49a31.05,31.05,0,0,1-1.78,3.16,8.71,8.71,0,0,1,.67.82c.62-1,1.09-1.8,1.42-2.46A.93.93,0,0,1,405.7,90c.73.33.87.82.43,1.47q-1.45,2.2-3.24,4.54l1.81-.11a1.58,1.58,0,0,1-.1-.24,1,1,0,0,0-.11-.23.8.8,0,0,1,.48-1.27.87.87,0,0,1,1.25.45,19.13,19.13,0,0,1,1.29,3.2c.07.27.23.3.49.08l.55-.47a.62.62,0,0,1,.87,0,12.33,12.33,0,0,1,1.41,1.4,1,1,0,0,1-.2,1.41c-.65.56-1.19.52-1.65-.12a17.62,17.62,0,0,0-1.59-1.7l0,0-.89.39c-.5.21-.81.08-.92-.39l-.12-.5Zm5.15,6.13c-.11.09-.28.23-.52.4s-.41.29-.51.38c-.68.5-1.27.32-1.78-.56-.3-.57-.21-1,.27-1.25l-.78.25a.66.66,0,0,1-.52,0,.51.51,0,0,1-.24-.38c-.1-.52-.29-1.27-.58-2.24a.92.92,0,0,1,1.73-.63,14.2,14.2,0,0,1,.74,2.81c.77-.47,1.64-1,2.58-1.64.67-.43,1.14-.28,1.41.43a1,1,0,0,1-.32,1.29c-.17.12-.41.31-.74.57Zm-1.42-9.66h5.69l.22-1h-3.81l0,0a.53.53,0,0,1-.28.29.67.67,0,0,1-.44.06,2.16,2.16,0,0,1-1.11-.42.76.76,0,0,1-.25-.87c.43-1.53.8-3,1.11-4.43a1.08,1.08,0,0,1,1.31-.94,1.06,1.06,0,0,1,.87.41,1.51,1.51,0,0,1,.06,1h4.2a1.3,1.3,0,0,1,1,.4A1.25,1.25,0,0,1,417,90.1c-.11.74-.37,2.19-.8,4.37h1.32a.92.92,0,0,1,1,1c0,.73-.35,1.09-1,1.09H414a17.31,17.31,0,0,0,.82,2.46,15.51,15.51,0,0,0,1.25-1.27,1.13,1.13,0,0,1,.76-.49,1.23,1.23,0,0,1,.84.37c.62.52.61,1.06,0,1.64s-1.26,1.09-1.85,1.54a8.68,8.68,0,0,0,1.79,2c.91.57,1.1,1.23.55,2s-1.06.67-1.78.13a10.39,10.39,0,0,1-2.38-3.26v2.66a3.37,3.37,0,0,1-.19,1.29,1.28,1.28,0,0,1-.69.7,4.67,4.67,0,0,1-1.7.35c-.81,0-1.3-.25-1.46-.84-.12-.44-.08-.75.13-.94a1.51,1.51,0,0,1,1.08-.27h.25a.28.28,0,0,0,.32-.31V96.6h-3.59c-.69,0-1-.36-1-1.09A.92.92,0,0,1,408.16,94.47Zm2.61-2.85h3.61l.1-.62c.06-.31-.07-.47-.39-.47h-3Z" fill="#3a7a91"/><path d="M421.64,96.58h2.42a1,1,0,0,1,1.09,1.09V102c.8,1.28,2.35,2,4.63,2.08,2.62.1,5.47.08,8.53-.09.55,0,.9.05,1.07.26a1.29,1.29,0,0,1,0,1.1,1.32,1.32,0,0,1-.43.72,1.53,1.53,0,0,1-.82.26q-5.07.17-8.37,0a10,10,0,0,1-3.35-.62,5.55,5.55,0,0,1-2.29-1.74c-1,1-1.5,1.46-1.52,1.46-.85.74-1.49.64-1.93-.31a1.29,1.29,0,0,1,.5-1.76,16.28,16.28,0,0,0,1.62-1.23V99.39a.45.45,0,0,0-.52-.51h-.65a1.15,1.15,0,1,1,0-2.3Zm1.25-4.74c.79.52,1.39,1,1.8,1.27.51.47.5,1,0,1.5a1.06,1.06,0,0,1-1.68.1,13,13,0,0,0-1.29-1c-.77-.51-.83-1.06-.21-1.66A1.09,1.09,0,0,1,422.89,91.84Zm.74-4.18A18.63,18.63,0,0,1,425.35,89a1,1,0,0,1,0,1.56,1.41,1.41,0,0,1-.85.46,1.2,1.2,0,0,1-.83-.44c-.48-.42-.9-.76-1.25-1-.73-.52-.78-1.07-.17-1.65A1.14,1.14,0,0,1,423.63,87.66Zm14.91,14.5h-4.76v.18a1.2,1.2,0,0,1-2.4,0v-.18h-4.49a.91.91,0,0,1,0-1.81h4.49v-.78h-2.87a1.34,1.34,0,0,1-1-.37,1.42,1.42,0,0,1-.37-1V94.78a1.27,1.27,0,0,1,1.36-1.36h2.87v-.74h-3.75a.86.86,0,0,1,0-1.72h3.75v0a.93.93,0,0,1,.34-.78,1.52,1.52,0,0,1,1.73,0,1,1,0,0,1,.33.78v0h3.92a.86.86,0,1,1,0,1.72h-3.92v.74h3.05a1.27,1.27,0,0,1,1.36,1.36V98.2a1.42,1.42,0,0,1-.37,1,1.34,1.34,0,0,1-1,.37h-3.05v.78h4.76a.91.91,0,0,1,0,1.81ZM427.61,87.72h10.27a1.38,1.38,0,0,1,1,.38,1.36,1.36,0,0,1,.37,1v.36a1,1,0,0,1-.45.85,1.86,1.86,0,0,1-1.06.3.94.94,0,0,1-.55-.16A.51.51,0,0,1,437,90v0a.44.44,0,0,0-.49-.5h-7.61a.47.47,0,0,0-.52.52v.37c0,.16-.07.24-.22.24h-.51a1.45,1.45,0,0,1,0-2.89ZM431.38,95h-1.66c-.32,0-.47.15-.47.45v.37h2.13Zm0,2.26h-2.13v.49a.29.29,0,0,0,.32.33h1.81Zm2.4-1.44H436v-.49c0-.22-.11-.33-.34-.33h-1.87Zm0,2.26h1.72c.33,0,.49-.16.49-.47v-.35h-2.21Z" fill="#3a7a91"/><path d="M451.68,88h3.92a1.51,1.51,0,0,1,1.48.9,12.51,12.51,0,0,0,2.68,3.38c.43.32.66.61.69.88s-.15.57-.54.91a1.14,1.14,0,0,1-1.62,0c-.09-.08-.2-.2-.35-.36l-.31-.32V94a.39.39,0,0,1-.45.43H453a.67.67,0,0,1-.75-.76v-.06c-.28.24-.59.5-.95.78a1,1,0,0,1-1.58-.23,4,4,0,0,0-.43-.47v4.92a1.27,1.27,0,0,1-.38,1,1.34,1.34,0,0,1-1,.37h-1.35v1.27h1.94a1.09,1.09,0,0,1,0,2.18h-1.94v2.32a.89.89,0,0,1-1,1,.9.9,0,0,1-1-1v-2.32h-2.13a1.09,1.09,0,0,1,0-2.18h2.13V99.92h-1.37a1.25,1.25,0,0,1-.9-.32,1.22,1.22,0,0,1-.33-.91v-5a1.3,1.3,0,0,1,.37-1,1.31,1.31,0,0,1,1-.37h1.23V91.25h-1.84a1,1,0,0,1-1.07-1.09.94.94,0,0,1,1.07-1.06h1.84v-1a.9.9,0,0,1,1-1,.88.88,0,0,1,1,1v1h1.91a.94.94,0,0,1,1.07,1.06,1,1,0,0,1-1.07,1.09h-1.91v1.11h2a.63.63,0,0,1,.72.71v.07a9.72,9.72,0,0,0,3.14-3h-.74a1,1,0,0,1,0-2.09Zm-6.93,7.32V94.1h-.61a.42.42,0,0,0-.48.47v.76Zm0,2.87V97h-1.09v.74a.44.44,0,0,0,.5.49Zm1.58-4.1v1.23h1.17v-.74c0-.33-.17-.49-.51-.49Zm0,2.87V98.2H447c.34,0,.51-.16.51-.49V97Zm5-1.48h2.44a1.11,1.11,0,0,1,.85.33,1.16,1.16,0,0,1,.32.86v2.94c.41-1.43.72-2.59.92-3.49a.71.71,0,0,1,.34-.55,1.25,1.25,0,0,1,.75,0c.62.1.84.48.66,1.15-.26,1-.67,2.37-1.21,4.06a35.36,35.36,0,0,1,1.72,4.68.77.77,0,0,1-.06.66,1.22,1.22,0,0,1-.64.32,1.1,1.1,0,0,1-.79,0,.75.75,0,0,1-.36-.61,27.17,27.17,0,0,0-1.33-4.18v3.09c0,.85-.18,1.39-.53,1.62a1.34,1.34,0,0,1-1.2.26,1,1,0,0,1-.85-.81c-.15-.59.06-.88.63-.88h0c.13,0,.19-.08.19-.23V103l-.27.23c-.12.11-.22.11-.31,0a5.18,5.18,0,0,0-.94-.93v3.49a.86.86,0,0,1-1.72,0v-9a1.37,1.37,0,0,1,.37-1A1.3,1.3,0,0,1,451.29,95.49Zm1,2.67a3.87,3.87,0,0,1,.92.61v-.9c0-.34-.16-.51-.49-.51h-.54a.44.44,0,0,0-.49.51v.56l.27-.25A.27.27,0,0,1,452.26,98.16Zm.45,2.19a6.84,6.84,0,0,0-1-.9v1.79l.25-.19a.23.23,0,0,1,.28,0c.46.3.78.53,1,.7v-1.56l-.23.2Q452.82,100.49,452.71,100.35Zm1.15-7.91h2.95a17,17,0,0,1-1.56-2.34h-.37A10.29,10.29,0,0,1,453.67,92C453.47,92.3,453.53,92.44,453.86,92.44Zm4.55,11.5c-.25-.72-.58-1.56-1-2.5a1.72,1.72,0,0,1-.08-1.35c.36-1,.73-2.36,1.13-4a.71.71,0,0,1,.34-.57,1.2,1.2,0,0,1,.75,0c.64.13.87.53.69,1.21s-.66,2.16-1.33,4a35.52,35.52,0,0,1,1.93,4.66.82.82,0,0,1,0,.67,1.18,1.18,0,0,1-.65.35c-.65.18-1,0-1.17-.61C459,105.59,458.75,105,458.41,103.94Z" fill="#3a7a91"/><path d="M464.68,88.13h10.87a1.26,1.26,0,0,1,1,.39,1.29,1.29,0,0,1,.25,1c-.11.94-.32,2.42-.65,4.45h2.4a1.12,1.12,0,0,1,1,.45,1.73,1.73,0,0,1,.09,1.35,14.56,14.56,0,0,1-3.63,6.56,16.06,16.06,0,0,0,3.63,1.42c1.48.29,1.87,1,1.17,2a1.7,1.7,0,0,1-2,.61,15.15,15.15,0,0,1-5-2.25,18,18,0,0,1-4.33,2.13,1.35,1.35,0,0,1-1.76-.53c-.57-.89-.27-1.5.92-1.83a13.39,13.39,0,0,0,3.16-1.47,16.91,16.91,0,0,1-3.22-5.07q-1.06,5.53-3.59,8.27a1.13,1.13,0,0,1-1.74.08,1.35,1.35,0,0,1-.57-1,1.44,1.44,0,0,1,.53-1,11.17,11.17,0,0,0,1.71-2.74,16.1,16.1,0,0,0,1.08-3.4c.24-1.23.42-2.39.53-3.48s.19-2.3.23-3.61h-2.14a1.22,1.22,0,1,1,0-2.44Zm9.38,2.44H469.4q-.11,1.94-.27,3.45h4.35C473.7,92.84,473.89,91.69,474.06,90.57Zm2.83,5.78h-6.3a11.89,11.89,0,0,0,3.28,4.54A11.84,11.84,0,0,0,476.89,96.35Z" fill="#3a7a91"/><path d="M484.64,96.58h2.42a1,1,0,0,1,1.09,1.09V102c.8,1.28,2.35,2,4.63,2.08,2.62.1,5.47.08,8.53-.09.55,0,.9.05,1.07.26a1.29,1.29,0,0,1,0,1.1,1.32,1.32,0,0,1-.43.72,1.53,1.53,0,0,1-.82.26q-5.07.17-8.37,0a10,10,0,0,1-3.35-.62,5.55,5.55,0,0,1-2.29-1.74c-1,1-1.5,1.46-1.52,1.46-.85.74-1.49.64-1.93-.31a1.29,1.29,0,0,1,.5-1.76,16.28,16.28,0,0,0,1.62-1.23V99.39a.45.45,0,0,0-.52-.51h-.65a1.15,1.15,0,1,1,0-2.3Zm1.25-4.74c.79.52,1.39,1,1.8,1.27.51.47.5,1,0,1.5a1.06,1.06,0,0,1-1.68.1,13,13,0,0,0-1.29-1c-.77-.51-.83-1.06-.21-1.66A1.09,1.09,0,0,1,485.89,91.84Zm.74-4.18A18.63,18.63,0,0,1,488.35,89a1,1,0,0,1,0,1.56,1.41,1.41,0,0,1-.85.46,1.2,1.2,0,0,1-.83-.44c-.48-.42-.9-.76-1.25-1-.73-.52-.78-1.07-.17-1.65A1.14,1.14,0,0,1,486.63,87.66Zm14.91,14.5h-4.76v.18a1.2,1.2,0,0,1-2.4,0v-.18h-4.49a.91.91,0,0,1,0-1.81h4.49v-.78h-2.87a1.34,1.34,0,0,1-1-.37,1.42,1.42,0,0,1-.37-1V94.78a1.27,1.27,0,0,1,1.36-1.36h2.87v-.74h-3.75a.86.86,0,0,1,0-1.72h3.75v0a.93.93,0,0,1,.34-.78,1.52,1.52,0,0,1,1.73,0,1,1,0,0,1,.33.78v0h3.92a.86.86,0,1,1,0,1.72h-3.92v.74h3.05a1.27,1.27,0,0,1,1.36,1.36V98.2a1.42,1.42,0,0,1-.37,1,1.34,1.34,0,0,1-1,.37h-3.05v.78h4.76a.91.91,0,0,1,0,1.81ZM490.61,87.72h10.27a1.38,1.38,0,0,1,1,.38,1.36,1.36,0,0,1,.37,1v.36a1,1,0,0,1-.45.85,1.86,1.86,0,0,1-1.06.3.94.94,0,0,1-.55-.16A.51.51,0,0,1,500,90v0a.44.44,0,0,0-.49-.5h-7.61a.47.47,0,0,0-.52.52v.37c0,.16-.07.24-.22.24h-.51a1.45,1.45,0,0,1,0-2.89ZM494.38,95h-1.66c-.32,0-.47.15-.47.45v.37h2.13Zm0,2.26h-2.13v.49a.29.29,0,0,0,.32.33h1.81Zm2.4-1.44H499v-.49c0-.22-.11-.33-.34-.33h-1.87Zm0,2.26h1.72c.33,0,.49-.16.49-.47v-.35h-2.21Z" fill="#3a7a91"/><path d="M509.27,88.05H519a1.27,1.27,0,0,1,1.35,1.35V99.94h2a1.13,1.13,0,0,1,0,2.26h-4.06q3,1.35,4.27,2c.45.29.67.55.65.8s-.23.56-.65.94a1.74,1.74,0,0,1-.77.48,1.25,1.25,0,0,1-.83-.19,40.74,40.74,0,0,0-3.75-2,1.27,1.27,0,0,1-.85-.9,1.21,1.21,0,0,1,.46-1.09h-6.22l.93.68a.7.7,0,0,1,.37.57.54.54,0,0,1-.29.51,27.46,27.46,0,0,1-4.64,2.4,1.35,1.35,0,0,1-1.58-.33c-.76-.76-.59-1.35.52-1.76a20,20,0,0,0,3.79-2.07h-4a1.13,1.13,0,1,1,0-2.26h2.11V89.4a1.3,1.3,0,0,1,.38-1A1.37,1.37,0,0,1,509.27,88.05Zm1,3.12h7.57v-.64c0-.34-.16-.51-.49-.51h-6.58a.45.45,0,0,0-.5.51Zm0,2.89h7.57V92.93h-7.57Zm0,2.91h7.57V95.82h-7.57Zm7.57,1.76h-7.57v1.21h7.57Z" fill="#3a7a91"/><path d="M528.28,87.82h13.47a.93.93,0,0,1,0,1.85h-5.58v.8h6.67a1.27,1.27,0,0,1,1.35,1.35v1.77a1.14,1.14,0,0,1-2.27,0v-1a.45.45,0,0,0-.52-.51h-5.23v3.18a1.19,1.19,0,1,1-2.38,0V92.11h-5.16a.46.46,0,0,0-.52.51v1a1.09,1.09,0,0,1-2.17,0V91.82a1.3,1.3,0,0,1,.37-1,1.31,1.31,0,0,1,1-.37h6.5v-.8h-5.51a.93.93,0,0,1,0-1.85Zm.92,9.23h11.69a1.34,1.34,0,0,1,1,.38,1.39,1.39,0,0,1,.36,1v3.95a1.39,1.39,0,0,1-.36,1,1.34,1.34,0,0,1-1,.38H536v.06c0,.38.09.63.27.74a2.8,2.8,0,0,0,1.23.16h3.91a1.32,1.32,0,0,0,.91-.24,2.35,2.35,0,0,1,.61-1.22.94.94,0,0,1,1.07-.18c.56.21.75.8.57,1.79a2.16,2.16,0,0,1-.94,1.38,4.12,4.12,0,0,1-2,.38H537.3a5.15,5.15,0,0,1-2.9-.57,2.71,2.71,0,0,1-.75-2.24v-.06h-3.46v0c0,.59-.34.88-1,.88a1.4,1.4,0,0,1-1-.31,1.07,1.07,0,0,1-.37-.88V98.43a1.36,1.36,0,0,1,.37-1A1.3,1.3,0,0,1,529.2,97.05Zm3.16-.78H529.2c-.44,0-.65-.23-.65-.69a.58.58,0,0,1,.65-.66h3.16a.59.59,0,0,1,.68.66A.61.61,0,0,1,532.36,96.27Zm-2.75-3.44h2.75a.68.68,0,1,1,0,1.35h-2.75a.68.68,0,0,1,0-1.35Zm.58,6.83h3.46v-.93H530.7a.45.45,0,0,0-.51.52Zm3.46,1.51h-3.46v.52a.34.34,0,0,0,.39.39h3.07ZM536,99.66h3.75v-.54a.34.34,0,0,0-.39-.39H536Zm3.75,1.51H536v.91h3.26c.33,0,.49-.17.49-.52Zm.58-7h-2.71a.68.68,0,1,1,0-1.35h2.71a.68.68,0,0,1,0,1.35Zm.49,2.09h-3.2a.61.61,0,0,1-.68-.69.59.59,0,0,1,.68-.66h3.2a.58.58,0,0,1,.66.66Q541.51,96.27,540.85,96.27Z" fill="#3a7a91"/><path d="M564,90.76H551.86c-.18.31-.33.58-.47.8H562.3a.9.9,0,0,1,0,1.8H552.23A1.14,1.14,0,0,1,551,92.15v-.06a15.41,15.41,0,0,1-1.68,2.13H561c.9,0,1.35.71,1.35,2.11q.15,7.82,1.44,7.82c.11,0,.2-.19.26-.56a5.2,5.2,0,0,1,.13-.79,1.69,1.69,0,0,1,.23-.56.41.41,0,0,1,.4-.2.9.9,0,0,1,.54.3,2.15,2.15,0,0,1,.32,1.66,4.28,4.28,0,0,1-.63,2,1.67,1.67,0,0,1-1.42.63,2.44,2.44,0,0,1-1.83-.78,5.09,5.09,0,0,1-1.14-2.32,21.41,21.41,0,0,1-.56-3.27c-.12-1.15-.19-2.55-.22-4.19H549.77A1,1,0,0,1,548.68,95v-.06l0,0c-.11.11-.26.1-.45,0a3.94,3.94,0,0,1-.83-.79,1.73,1.73,0,0,1-.36-.88,1,1,0,0,1,.41-.85,15,15,0,0,0,2.79-4.15,1.37,1.37,0,0,1,1.81-.86q1.26.32.84,1.44a0,0,0,0,0,0,0H564a.82.82,0,0,1,.93.92A.83.83,0,0,1,564,90.76Zm-5.39,10.8h-3.28a39.25,39.25,0,0,1,3.42,2.2c.3.26.45.49.43.69a1.16,1.16,0,0,1-.49.7,1,1,0,0,1-1.41.13c-.71-.56-1.55-1.16-2.53-1.79v2a1.17,1.17,0,0,1-2.33,0V103a15.88,15.88,0,0,1-3.37,2.87,1.32,1.32,0,0,1-.86.23,1.34,1.34,0,0,1-.74-.5c-.3-.39-.41-.72-.32-1a1.47,1.47,0,0,1,.82-.73,12.75,12.75,0,0,0,3-2.36h-2.81a.84.84,0,0,1-.94-1,.83.83,0,0,1,.94-.94h1.42a12.12,12.12,0,0,0-.74-1.56.61.61,0,0,1,.35-1,1.26,1.26,0,0,1,1.7.7,1.42,1.42,0,0,1,.24,1.06,1.07,1.07,0,0,1-.71.73l-.19.06h2.16v-2a1.17,1.17,0,1,1,2.33,0v2h1.73l-.64-.23a.45.45,0,0,1-.29-.26.36.36,0,0,1,.07-.35c.13-.2.38-.62.73-1.28a1,1,0,0,1,1.38-.63c.82.24.92.76.31,1.56-.29.37-.62.76-1,1.19h1.56a.83.83,0,0,1,.94.94A.84.84,0,0,1,558.65,101.56Z" fill="#3a7a91"/><path d="M572.86,92.42v13a1.24,1.24,0,0,1-2.48,0V95.94c-.31.4-.58.72-.8,1a1.51,1.51,0,0,1-1.13.61c-.33,0-.63-.3-.92-.82a1.89,1.89,0,0,1-.26-1.1,1.73,1.73,0,0,1,.61-1,20.79,20.79,0,0,0,4.18-6.09,1.21,1.21,0,0,1,1.68-.78,1.06,1.06,0,0,1,.74,1.64C573.81,90.75,573.27,91.76,572.86,92.42Zm10.58,13.88H580a3.42,3.42,0,0,1-2.64-.79,4.82,4.82,0,0,1-.68-3V98.9c-.89.53-1.57.45-2-.25s-.33-1.32.51-1.7l1.52-.84V88.62a1.26,1.26,0,0,1,2.52,0v5.87A26.79,26.79,0,0,0,583,91.27a1.27,1.27,0,0,1,.76-.43,1.52,1.52,0,0,1,.86.2c.47.24.73.49.79.75s-.08.59-.44,1a41.46,41.46,0,0,1-5.82,4.61v5.15a2.22,2.22,0,0,0,.19,1.16c.13.17.43.25.9.25h2.93a.88.88,0,0,0,.92-.65,3.65,3.65,0,0,1,.55-1.65.83.83,0,0,1,1.15-.3,1.11,1.11,0,0,1,.63.85,3.65,3.65,0,0,1,.07,1.32,4,4,0,0,1-1,2.17A3,3,0,0,1,583.44,106.3Z" fill="#3a7a91"/><path d="M606.27,105.23H589.92a1.25,1.25,0,1,1,0-2.5h6.65V91.86h-5.5a1.3,1.3,0,0,1,0-2.6h14a1.3,1.3,0,1,1,0,2.6H599.4v10.87h6.87a1.25,1.25,0,1,1,0,2.5Z" fill="#3a7a91"/><path d="M614.31,92.29v13.15a1.25,1.25,0,0,1-2.5,0V96.17l0,0v0c-.85,1-1.55.94-2.1-.1a1.53,1.53,0,0,1,.29-2,21.61,21.61,0,0,0,3.45-5.78,1.17,1.17,0,0,1,1.62-.82,1,1,0,0,1,.78,1.56A30.37,30.37,0,0,1,614.31,92.29Zm6.42-1.78h6.89a1.18,1.18,0,0,1,0,2.36h-4.74v2.21h4.27a1.13,1.13,0,1,1,0,2.26h-4.27v2.38h4.51a1,1,0,0,1,1.15,1.15,1,1,0,0,1-1.15,1.17h-4.51v3.4a1.11,1.11,0,0,1-1.25,1.25,1.12,1.12,0,0,1-1.29-1.25V92.87h-.76a25.94,25.94,0,0,1-2,3.07,1.23,1.23,0,0,1-.83.58,1.36,1.36,0,0,1-.91-.45,1.59,1.59,0,0,1-.55-.88,1.4,1.4,0,0,1,.42-.93,21.86,21.86,0,0,0,3.2-5.78,1.18,1.18,0,0,1,1.56-.9,1,1,0,0,1,.8,1.54C621.29,89.2,621.1,89.66,620.73,90.51Z" fill="#3a7a91"/><path d="M632.52,87.89h15a1.26,1.26,0,0,1,1.36,1.35v15.34a1.27,1.27,0,0,1-1.36,1.35h-15a1.27,1.27,0,0,1-1.35-1.35V89.24a1.26,1.26,0,0,1,1.35-1.35ZM646,90.12H634a.45.45,0,0,0-.5.51V103.2c0,.35.17.52.5.52h12c.33,0,.5-.17.5-.52V90.63A.45.45,0,0,0,646,90.12ZM636.5,99a4,4,0,0,1-1.27.78.85.85,0,0,1-.89-.39c-.42-.53-.28-1,.41-1.42a6.91,6.91,0,0,0,1.52-1.33h-1.33a.65.65,0,0,1-.72-.74.63.63,0,0,1,.72-.71h2.34a8.93,8.93,0,0,0,.49-1h-1.19c-.22,0-.33-.12-.33-.35v-.06c0-.19-.07-.21-.2,0a.21.21,0,0,0-.06.08.81.81,0,0,1-1.15.12c-.55-.38-.56-.82,0-1.31a8.6,8.6,0,0,0,1-1.33.85.85,0,0,1,1.09-.43c.61.16.77.52.47,1.08-.06.11-.15.27-.28.47l-.23.35h1.45c.1-.36.19-.76.29-1.18a.9.9,0,0,1,1.09-.85,1.15,1.15,0,0,1,.56.2.6.6,0,0,1,.2.5,2.42,2.42,0,0,1,0,.53c0,.13-.07.34-.15.64a1.23,1.23,0,0,1,0,.16h3.06l-.6-.67c-.44-.45-.37-.84.21-1.15a.77.77,0,0,1,1,.08,18.75,18.75,0,0,1,1.68,1.87.76.76,0,0,1,.18.6,1,1,0,0,1-.47.48.79.79,0,0,1-1.21-.22,3.44,3.44,0,0,0-.3-.39v.47c0,.23-.11.35-.33.35H642.3c.12.29.3.63.51,1h2.26a.63.63,0,0,1,.72.71.65.65,0,0,1-.72.74h-1.23a7.06,7.06,0,0,0,1.25,1.07,1.28,1.28,0,0,1,.68.63.93.93,0,0,1-.29.82.89.89,0,0,1-1.29.21,6.34,6.34,0,0,1-1.42-1.25,4.67,4.67,0,0,1-.45,2.38,1.48,1.48,0,0,1-1.06.43,8.61,8.61,0,0,1-.87.06.87.87,0,0,1-.88-.55c-.08-.31,0-.51.08-.62a1,1,0,0,1,.72-.12h.19c.23,0,.37,0,.43-.15a2.1,2.1,0,0,0,.14-.63h-2.66V101c0,.27.06.45.19.52a1.9,1.9,0,0,0,.85.12h2.95a.91.91,0,0,0,.46-.09c.27-.87.73-1.2,1.37-1,.45.15.6.63.45,1.43a1.52,1.52,0,0,1-.7.91,3.09,3.09,0,0,1-1.37.24h-3.38a3.81,3.81,0,0,1-2.17-.43,2,2,0,0,1-.56-1.68Zm1.41-1.44h4.41a9.36,9.36,0,0,1-.63-.92h-3.14A9.58,9.58,0,0,1,637.91,97.52Zm1.62-2.89a3.31,3.31,0,0,1-.2.52H641a8.85,8.85,0,0,1-.37-1h-.84A3.69,3.69,0,0,1,639.53,94.63Z" fill="#3a7a91"/><path d="M569.81,256.12c0-4.81.1-8.32-.07-10.1-2.09-8.43-3.55-14.12-5.6-16.23-2.44-2.8-5.64-2.66-10.95-2.44-3,.13-6.79.29-11.87.06h-11a2.1,2.1,0,0,0-2.1,2.1v27.33H512.46a17.73,17.73,0,0,0-16.18-2,17.75,17.75,0,0,0-16.19,2H474.4a2.1,2.1,0,0,0-2.09,2.13c0,1.17,0,2.31,0,3.41-.41,7.72,1.1,12.75,9.83,12.66,1.4,6,9.63,8.44,14.15,3.35A8.34,8.34,0,0,0,510.49,275H536.3c2,8,13.75,8.43,16-.08,2,0,4.28.22,6.39.21,5.6.14,11-1.73,11.09-8,0-1.13,0-6.08,0-11Zm-16.45-24.58c4.83-.21,6.56-.22,7.63,1,1.31,1.51,2.33,5.19,4,11.7L546,243l-2.27-11.32c4,.09,7.17,0,9.6-.14Zm-13.89.05,2.26,11.3h-9.29v-11.3Zm-7,15.49h9.75v9.75h-9.75ZM490.12,277a4.1,4.1,0,1,1,0-8.2A4.1,4.1,0,0,1,490.12,277Zm12.39,0a4.1,4.1,0,1,1,0-8.2A4.1,4.1,0,0,1,502.51,277Zm33.79-6.19H510.49a8.33,8.33,0,0,0-14.23-3.43c-4.59-5.15-12.89-2.57-14.19,3.51-2.19,0-3.69-.35-4.47-1.09-1.46-1.21-1.14-5.69-1.1-8.74h4.29a2.06,2.06,0,0,0,1.29-.45A13.45,13.45,0,0,1,495.4,259a2.08,2.08,0,0,0,1.76,0,13.43,13.43,0,0,1,13.31,1.55,2.11,2.11,0,0,0,1.3.45h30.42v3.84a8,8,0,0,0-5.89,5.91Zm8,6.19a4.1,4.1,0,1,1,0-8.2A4.1,4.1,0,0,1,544.33,277ZM565.62,267a3.16,3.16,0,0,1-.91,2.49c-2.32,2.12-8.66,1.15-12.42,1.16a8.34,8.34,0,0,0-5.91-5.85V247.22l19.24,1.27C565.62,252.42,565.61,264.86,565.62,267Z" fill="#fff"/><path d="M565.62,261.47h-4.1a2.1,2.1,0,1,0,0,4.19h4.1Z" fill="#fff"/><path d="M516.5,218.79a1.65,1.65,0,0,0-1.39-.75H502.2a1.66,1.66,0,0,0-1.61,1.25l-3.69,14.76a1.63,1.63,0,0,0,.3,1.43,1.67,1.67,0,0,0,1.31.64h2.41l-1.3,12.93a1.67,1.67,0,0,0,1.05,1.71,1.62,1.62,0,0,0,.61.12,1.64,1.64,0,0,0,1.32-.67l13.84-18.45a1.65,1.65,0,0,0-1.33-2.65h-2.3l3.82-8.75a1.63,1.63,0,0,0-.13-1.57Zm0,0" fill="none" stroke="#fff" stroke-miterlimit="10" stroke-width="3"/><circle cx="306.09" cy="320.76" r="100.99" transform="translate(-31.28 33.08) rotate(-5.89)" fill="#3eb9e6"/><g clip-path="url(#d)"><circle cx="306.09" cy="320.76" r="100.99" transform="translate(-106.35 483.46) rotate(-67.87)" fill="none" stroke="#fff" stroke-miterlimit="22.93" stroke-width="14.4" opacity="0.5"/></g><circle cx="306.09" cy="320.76" r="73.31" transform="translate(-135.85 356.38) rotate(-50.95)" fill="#1ca4d6"/><path d="M251.49,405.73a404.22,404.22,0,0,1,155.52-89,101,101,0,0,1-155.52,89Z" fill-rule="evenodd" opacity="0.15"/><path d="M296.33,107.6c7.17,0,10.2,5.17,10.2,12.61s-3,12.65-10.2,12.65-10.2-5.17-10.2-12.65S289.12,107.6,296.33,107.6Zm0,7.14c-2.48,0-2.79,2.38-2.79,5.47s.31,5.51,2.79,5.51,2.76-2.38,2.76-5.51S298.78,114.74,296.33,114.74Z" fill="#3eb9e6"/><path d="M308.47,127c4.8-3.61,9.86-7.79,9.86-11.36,0-1.08-.51-1.7-1.29-1.7s-1.5.82-1.36,2.83h-7.31c.24-6.6,4.52-9.15,9.18-9.15,6.19,0,8.4,3.5,8.4,7.45,0,4.93-3.74,9-7.69,11.52h7.79v6.09H308.47Z" fill="#3eb9e6"/><line x1="306.09" y1="207.12" x2="306.09" y2="172.89" fill="none" stroke="#8cb9c9" stroke-linecap="round" stroke-linejoin="round" stroke-width="2.4"/><line x1="298.52" y1="172.89" x2="313.67" y2="172.89" fill="none" stroke="#8cb9c9" stroke-linecap="round" stroke-linejoin="round" stroke-width="2.4"/><path d="M306.09,211.11a4,4,0,1,0-4-4A4,4,0,0,0,306.09,211.11Z" fill="#8cb9c9" fill-rule="evenodd"/><path d="M211.77,153.27h-13.6a.44.44,0,0,0-.49.5v1a18.7,18.7,0,0,1-1.58,8.33c-.49.82-1.07,1-1.74.41a1.36,1.36,0,0,1-.25-1.95,16.61,16.61,0,0,0,1.15-6.81v-2.13a1.37,1.37,0,0,1,.37-1,1.3,1.3,0,0,1,1-.38h1.25c-.12-.2-.25-.41-.39-.61a.35.35,0,0,1-.06-.33.36.36,0,0,1,.29-.19c1-.15,2.17-.37,3.46-.67-.61-.17-1.27-.33-2-.49-.37-.09-.58-.22-.61-.41s.11-.41.42-.64l0,0h-2.95a.88.88,0,0,1-1-1,.86.86,0,0,1,1-1h6v-.18a1.22,1.22,0,0,1,2.44,0v.18h6.33a.85.85,0,0,1,1,1c0,.67-.32,1-1,1h-2.4l.27.14c.1.06.1.12,0,.19a16.15,16.15,0,0,1-2.23,1.15c.28.08.94.29,2,.63a1,1,0,0,1,.47.31.44.44,0,0,1,.05.42,1.37,1.37,0,0,1-.39.5l0,0h3.24a.89.89,0,0,1,1,1A.88.88,0,0,1,211.77,153.27Zm-.17,10.42H199a1,1,0,0,1,0-2h5.13v-1.58h-3.43a1,1,0,0,1,0-1.91h3.43v-1.33h-3.43a7.64,7.64,0,0,1-.59.82,1.09,1.09,0,1,1-1.6-1.47,10.11,10.11,0,0,0,1.19-1.91,1.1,1.1,0,0,1,1.46-.76c.72.16.95.61.67,1.33,0,0,0,0,0,0s0,0,0,0h2.32v-.2a1.2,1.2,0,0,1,2.4,0v.2h4.06a1,1,0,0,1,0,2h-4.06v1.33H210a1,1,0,0,1,0,1.91h-3.46v1.58h5a1,1,0,1,1,0,2Zm-11.28-12.45H207c-1.15-.39-2.15-.72-3-1C202.7,150.67,201.47,151,200.32,151.24Zm5.73-3.38h-5c.75.18,1.76.43,3,.76A20,20,0,0,0,206.05,147.86Z" fill="#3a7a91"/><path d="M225.49,157.23h7.07a1,1,0,1,1,0,2.07h-5a16.93,16.93,0,0,0,4.55,1.87c1.37.29,1.7.9,1,1.84a1.53,1.53,0,0,1-1.77.5,17.28,17.28,0,0,1-5.84-3.2v2.58a1.2,1.2,0,0,1-2.4,0v-2.46a18.7,18.7,0,0,1-6,3.1,1.46,1.46,0,0,1-1.62-.47c-.66-.87-.39-1.45.8-1.75a20.39,20.39,0,0,0,4.78-2h-4.94a1,1,0,1,1,0-2.07h6.93v-.92H218a.91.91,0,0,1,0-1.81h5.11v-.94H217a1,1,0,0,1,0-1.95h3a7.29,7.29,0,0,0-.64-1.47c-.06-.11,0-.18.11-.21H216.2a.9.9,0,0,1-1-1,.89.89,0,0,1,1-1H218a13.31,13.31,0,0,0-.7-1.5,1,1,0,0,1,.62-1.54,1.1,1.1,0,0,1,1.41.52l.17.26.18.31c0,.07.1.17.17.31a3.13,3.13,0,0,1,.14.33,2.7,2.7,0,0,1,.08.31.62.62,0,0,1,0,.3,1.3,1.3,0,0,1-.1.27.68.68,0,0,1-.23.25,1.69,1.69,0,0,1-.38.18h1.89v-2.28a1,1,0,0,1,1.17-1.14,1,1,0,0,1,1.15,1.14v2.28h1.56v-2.28a1.17,1.17,0,0,1,2.34,0v2.28h1.84l-.45-.14c-.2-.07-.26-.2-.16-.37a11.77,11.77,0,0,0,.73-1.6,1.21,1.21,0,0,1,1.58-.9c1,.23,1.15.84.56,1.82-.26.44-.51.83-.74,1.19h1.7a.9.9,0,0,1,1,1,.91.91,0,0,1-1,1h-2.91q-.23.45-1,1.68h3.09a1,1,0,1,1,0,1.95h-6.25v.94h5.33a.91.91,0,0,1,0,1.81h-5.33Zm1.39-7.3h-5a10.83,10.83,0,0,1,.63,1.35c0,.15,0,.26-.26.33h3.87C226.43,151,226.68,150.46,226.88,149.93Z" fill="#3a7a91"/><path d="M238,145.52h10.86a1.26,1.26,0,0,1,1,.39,1.33,1.33,0,0,1,.26,1.05c-.11.94-.33,2.42-.66,4.45h2.4a1.1,1.1,0,0,1,1,.45,1.77,1.77,0,0,1,.1,1.35,14.75,14.75,0,0,1-3.63,6.56,15.69,15.69,0,0,0,3.63,1.42c1.47.29,1.86.95,1.17,2a1.71,1.71,0,0,1-2,.61,15.12,15.12,0,0,1-5-2.25,17.94,17.94,0,0,1-4.32,2.13,1.36,1.36,0,0,1-1.77-.53q-.86-1.33.93-1.83a13.5,13.5,0,0,0,3.15-1.47,16.91,16.91,0,0,1-3.22-5.07c-.71,3.69-1.9,6.45-3.59,8.26a1.13,1.13,0,0,1-1.74.09,1.35,1.35,0,0,1-.57-1,1.48,1.48,0,0,1,.53-1,11.17,11.17,0,0,0,1.71-2.74,16.1,16.1,0,0,0,1.08-3.4,35.19,35.19,0,0,0,.53-3.48c.11-1.09.19-2.3.23-3.61H238a1.22,1.22,0,1,1,0-2.44Zm9.37,2.44h-4.66c-.07,1.29-.15,2.44-.26,3.45h4.34C247,150.23,247.16,149.08,247.33,148Zm2.83,5.78h-6.3a11.89,11.89,0,0,0,3.28,4.54A11.84,11.84,0,0,0,250.16,153.74Z" fill="#3a7a91"/><path d="M264.51,150.55c-.49,0-1.51.09-3.06.19l-3.56.22a1,1,0,0,1-1.17-1.07,1.09,1.09,0,0,1,.31-1,2.08,2.08,0,0,1,1.21-.27,31,31,0,0,0,1.15-3.06,1.19,1.19,0,0,1,1.55-.9c.93.18,1.21.73.83,1.66-.13.29-.3.68-.53,1.17s-.38.83-.46,1l2.75-.12-.19-.33c-.08-.15-.14-.26-.18-.32a.93.93,0,0,1,.57-1.52,1.06,1.06,0,0,1,1.42.45,20.36,20.36,0,0,1,1.68,3.16c.21.61-.06,1.07-.8,1.37s-1.28.12-1.5-.59c0,0,0,0,0,0ZM259.2,152h5.11a1.3,1.3,0,0,1,1,.38,1.36,1.36,0,0,1,.37,1v8.16c0,1.08-.29,1.77-.88,2.07a4.16,4.16,0,0,1-1.72.39,1.36,1.36,0,0,1-1.5-.86c-.3-.89.1-1.34,1.19-1.34h.16a.36.36,0,0,0,.25-.06.35.35,0,0,0,.06-.24v-1.4h-3.1v2.83a1,1,0,0,1-1.12,1.13,1,1,0,0,1-1.17-1.13v-9.55a1.33,1.33,0,0,1,.38-1A1.34,1.34,0,0,1,259.2,152Zm.92,3.16h3.1v-.62a.42.42,0,0,0-.47-.47h-2.13a.44.44,0,0,0-.5.49Zm3.1,1.85h-3.1v1.23h3.1Zm4.1-6.16v-5.1a1.22,1.22,0,0,1,2.44,0v1.78a27.24,27.24,0,0,0,2.94-1.31,1.14,1.14,0,0,1,1.49.35c.62.69.52,1.22-.3,1.58-1.21.49-2.58,1-4.13,1.43v1.23c0,.37.05.6.16.7a1.34,1.34,0,0,0,.77.14H273a.67.67,0,0,0,.45-.12,2.46,2.46,0,0,1,.6-1.32.94.94,0,0,1,1.13-.16,1,1,0,0,1,.59.78,3.38,3.38,0,0,1,0,1.23,2.38,2.38,0,0,1-.85,1.43,3,3,0,0,1-1.69.4h-2.87a3.31,3.31,0,0,1-2.41-.64A3.48,3.48,0,0,1,267.32,150.85Zm0,10.05v-5.39a1.07,1.07,0,0,1,1.23-1.19,1.05,1.05,0,0,1,1.19,1.19v1.64c1.47-.63,2.48-1.11,3.06-1.44a1.14,1.14,0,0,1,1.58.27c.64.7.54,1.24-.29,1.64a34.8,34.8,0,0,1-4.35,1.62v1.66c0,.37.06.6.18.7a1.45,1.45,0,0,0,.79.14h2.38a.68.68,0,0,0,.59-.26,3.17,3.17,0,0,1,.55-1.45.84.84,0,0,1,1.09-.24,1.07,1.07,0,0,1,.6.78,3.38,3.38,0,0,1,0,1.23,2.29,2.29,0,0,1-2.65,2.14h-2.95a3.36,3.36,0,0,1-2.42-.64A3.48,3.48,0,0,1,267.32,160.9Z" fill="#3a7a91"/><path d="M280.84,151.12l.72.45a1,1,0,0,1,.18,1.54c-.55.72-1.14.83-1.78.31-.39-.25-.78-.5-1.19-.74a1,1,0,0,1-.41-1.68,1,1,0,0,1,1.39-.41C280.23,150.81,280.59,151,280.84,151.12Zm-2.5,10.34c.76-1.66,1.4-3.14,1.9-4.43.32-.91.87-1.08,1.66-.54a1.17,1.17,0,0,1,.5,1.52c-.52,1.48-1.12,3-1.79,4.55a1.05,1.05,0,0,1-1.74.54A1.11,1.11,0,0,1,278.34,161.46Zm2.6-13.62-.57-.37c-.29-.19-.52-.34-.68-.43a1,1,0,0,1-.35-1.66,1.07,1.07,0,0,1,1.48-.39,14.35,14.35,0,0,1,1.76,1,1,1,0,0,1,.16,1.56A1.12,1.12,0,0,1,280.94,147.84Zm4.27-2.28h10.48a1,1,0,0,1,1.1,1.11,1,1,0,0,1-1.1,1.13H293c-.18.54-.35,1.13-.51,1.74h2.39a1.29,1.29,0,0,1,1.36,1.37v4.84a1.34,1.34,0,0,1-.37,1,1.38,1.38,0,0,1-1,.37h-2.29v4.59a3.75,3.75,0,0,1-.18,1.33,1.17,1.17,0,0,1-.68.68,5.1,5.1,0,0,1-1.81.35c-.79,0-1.27-.29-1.43-.88a.88.88,0,0,1,.14-1,1.51,1.51,0,0,1,1.07-.27h.24c.22,0,.33-.1.33-.31v-4.53H288.3a1.27,1.27,0,0,1-1.35-1.36v-4.84a1.34,1.34,0,0,1,.37-1,1.3,1.3,0,0,1,1-.38H290c.15-1.09.24-1.67.25-1.74h-3.53a.44.44,0,0,0-.49.51v3.06q0,7.55-2.17,11.6a1.11,1.11,0,0,1-1.71.45c-.72-.45-.83-1.07-.32-1.86q1.8-3.47,1.8-10.19v-4.45a1.34,1.34,0,0,1,.38-1A1.4,1.4,0,0,1,285.21,145.56Zm3.87,14a16.73,16.73,0,0,1-1.43,2.64,1.26,1.26,0,0,1-.69.51,1.2,1.2,0,0,1-.81-.26,1.28,1.28,0,0,1-.63-.79,1.23,1.23,0,0,1,.4-.91,11.32,11.32,0,0,0,1-1.79,1.07,1.07,0,0,1,1.39-.76C289.09,158.39,289.34,158.84,289.08,159.55Zm4.35-8.2h-3.79c-.35,0-.52.16-.52.49v.65h4.82v-.65C293.94,151.51,293.77,151.35,293.43,151.35Zm.51,2.83h-4.82v.65c0,.33.17.49.52.49h3.79c.34,0,.51-.16.51-.49Zm.7,7.4a17.26,17.26,0,0,0-.88-2q-.61-1.08.57-1.56a1.05,1.05,0,0,1,1.46.47,14.83,14.83,0,0,1,1.17,2.32,1.09,1.09,0,0,1,0,.85,1.49,1.49,0,0,1-.7.55C295.46,162.61,294.91,162.39,294.64,161.58Z" fill="#3a7a91"/><path d="M308.24,149.34h-8.37a1,1,0,0,1-1.11-1.13,1,1,0,0,1,1.11-1.11h2.93v-1.29a1.2,1.2,0,0,1,2.4,0v1.29h3a1,1,0,0,1,1.1,1.11A1,1,0,0,1,308.24,149.34Zm-5.5,2A13.31,13.31,0,0,1,301,154.2a1.33,1.33,0,0,1-.74.47,1.26,1.26,0,0,1-.82-.31,1.07,1.07,0,0,1-.13-1.8,9.82,9.82,0,0,0,1.19-1.87A1.19,1.19,0,0,1,302,150C302.81,150.14,303.05,150.62,302.74,151.39ZM300,161.27a12.94,12.94,0,0,0,2.89-3.18c-.63-.65-1.21-1.23-1.74-1.72a1,1,0,0,1,.06-1.66,1.12,1.12,0,0,1,1.56,0c.14.12.35.32.63.59l.66.62c.15-.32.31-.7.47-1.15a1.17,1.17,0,0,1,1.54-.88c.85.18,1.13.69.84,1.54a20.43,20.43,0,0,1-1,2.35,21.27,21.27,0,0,1,1.6,1.93,1.1,1.1,0,0,1-.29,1.62,1.37,1.37,0,0,1-1,.45,1.17,1.17,0,0,1-.83-.65c-.27-.39-.54-.76-.82-1.11a16.59,16.59,0,0,1-3,3.32,1.23,1.23,0,0,1-1.85-.12C299,162.49,299.09,161.85,300,161.27Zm12.72-13h4.2a1,1,0,0,1,1.15,1.15,1,1,0,0,1-1.15,1.17h0a24.51,24.51,0,0,1-2.3,7.89,11,11,0,0,0,2.26,2.63,1.66,1.66,0,0,1,.78.9,1.42,1.42,0,0,1-.37,1.09,1.28,1.28,0,0,1-.87.56,1.53,1.53,0,0,1-1-.4,12.27,12.27,0,0,1-2.25-2.56,14.16,14.16,0,0,1-3.1,2.7q-1.23.72-1.89-.3c-.49-.77-.26-1.4.7-1.91a10.07,10.07,0,0,0,3-2.85,25.53,25.53,0,0,1-1.31-4l0,0,0,.05c-.55.85-1.18.93-1.89.23a1.15,1.15,0,0,1-.16-1.6s0,0,0,0,0,0,0,0l-.88.49a.82.82,0,0,1-.63.1.59.59,0,0,1-.4-.37c-.18-.35-.51-.91-1-1.68s-.38-1.19.31-1.56a1,1,0,0,1,1.39.25,14.68,14.68,0,0,1,1.27,1.91c.14.27.27.27.41,0a24.42,24.42,0,0,0,1.83-6.48c.13-.85.6-1.23,1.39-1.13a1.06,1.06,0,0,1,1,1.39Q312.81,147.68,312.67,148.29Zm1.21,5c.2-.83.36-1.73.49-2.68H312l-.08.24a25.18,25.18,0,0,0,1.27,4.8A21.65,21.65,0,0,0,313.88,153.29Z" fill="#3a7a91"/><path d="M337.52,160.35h-7v2.48a1.11,1.11,0,0,1-1.25,1.25,1.12,1.12,0,0,1-1.28-1.25v-2.48h-6.82a1.16,1.16,0,1,1,0-2.32H328V158a1.12,1.12,0,0,1,1.28-1.25,1.1,1.1,0,0,1,1.25,1.25V158h7a1.16,1.16,0,1,1,0,2.32Zm-.59-11.59h-7.51l.29.1c.11,0,.13.11.08.21-.21.24-.52.63-.93,1.15l-.92,1.13.53.37.52.38c.46-.53.92-1.1,1.37-1.72a1,1,0,0,1,1.36-.33c.74.35.83.82.28,1.44a42.09,42.09,0,0,1-3.05,3.16l2.13-.11-.07-.12a.88.88,0,0,1-.07-.12c-.38-.62-.25-1.05.39-1.31a.94.94,0,0,1,1.23.32l.3.44c.13.2.21.33.25.38l.7-.55a1,1,0,0,1,1.23-.16,28.56,28.56,0,0,1,2.81,1.7c.33.27.48.52.45.74a1.39,1.39,0,0,1-.55.76,1.64,1.64,0,0,1-.74.4,1.25,1.25,0,0,1-.74-.28,26.92,26.92,0,0,0-2.62-1.74c.16.3.28.52.34.67a.82.82,0,0,1-.51,1.23.93.93,0,0,1-1.41-.57s0,0,0,0,0,0,0,0q-4,.35-5.93.49a1.09,1.09,0,0,1-.87-.3,1.36,1.36,0,0,1-.46-.89l-.05-.18c-.95.49-1.92,1-2.89,1.39a1,1,0,0,1-1.43-.51,2.21,2.21,0,0,1-.28-.65.55.55,0,0,1,.1-.45,1.29,1.29,0,0,1,.57-.34c.35-.12,1.26-.47,2.72-1a1.39,1.39,0,0,1,1.2,0,1.24,1.24,0,0,1,.63,1l1.11,0,1.19-1.17a28.12,28.12,0,0,0-2.63-2l-.8.68a.91.91,0,0,1-1.29.06c-.48-.38-.94-.72-1.37-1-.76-.51-.8-1-.15-1.6a1.06,1.06,0,0,1,1.31-.13,20,20,0,0,1,2.3,1.58l.66-.76a.52.52,0,0,1,.8-.1c.46-.71.79-1.24,1-1.6h-5.7a1.12,1.12,0,0,1,0-2.23H328v-.78a1.12,1.12,0,0,1,1.28-1.25,1.1,1.1,0,0,1,1.25,1.25v.78h6.42a1.12,1.12,0,0,1,0,2.23Zm-.41,2.75-1,.78a1.05,1.05,0,0,1-1.19,0c-.76-.41-.82-.89-.16-1.44s.92-.88,1.17-1.14a1.21,1.21,0,0,1,1.56-.29c.86.42.91,1,.16,1.62l-.27.2A2.38,2.38,0,0,0,336.52,151.51Z" fill="#3a7a91"/><path d="M358.54,162.62H342.2a1.25,1.25,0,1,1,0-2.5h6.64V149.25h-5.49a1.3,1.3,0,1,1,0-2.6h14a1.3,1.3,0,1,1,0,2.6h-5.68v10.87h6.87a1.25,1.25,0,1,1,0,2.5Z" fill="#3a7a91"/><path d="M366.58,149.68v13.15a1.25,1.25,0,0,1-2.5,0v-9.27l0,0v0c-.85,1-1.55.94-2.09-.1a1.74,1.74,0,0,1-.23-1,1.8,1.8,0,0,1,.51-.94,21.61,21.61,0,0,0,3.45-5.78,1.17,1.17,0,0,1,1.62-.82,1,1,0,0,1,.78,1.55A29.68,29.68,0,0,1,366.58,149.68ZM373,147.9h6.89a1.18,1.18,0,0,1,0,2.36h-4.74v2.21h4.27a1.13,1.13,0,1,1,0,2.26h-4.27v2.38h4.51a1,1,0,0,1,1.15,1.15,1,1,0,0,1-1.15,1.17h-4.51v3.4a1.1,1.1,0,0,1-1.25,1.25,1.12,1.12,0,0,1-1.29-1.25V150.26h-.76a25.94,25.94,0,0,1-2,3.07,1.21,1.21,0,0,1-.83.58,1.38,1.38,0,0,1-.91-.45,1.51,1.51,0,0,1-.54-.88,1.4,1.4,0,0,1,.42-.93,22.44,22.44,0,0,0,3.2-5.78,1.18,1.18,0,0,1,1.55-.9,1,1,0,0,1,.8,1.54C373.57,146.59,373.37,147.05,373,147.9Z" fill="#3a7a91"/><path d="M384.79,145.27h15a1.27,1.27,0,0,1,1.36,1.36V162a1.27,1.27,0,0,1-1.36,1.35h-15a1.27,1.27,0,0,1-1.35-1.35V146.63a1.27,1.27,0,0,1,1.35-1.36Zm13.48,2.24h-12c-.33,0-.49.17-.49.51v12.57c0,.35.16.52.49.52h12c.32,0,.49-.17.49-.52V148A.44.44,0,0,0,398.27,147.51Zm-9.5,8.84a3.85,3.85,0,0,1-1.27.78.83.83,0,0,1-.88-.39c-.43-.53-.29-1,.41-1.42a6.87,6.87,0,0,0,1.51-1.33h-1.33a.65.65,0,0,1-.72-.74.64.64,0,0,1,.72-.72h2.34a8.05,8.05,0,0,0,.49-1h-1.19c-.22,0-.33-.12-.33-.35v-.06c0-.19-.06-.21-.2,0a.21.21,0,0,0-.06.08.81.81,0,0,1-1.15.12c-.55-.38-.55-.82,0-1.31a8.6,8.6,0,0,0,1-1.33.85.85,0,0,1,1.09-.43c.61.16.77.52.47,1.08a4.29,4.29,0,0,1-.28.47l-.23.35h1.45c.1-.36.2-.76.29-1.19a.9.9,0,0,1,1.09-.84,1.15,1.15,0,0,1,.56.2.6.6,0,0,1,.2.5,3.51,3.51,0,0,1,0,.53c0,.13-.08.34-.16.64a.53.53,0,0,1,0,.16h3.06c-.13-.15-.32-.37-.6-.67-.44-.45-.37-.84.21-1.15a.77.77,0,0,1,1,.08,18.75,18.75,0,0,1,1.68,1.87.72.72,0,0,1,.18.6,1,1,0,0,1-.46.48.79.79,0,0,1-1.21-.22,4,4,0,0,0-.31-.39v.47c0,.23-.11.35-.33.35h-1.09c.13.29.3.63.52,1h2.25a.64.64,0,0,1,.72.72.65.65,0,0,1-.72.74h-1.23a7.06,7.06,0,0,0,1.25,1.07,1.24,1.24,0,0,1,.68.63.93.93,0,0,1-.29.82.89.89,0,0,1-1.29.21,6.08,6.08,0,0,1-1.41-1.25,4.75,4.75,0,0,1-.46,2.38,1.47,1.47,0,0,1-1.06.43c-.37,0-.66.06-.86.06-.48,0-.78-.21-.89-.56s0-.5.09-.61a1,1,0,0,1,.71-.12h.19c.23,0,.38-.05.43-.15a2.1,2.1,0,0,0,.14-.63h-2.66v2.11c0,.27.06.45.19.52a1.93,1.93,0,0,0,.85.12h3a.89.89,0,0,0,.45-.09c.27-.87.73-1.2,1.37-1,.45.15.6.63.45,1.43a1.54,1.54,0,0,1-.69.91,3.16,3.16,0,0,1-1.38.24H391.5a3.81,3.81,0,0,1-2.17-.43,2.05,2.05,0,0,1-.56-1.68Zm1.42-1.44h4.4A9.36,9.36,0,0,1,394,154h-3.14C390.49,154.5,390.28,154.8,390.19,154.91Zm1.62-2.89a3.25,3.25,0,0,1-.21.51h1.64a8.07,8.07,0,0,1-.37-1H392A3.57,3.57,0,0,1,391.81,152Z" fill="#3a7a91"/><path d="M312.07,299a1.82,1.82,0,0,0-1.53-.83H296.29a1.82,1.82,0,0,0-1.77,1.39l-4.07,16.28a1.82,1.82,0,0,0,.33,1.57,1.84,1.84,0,0,0,1.44.7h2.66l-1.43,14.27a1.84,1.84,0,0,0,1.16,1.89,1.93,1.93,0,0,0,.67.12,1.82,1.82,0,0,0,1.46-.73L312,313.26a1.83,1.83,0,0,0-1.46-2.93H308l4.22-9.65a1.84,1.84,0,0,0-.15-1.73Zm0,0" fill="none" stroke="#fff" stroke-miterlimit="10" stroke-width="4"/><path d="M344.56,309.05a2.52,2.52,0,0,0-3.57.23l-1.6,1.84A38,38,0,0,0,280.21,283a38.06,38.06,0,0,0-13.74,16.91,2.53,2.53,0,1,0,4.68,1.93,32.9,32.9,0,0,1,63.12,8.95L333,309.28a2.53,2.53,0,1,0-3.8,3.34l5.9,6.74a2.52,2.52,0,0,0,3.81,0l5.9-6.74a2.53,2.53,0,0,0-.24-3.57Zm0,0" fill="#fff"/><path d="M335.3,325.48a2.53,2.53,0,0,0-3.31,1.37,32.89,32.89,0,0,1-63.11-8.94l1.27,1.45A2.53,2.53,0,0,0,274,316l-5.9-6.75a2.54,2.54,0,0,0-3.81,0L258.34,316a2.53,2.53,0,0,0,3.81,3.33l1.61-1.83a38,38,0,0,0,72.91,11.25,2.53,2.53,0,0,0-1.37-3.3Zm0,0" fill="#fff"/><path d="M129.72,333.51H114.57a1.2,1.2,0,1,0,0,2.39H121v29.24a4,4,0,1,0,2.4,0V335.91h6.37a1.2,1.2,0,1,0,0-2.4Z" fill="#8cb9c9" fill-rule="evenodd"/><circle cx="145.83" cy="481.02" r="100.99" transform="translate(-297.42 244) rotate(-45)" fill="#ffa845"/><g clip-path="url(#e)"><circle cx="145.83" cy="481.02" r="100.99" transform="translate(-297.42 244) rotate(-45)" fill="none" stroke="#fff" stroke-miterlimit="22.93" stroke-width="14.4" opacity="0.5"/></g><path d="M82.34,444.37a73.31,73.31,0,1,1,26.83,100.14A73.3,73.3,0,0,1,82.34,444.37Z" fill="#fa8b37" fill-rule="evenodd"/><path d="M115.43,271c7.17,0,10.2,5.16,10.2,12.61s-3,12.65-10.2,12.65-10.2-5.17-10.2-12.65S108.22,271,115.43,271Zm0,7.14c-2.48,0-2.79,2.38-2.79,5.47s.31,5.51,2.79,5.51,2.75-2.38,2.75-5.51S117.88,278.09,115.43,278.09Z" fill="#ffa845"/><path d="M130.56,278.56H127v-7.07h11.52v24.85h-7.92Z" fill="#ffa845"/><path d="M165.27,450.74v8.13c-.42-.26-.71-.41-1-.6L152.62,450a9.09,9.09,0,0,0-11.06,0q-12.74,9-25.48,17.94c-3.31,2.33-3.33,4.88,0,7.2,1.42,1,2.82,2,4.27,3a1.55,1.55,0,0,1,.74,1.45c0,6.36,0,12.72,0,19.08,0,3.55,2.08,5.7,5.69,5.76s7,0,10.52,0a1.69,1.69,0,0,1,.8.11c1.87,1.09,3.73,2.21,5.73,3.4a1.7,1.7,0,0,1-.45.15c-5.86,0-11.72.1-17.58-.08a10,10,0,0,1-7.94-4,7,7,0,0,1-1.47-4.41c0-6.11,0-12.22,0-18.33a1.53,1.53,0,0,0-.75-1.45c-1.29-.86-2.58-1.73-3.79-2.69-4-3.24-3.93-8.24.25-11.27,4.72-3.42,9.52-6.73,14.28-10.09,4.13-2.91,8.25-5.83,12.4-8.73a14.8,14.8,0,0,1,16.69,0l5,3.52c1-2.85,3.26-3.37,5.84-3.32,2.23,0,4.47,0,6.7,0a7.23,7.23,0,0,1,2.52.53,3.55,3.55,0,0,1,2.32,3.57c0,3.5,0,7,0,10.51a1.49,1.49,0,0,0,.76,1.44q1.74,1.15,3.42,2.4c2.41,1.81,3.78,4.1,3.14,7.23a7.3,7.3,0,0,1-3.06,4.4c-1.15.85-2.31,1.67-3.5,2.46a1.53,1.53,0,0,0-.76,1.45c0,5.76,0,11.53,0,17.3,0,4.63-2.22,7.65-6.69,9a14,14,0,0,1-3.65.57c-5.55.06-11.1,0-16.66,0-.2,0-.4,0-.88-.09,1.46-.88,2.75-1.56,3.92-2.38a6.9,6.9,0,0,1,4.42-1.24c2.94.12,5.9.13,8.84,0a9.52,9.52,0,0,0,3.7-1,4.18,4.18,0,0,0,2.31-4.05c0-6.61,0-13.21,0-19.82a1.45,1.45,0,0,1,.71-1.36c1.62-1.1,3.21-2.24,4.8-3.36a4.1,4.1,0,0,0,1.93-2.84,3.7,3.7,0,0,0-1.79-3.55c-1.58-1.15-3.17-2.29-4.8-3.37a1.72,1.72,0,0,1-.85-1.67c0-3.88,0-7.75,0-11.63,0-.83-.24-1.05-1.06-1C169.87,450.78,167.64,450.74,165.27,450.74Z" fill="#fff"/><path d="M139,473.49c-.71,0-1.43,0-2.13,0s-.7-.19-.76-.7a6.18,6.18,0,0,0-.48-2,2.28,2.28,0,0,0-2.16-1.36,2.13,2.13,0,0,0-2.14,1.35,7.55,7.55,0,0,0-.74,2.67,41,41,0,0,0,.24,5.65A3.23,3.23,0,0,0,132,481a2.62,2.62,0,0,0,4.18-1.86c.2-1.15.2-1.16,1.42-1.1s2.61.14,3.91.2c.41,0,.73.07.67.61-.41,3.4-2.34,6.19-5.56,7.05-6.47,1.73-11.23-1.53-12.29-7.09a14.48,14.48,0,0,1,1-9.28c1.74-3.6,5.26-5.32,9.5-4.74s7,3.37,7.36,7.57c.06.65-.14.91-.81.91s-1.54.06-2.3.1Z" fill="#fff"/><path d="M169.22,482.41l3.55.23c0,.68-.07,1.25-.1,1.93h-7a2.11,2.11,0,0,1,1-2.85,11.8,11.8,0,0,0,2.77-2.36c.35-.43.12-1.34.16-2A14.8,14.8,0,0,1,168,478c-.73.22-1.48.36-2.44.58.37-2.47,1.67-3.56,3.42-3.49,1.17.05,2.85.71,3.33,1.62C173.75,479.41,171.36,480.71,169.22,482.41Z" fill="#fff"/><path d="M163.29,472.21c-1-4.72-4.27-7.2-10.13-7.43-3.8-.15-7,2.34-8.34,6.15a13.76,13.76,0,0,0,0,9.67,9,9,0,0,0,8.84,6,9.32,9.32,0,0,0,9.55-7.53A15,15,0,0,0,163.29,472.21Zm-6.76,7.11a3.52,3.52,0,0,1-.42,1.16,2.36,2.36,0,0,1-3.14,1.1,2.43,2.43,0,0,1-1-.89,5.3,5.3,0,0,1-.71-1.76,14.93,14.93,0,0,1,.09-6.65,4.87,4.87,0,0,1,.9-1.84,2.21,2.21,0,0,1,3.78.35,10.34,10.34,0,0,1,.79,2.84,10.05,10.05,0,0,1,0,1.9H157C156.84,476.8,156.72,478.06,156.53,479.32Z" fill="#fff"/><rect x="142.9" y="487.36" width="8.36" height="14.78" fill="#fff"/><path d="M134.1,497.94l25.55-1.14-12.52,11.33Z" fill="#fff"/><path d="M66.7,315.75H58.17A57.92,57.92,0,0,1,55.69,321l4-.2,3.35-.17c-.15-.24-.54-.78-1.17-1.64s-.42-1.35.51-1.75a1.32,1.32,0,0,1,1.64.35,35,35,0,0,1,3.35,4.88,1.18,1.18,0,0,1,.12,1,1.73,1.73,0,0,1-.78.67,1.2,1.2,0,0,1-1.91-.61s-.07-.12-.12-.23-.1-.18-.12-.22q-5.58.39-13.33.82a1.05,1.05,0,0,1-.85-.27,1.64,1.64,0,0,1-.34-.94c-.13-.93.28-1.42,1.23-1.46l1.58-.06A42.64,42.64,0,0,0,55,315.75H50.38a1.27,1.27,0,1,1,0-2.53H57.1v-3H51.91A1.1,1.1,0,0,1,50.68,309a1.09,1.09,0,0,1,1.23-1.23H57.1v-1.5A1.14,1.14,0,0,1,58.41,305a1.13,1.13,0,0,1,1.28,1.27v1.5h5.55A1.09,1.09,0,0,1,66.47,309a1.1,1.1,0,0,1-1.23,1.27H59.69v3h7a1.27,1.27,0,1,1,0,2.53Z" fill="#3a7a91"/><path d="M88.09,313.55H80v.68a34,34,0,0,1-.25,4.32,7,7,0,0,0,.78-2.48.88.88,0,1,1,1.75.21,10,10,0,0,1-.56,2.25,1.09,1.09,0,0,1-.69.59,1.31,1.31,0,0,1-1-.13l-.35-.21a15.21,15.21,0,0,1-1.31,4.64q-.6,1.13-1.56.45a1.16,1.16,0,0,1-.49-.61,1,1,0,0,1,0-.6,5,5,0,0,1,.31-.74H72.59a1.34,1.34,0,0,1-1-.38,1.36,1.36,0,0,1-.37-1v-2.19s0,0,0,0,0,0,0,0c-.16.22-.34.29-.53.21a1.17,1.17,0,0,1-.51-.54,2.15,2.15,0,0,1-.25-2,23.93,23.93,0,0,0,2-7.93H71a1.09,1.09,0,0,1,0-2.18h5.18a1.09,1.09,0,1,1,0,2.18h-2c-.21,1.47-.48,2.91-.8,4.3h1.86a1.31,1.31,0,0,1,1.38,1.38v8.12a19.06,19.06,0,0,0,1.27-7.71v-.66h0a.72.72,0,0,1-.61-.3,1.43,1.43,0,0,1,0-1.49.72.72,0,0,1,.61-.3h0v0a.64.64,0,0,1,.32-.58,1.41,1.41,0,0,1,1.45,0,.66.66,0,0,1,.32.58v0h8.08a1,1,0,1,1,0,2.09Zm-14.85,1v4.69c0,.34.17.52.49.52h.84v-4.72a.43.43,0,0,0-.49-.49Zm13.84-4.37H79.46a1.31,1.31,0,0,1-1.38-1.38v-2.19a.93.93,0,0,1,1-1.05.92.92,0,0,1,1,1.05v1.05a.44.44,0,0,0,.5.49h1.43v-2.09a1.09,1.09,0,1,1,2.17,0v2.09h1.54c.34,0,.52-.17.52-.49v-1a1.07,1.07,0,1,1,2.13,0v2.15a1.4,1.4,0,0,1-.37,1A1.34,1.34,0,0,1,87.08,310.21ZM80.4,322.14a4.85,4.85,0,0,0,2.08-2.58,16.47,16.47,0,0,0,.65-4.47c0-.81.36-1.21,1-1.21a.89.89,0,0,1,1,1c0,.05,0,.12,0,.23a2.3,2.3,0,0,0,0,.23,15.34,15.34,0,0,0,.41,2.87,19.91,19.91,0,0,0,1-2.4.93.93,0,0,1,1.35-.68c.72.23.87.73.48,1.48,0,.08-.33.61-.87,1.6a1.17,1.17,0,0,1-.71.56,1.5,1.5,0,0,1-1-.09l-.12,0a6.11,6.11,0,0,0,2.28,3.22c1,.57,1.29,1.2.8,1.88s-1,.59-1.73.17a7.07,7.07,0,0,1-2.64-3.47,6.72,6.72,0,0,1-3,3.57q-1.14.56-1.68-.18C79.15,323.18,79.4,322.61,80.4,322.14Z" fill="#3a7a91"/><path d="M98.69,311.05l-3.06.19c-1.56.11-2.74.18-3.56.22a1,1,0,0,1-1.17-1.07,1.06,1.06,0,0,1,.31-1,2,2,0,0,1,1.21-.28A28.47,28.47,0,0,0,93.56,306a1.21,1.21,0,0,1,1.56-.9c.93.18,1.21.73.82,1.66-.12.29-.29.68-.52,1.17s-.38.84-.46,1l2.75-.12c0-.07-.11-.18-.19-.33l-.18-.33c-.41-.73-.22-1.23.57-1.52a1.06,1.06,0,0,1,1.42.45,21.76,21.76,0,0,1,1.68,3.16c.2.62-.06,1.07-.8,1.37s-1.28.12-1.5-.59c0,0,0,0,0,0Zm-5.31,1.45h5.11a1.3,1.3,0,0,1,1,.38,1.37,1.37,0,0,1,.37,1V322c0,1.08-.29,1.77-.88,2.07a4.2,4.2,0,0,1-1.72.39,1.36,1.36,0,0,1-1.5-.86c-.3-.89.09-1.33,1.19-1.33h.16a.36.36,0,0,0,.25-.06.38.38,0,0,0,.06-.25v-1.39H94.3v2.83a1,1,0,0,1-1.12,1.12c-.78,0-1.17-.37-1.17-1.12v-9.56a1.3,1.3,0,0,1,1.37-1.38Zm.92,3.16h3.1v-.61a.41.41,0,0,0-.47-.47H94.8a.44.44,0,0,0-.5.49Zm3.1,1.85H94.3v1.23h3.1Zm4.1-6.15v-5.11a1.22,1.22,0,0,1,2.44,0V308a23.69,23.69,0,0,0,2.93-1.31,1.16,1.16,0,0,1,1.5.35c.62.7.51,1.22-.31,1.58-1.2.49-2.57,1-4.12,1.43v1.24c0,.36,0,.6.16.69a1.2,1.2,0,0,0,.76.15h2.28a.62.62,0,0,0,.45-.13,2.5,2.5,0,0,1,.6-1.32.94.94,0,0,1,1.12-.15,1,1,0,0,1,.6.78,3.38,3.38,0,0,1,0,1.23,2.35,2.35,0,0,1-.85,1.42,3,3,0,0,1-1.69.4h-2.87a3.37,3.37,0,0,1-2.41-.63A3.52,3.52,0,0,1,101.5,311.36Zm0,10.05V316a1.07,1.07,0,0,1,1.23-1.19,1.05,1.05,0,0,1,1.19,1.19v1.64c1.46-.63,2.48-1.11,3.06-1.43a1.12,1.12,0,0,1,1.58.26c.64.7.54,1.25-.29,1.64a32.41,32.41,0,0,1-4.35,1.62v1.67c0,.36.06.6.18.69a1.34,1.34,0,0,0,.79.15h2.37a.67.67,0,0,0,.6-.27,3.06,3.06,0,0,1,.55-1.45.85.85,0,0,1,1.09-.23,1,1,0,0,1,.59.78,3.16,3.16,0,0,1,0,1.23,2.3,2.3,0,0,1-2.65,2.13h-2.95a3.36,3.36,0,0,1-2.42-.64A3.47,3.47,0,0,1,101.5,321.41Z" fill="#3a7a91"/><path d="M115,311.62l.71.45a1,1,0,0,1,.19,1.54c-.55.73-1.14.83-1.79.31-.38-.25-.78-.49-1.19-.74a1,1,0,0,1-.41-1.68,1,1,0,0,1,1.4-.41C114.41,311.31,114.77,311.49,115,311.62ZM112.51,322c.77-1.66,1.41-3.13,1.91-4.43.32-.9.87-1.08,1.66-.53a1.14,1.14,0,0,1,.49,1.51c-.51,1.48-1.11,3-1.78,4.56a1.05,1.05,0,0,1-1.74.53A1.12,1.12,0,0,1,112.51,322Zm2.61-13.62c-.1,0-.29-.18-.58-.37s-.51-.33-.67-.43a1,1,0,0,1-.35-1.66,1.07,1.07,0,0,1,1.48-.39,15.3,15.3,0,0,1,1.76,1,1,1,0,0,1,.16,1.56A1.11,1.11,0,0,1,115.12,308.34Zm4.26-2.27h10.48a1,1,0,0,1,1.11,1.1,1,1,0,0,1-1.11,1.13h-2.7c-.18.55-.35,1.13-.52,1.74H129a1.34,1.34,0,0,1,1,.38,1.42,1.42,0,0,1,.37,1v4.84a1.27,1.27,0,0,1-1.36,1.35h-2.29v4.6a3.79,3.79,0,0,1-.18,1.33,1.18,1.18,0,0,1-.68.67,4.89,4.89,0,0,1-1.81.35c-.79,0-1.27-.29-1.43-.88a.86.86,0,0,1,.14-.95,1.5,1.5,0,0,1,1.06-.28h.25c.22,0,.33-.1.33-.31v-4.53h-2a1.27,1.27,0,0,1-1.35-1.35v-4.84a1.37,1.37,0,0,1,.37-1,1.3,1.3,0,0,1,1-.38h1.7c.15-1.09.24-1.67.25-1.74H120.9c-.33,0-.49.17-.49.51v3.06q0,7.54-2.17,11.61a1.12,1.12,0,0,1-1.71.45,1.18,1.18,0,0,1-.32-1.87q1.8-3.46,1.8-10.19v-4.45a1.34,1.34,0,0,1,.38-1A1.37,1.37,0,0,1,119.38,306.07Zm3.88,14a16.11,16.11,0,0,1-1.44,2.65,1.14,1.14,0,0,1-.68.5,1.2,1.2,0,0,1-.81-.26,1,1,0,0,1-.23-1.7,12.66,12.66,0,0,0,1-1.78,1.06,1.06,0,0,1,1.39-.76C123.27,318.89,123.52,319.34,123.26,320.05Zm4.35-8.2h-3.8c-.34,0-.51.16-.51.49V313h4.82v-.66C128.12,312,128,311.85,127.61,311.85Zm.51,2.83H123.3v.65a.45.45,0,0,0,.51.5h3.8a.45.45,0,0,0,.51-.5Zm.7,7.4a19.23,19.23,0,0,0-.88-1.95c-.41-.72-.22-1.24.57-1.55a1,1,0,0,1,1.46.47,14.77,14.77,0,0,1,1.17,2.31,1.11,1.11,0,0,1,0,.86,1.6,1.6,0,0,1-.7.54C129.64,323.11,129.09,322.89,128.82,322.08Z" fill="#3a7a91"/><path d="M150.72,323.13H134.38a1.25,1.25,0,1,1,0-2.5H141V309.76h-5.5a1.31,1.31,0,0,1,0-2.61h14a1.31,1.31,0,1,1,0,2.61h-5.68v10.87h6.87a1.25,1.25,0,1,1,0,2.5Z" fill="#3a7a91"/><path d="M158.76,310.19v13.14a1.25,1.25,0,0,1-2.5,0v-9.27l0,0v0c-.85,1-1.55.94-2.09-.1a1.71,1.71,0,0,1-.23-1,1.83,1.83,0,0,1,.51-1,21.45,21.45,0,0,0,3.45-5.78,1.17,1.17,0,0,1,1.62-.82,1,1,0,0,1,.78,1.56A30.62,30.62,0,0,1,158.76,310.19Zm6.42-1.79h6.89a1.18,1.18,0,0,1,0,2.36h-4.74V313h4.27a1.13,1.13,0,1,1,0,2.25h-4.27v2.38h4.51a1,1,0,0,1,1.15,1.15,1,1,0,0,1-1.15,1.17h-4.51v3.4a1.1,1.1,0,0,1-1.25,1.25c-.86,0-1.29-.41-1.29-1.25V310.76H164a26.14,26.14,0,0,1-1.95,3.08,1.21,1.21,0,0,1-.83.57,1.28,1.28,0,0,1-.91-.45,1.59,1.59,0,0,1-.55-.88,1.33,1.33,0,0,1,.43-.92,22.21,22.21,0,0,0,3.19-5.79,1.18,1.18,0,0,1,1.56-.9,1,1,0,0,1,.8,1.54C165.75,307.09,165.55,307.56,165.18,308.4Z" fill="#3a7a91"/><path d="M177,305.78h15a1.27,1.27,0,0,1,1.36,1.35v15.34a1.27,1.27,0,0,1-1.36,1.36H177a1.27,1.27,0,0,1-1.35-1.36V307.13a1.27,1.27,0,0,1,1.35-1.35ZM190.44,308h-12c-.33,0-.5.17-.5.52V321.1a.45.45,0,0,0,.5.51h12a.45.45,0,0,0,.5-.51V308.53C190.94,308.18,190.77,308,190.44,308ZM181,316.85a3.6,3.6,0,0,1-1.27.78.83.83,0,0,1-.88-.39c-.43-.53-.29-1,.41-1.41a7.17,7.17,0,0,0,1.51-1.34h-1.33a.73.73,0,0,1,0-1.45h2.34a8.93,8.93,0,0,0,.49-1H181c-.22,0-.33-.11-.33-.35v-.06c0-.19-.07-.2-.2,0a.33.33,0,0,0-.06.08.83.83,0,0,1-1.15.13c-.55-.39-.56-.82,0-1.32a8.15,8.15,0,0,0,1-1.33.86.86,0,0,1,1.09-.43c.61.16.77.53.47,1.09-.06.11-.15.26-.28.46l-.23.36h1.45c.1-.37.19-.77.29-1.19a.89.89,0,0,1,1.09-.84,1.06,1.06,0,0,1,.56.19.61.61,0,0,1,.2.5,2.52,2.52,0,0,1,0,.54q0,.18-.15.63a1.46,1.46,0,0,1,0,.17h3.06l-.6-.68c-.44-.45-.37-.83.21-1.15a.78.78,0,0,1,1,.08,19.93,19.93,0,0,1,1.68,1.87.78.78,0,0,1,.18.61,1.12,1.12,0,0,1-.46.48.8.8,0,0,1-1.21-.23c0-.07-.15-.2-.31-.39v.47c0,.24-.11.35-.33.35h-1.09c.13.29.3.63.52,1h2.25a.73.73,0,0,1,0,1.45h-1.23a6.66,6.66,0,0,0,1.25,1.07,1.33,1.33,0,0,1,.68.64c.07.22,0,.49-.29.82a.9.9,0,0,1-1.29.2,6.1,6.1,0,0,1-1.42-1.25,4.64,4.64,0,0,1-.45,2.38,1.47,1.47,0,0,1-1.06.43c-.37,0-.66.06-.86.06-.48,0-.78-.21-.89-.55s-.05-.51.09-.62a1,1,0,0,1,.71-.12H185c.23,0,.37-.05.43-.14a2.28,2.28,0,0,0,.14-.64h-2.66v2.11c0,.28.06.45.19.53a2.11,2.11,0,0,0,.85.11h2.95a1.05,1.05,0,0,0,.46-.08c.27-.88.73-1.21,1.37-1q.67.23.45,1.44a1.47,1.47,0,0,1-.7.9,3.07,3.07,0,0,1-1.37.25h-3.38a3.9,3.9,0,0,1-2.17-.43,2.06,2.06,0,0,1-.56-1.69Zm1.41-1.43h4.41a9.5,9.5,0,0,1-.63-.93H183A10.34,10.34,0,0,1,182.36,315.42Zm1.62-2.89a3.49,3.49,0,0,1-.2.51h1.64a8.85,8.85,0,0,1-.37-1h-.84A3.31,3.31,0,0,1,184,312.53Z" fill="#3a7a91"/></svg>