<svg xmlns="http://www.w3.org/2000/svg" width="32.488" height="61" viewBox="0 0 32.488 61">
  <path id="domestic_ico" d="M444.991,157a16.73,16.73,0,0,0-1.471-3.823c-1.579-1.772-2.746-1.117-4.529-2.9-1.365-1.363-1.992-2.551-1.567-3.5-1.606-2.811-.718-4.09-1.344-5.121-.7-1.152-2.254-1.159-2.2-1.827.031-.425.593-.489.882-1.2.25-.612-.036-.89,0-1.638.067-1.377.905-1.654,1.071-3.008a5.145,5.145,0,0,0-.189-1.906,8.577,8.577,0,0,1,.315-3.843,14.572,14.572,0,0,1,2.2-4.132c2.091-3.135,1.828-2.953,4.466-6.93,1.944-2.93,1.793-2.489,2.079-3.087a6.258,6.258,0,0,1,2.016-2.961,6.271,6.271,0,0,0,.693-.441,8.371,8.371,0,0,0,1.44-1.9.1.1,0,0,0-.079-.158c-.248-.011-.62.132-.479-.1.945-1.543,2.1-3.723,2.331-3.89a15.433,15.433,0,0,1,3.339-1.559c.9-.318,2.048.045,2.52-.583.233-.309.106-.463.315-.945a2.61,2.61,0,0,1,2.268-1.638,1.714,1.714,0,0,1,1.512,1.008.182.182,0,0,0,.027.094c.074.116.166.412.446.489.166.045.334-.278.378-.208.062.1.1.212-.021.535-.274.74,1.411.223,1.9.728.246.257.22.425.646.409.471-.017,1.069-.24,1.276-.063.112.1-.293.221-.291.689a1.6,1.6,0,0,0,.366,1.1c.4.372.991.135,1.063.307.1.231-1.191.591-2.02,1.547a3.868,3.868,0,0,0-.866,2,6.089,6.089,0,0,0,1.1,3.843c.078.162-.539-.16-.6-.063-.049.08.234.239.346.6a.79.79,0,0,1-.095.756c-.19.178-.478.057-.536.189-.069.156.32.359.284.6-.032.213-.362.217-.63.409-.559.4-.226,1.171-.724,2.614a2.813,2.813,0,0,1-.5,1.008c-.434.514-.741.409-.976.819-.338.587.1,1.129-.284,1.512-.219.217-.443.124-.6.378a1,1,0,0,0,0,.819c.161.41.433.439.441.693.009.29-.341.4-.6.756a2.034,2.034,0,0,0-.252,1.386c.089,1.58-1.041,5.855-1.568,7.5-.77,2.4-1.738,4.066-1.7,5.229a2.355,2.355,0,0,1-.221,1.228c-.193.375-.393.463-.63.882a3.726,3.726,0,0,0-.347,1.1c-.42,1.491-2.149,1.622-2.236,2.9-.025.369.119.361.063.724s-.5,1.02-1.782,2.066c-.78.637-.767.532-1.008.787a4.337,4.337,0,0,0-.945,2.236c-.539,2.231-1.178,1.86-1.512,3.685a7.569,7.569,0,0,0-.032,3.748,1.766,1.766,0,0,1,.126,1.2c-.192.539-.687.623-.85,1.291a1.319,1.319,0,0,0,.083.661c.077.234.1.294.169.5.02.063.028.315-.071.307s-.285.008-.37-.307c-.031-.113-.36-.712-.788-.724-.266-.008-.312.222-.724.283-.125.019-.331.163-.5-.031a.707.707,0,0,1-.055-.6c.061-.239,0-.156-.012-.3-.024-.232-.314-.475-.441-.681C444.273,158.2,445.119,157.461,444.991,157Z" transform="translate(-433.874 -99.922)" fill="#109a8a"/>
</svg>
