<svg xmlns="http://www.w3.org/2000/svg" width="61" height="61" viewBox="0 0 61 61">
  <path id="earth_ico" d="M62.5,32A30.5,30.5,0,1,0,93,62.5,30.5,30.5,0,0,0,62.5,32ZM83.024,83.025a29.026,29.026,0,0,1-41.05-41.05c.129-.129.264-.249.4-.375a3.6,3.6,0,0,1-.4.9c-.431.643-1.152.9-1.6,1.5a6.116,6.116,0,0,0-.9,2c-.166.668-.065,1.48-.3,2.146-.3.846-.841,1.349-.74,2.33,1.179.35.668-1.745,1.661-1.853a7.941,7.941,0,0,1,.019,3.089c-.124,1.173-.352,1.463.348,2.47.554.8.738,1.33,1.811,1.457a2.016,2.016,0,0,1,1.8,1.508c.758.162,1.218.287,1.316,1.128a9.4,9.4,0,0,0,1.295.867c.5.132,1.344-.585,1.818-.033.793.922-1,3.332-1.325,4.164-.47,1.217-.54,3.005.614,3.88.592.449,1.222.664,1.415,1.478a9.418,9.418,0,0,0,.373,2.091c.52,1.11,1.711,1.478,2.559,2.327,1.112,1.114,1.036,2.56,1.036,4.136,0,1.651.627,2.906.845,4.418.226,1.559.684,3,1.011,4.511.247,1.134,1.225,2.848,2.641,2.618.1-.537-.459-.958-.529-1.49-.063-.483.073-.986-.024-1.5a2.66,2.66,0,0,1,.5-2.517c.241-.314.571-.575.819-.89.48-.611.112-.43.091-1.1-.026-.836.229-.426.733-.686a4.014,4.014,0,0,0,.752-.752,11.491,11.491,0,0,0,1.459-1.549c.382-.611.335-1.462.727-2.093.45-.724,1.088-.725,1.717-1.2.815-.611.48-1.255.628-2.094a9.54,9.54,0,0,1,1.768-4.065c1.113-1.406,1.591-2.6.237-3.95-.669-.667-1.017-.489-1.905-.721a16.378,16.378,0,0,0-1.974-.756c-.413-.051-.657.1-1.034,0-.351-.092-.308-.307-.678-.3-.552.007-1.325,1.158-1.791.422-.26-.41.529-1.543.493-2.093a2.8,2.8,0,0,0-.956-2.143c-.25-.14-.805-.16-1.112-.278a5.966,5.966,0,0,1-1.036-.569c-.42-.27-1.234-.741-1.421-1.223-.517-.021-.868-.306-1.394-.3a8.355,8.355,0,0,1-1.3.167c-.447-.049-.928-.4-1.41-.336a4.342,4.342,0,0,0-1.076.619,7.565,7.565,0,0,1-2.329.866c-1.258.236-1.484-.245-1.41-1.41l-.188-.375c.468-1.3-.374-1.39-1.3-1.706-.129-.925,1.01-1.586.533-2.6-.962-.049-2.012,2.66-2.826,1.486-.537-.774.279-2.938.752-3.594a6.753,6.753,0,0,1,3.026-1.956,1.318,1.318,0,0,1,1.436.757c.266.607-.081,1.18,0,1.868.812-.188.6-1.221.567-1.774-.06-.925.425-.855.9-1.522.43-.607.5-1.3,1.032-1.888.418-.458.908-.939,1.365-1.36.523-.481,1.112-.437,1.648-.792.815-.539-.263-1.539.937-1.464.427.027.216.293.781.165a8.549,8.549,0,0,0,.934-.379c1.146-.466.333-.59-.192-1.2-.668-.771.278-.635.967-.752.506-.085.4-.25.845.047.392.262.161.611.731.592,1.085-.037.333-1.124.091-1.485-.413-.617-.519-1.048-1.393-1.072a1.392,1.392,0,0,0-.028-.912c-.735.1-.863-.438-1.42-.648-.937-.355-.787.413-1.171.936-.4.541-1.15.447-1.44,1.105-.3.685-.014,1.21-1.116,1.022a3.59,3.59,0,0,0,.07-1.382,4.846,4.846,0,0,1-.909-.218c0-1.1,1.221-1.194,2.051-1.3.929-.117,1.233-1.063,2.063-1.221.774-.149,1.329,1.1,2.283.378.545-.415.293-.658.094-1.058-.054-.106-.328-.347-.4-.447a.227.227,0,0,1-.018-.033c.74-.143,1.489-.253,2.243-.339a7.385,7.385,0,0,0,.617,1.2c.123.209.355.35.453.58.112.262-.152.587.179.764.511.272,2-1.5,2.355-1.793.453-.366.736-.567.628-.921a29.055,29.055,0,0,1,6.978,1.061c.179.224.363.455.547.711.4.55.646,1.045,1.36,1.29.413.142,1.734.116,1.185,1.06-.507.87-1.067-.271-1.323-.545-.354-.38-1.4-.8-1.368.07.049,1.3,2.973,1.089,2.345,2.515.35.206,1.042.55.928,1.059-.14.631-.961.229-.945,1.035a1.864,1.864,0,0,0,2.426,1.67c1.233-.438.3-2.151,1.717-2.326a1.651,1.651,0,0,1,1.384.489c.407.322.668,1.053,1.229,1,.058-.348-.2-.6-.249-.916a3.6,3.6,0,0,1,1.555,1.028c.377.571.337,1.394,1.257.657-.138-.114-.207-.367-.282-.456a2.57,2.57,0,0,1,2.506,1.51c1.129,2.282-1.644.471-1.782,1.66-.683-.217-.986-.767-1.579-1.1-.281-.156-.8-.073-1.017-.23-.3-.218-.224-.613-.485-.827-1.025-.841-3.364.517-4.307,1.06-.256.147-.528.163-.7.439-.3.474.121.6.027,1.038-.134.632-.958.922-1.207,1.429-.6,1.215.617,2.955.453,4.3-.091.75-.9,1.561-.589,2.188.134.27.6.5.777.818a8.94,8.94,0,0,0,.445.967,37.777,37.777,0,0,0,2.495,2.959,1.774,1.774,0,0,0,1.781.516,9.837,9.837,0,0,0,1.974-.565c.71-.339.8-.818,1.549-.495.593.258,1.116,1.014,1.808.388.571.558-.062,1.531-.19,2.152a2.7,2.7,0,0,0,.642,2.167,2.139,2.139,0,0,1,.605,2.042,23.7,23.7,0,0,1-.491,2.46c-.174.8-.685,1.411-.658,2.261a12.8,12.8,0,0,1,.262,2.256,18.165,18.165,0,0,1-.329,2.35c-.2.743-.723,1.4-.945,2.162a2.527,2.527,0,0,0,.356,2.256c.527.619,1.05.265,1.668-.2,1.219-.926,1.774-2.5,2.584-3.744A24.322,24.322,0,0,0,90,71.356c.117-.281.258-.556.4-.833A28.864,28.864,0,0,1,83.024,83.025Z" transform="translate(-32 -32)" fill="#109a8a"/>
</svg>
