<svg xmlns="http://www.w3.org/2000/svg" width="67.243" height="61" viewBox="0 0 67.243 61">
  <g id="folk_ico" transform="translate(-696.438 -69.677)">
    <path id="路径_17038" data-name="路径 17038" d="M708.343,81.922c2.529,0,4.312-2.555,4.545-5.673a7.912,7.912,0,0,0-.459-4.04c.678-1.642-1.442-2.011-2.691-2.257-5.237-1.034-4.822,1.181-4.822,1.181s-1.156-.082-1.083,1.335c.059,1.111.349,3.9.349,3.9C704.62,79.467,705.819,81.922,708.343,81.922Z" fill="#109a8a"/>
    <path id="路径_17039" data-name="路径 17039" d="M745.885,76.51c.238,3.117,2.022,5.675,4.546,5.675s3.728-2.455,4.162-5.548c0,0,.291-2.8.351-3.9.077-1.42-1.081-1.339-1.081-1.339s.414-2.209-4.823-1.178c-1.248.247-3.369.616-2.692,2.256A7.951,7.951,0,0,0,745.885,76.51Z" transform="translate(-2.338)" fill="#109a8a"/>
    <path id="路径_17040" data-name="路径 17040" d="M760.647,117.118a.35.35,0,0,0,.348-.348v-.662a.348.348,0,0,0-.348-.343h-1.3a.344.344,0,0,0-.344.343v.662a.347.347,0,0,0,.344.348Z" transform="translate(-2.888 -1.939)" fill="#109a8a"/>
    <path id="路径_17041" data-name="路径 17041" d="M697.162,106.394a.513.513,0,0,0,.45.559h1.983a.513.513,0,0,0,.451-.559v-.937h.747l-.057-16.693.47.008v39.757h.687v1.164a.741.741,0,0,0,.744.736h3.277a.739.739,0,0,0,.743-.736v-1.164h.688V106.216h1.113v22.311h.64v1.164a.742.742,0,0,0,.745.736h3.275a.742.742,0,0,0,.748-.736v-1.164h.637V92.564c.483.469,1.107,1.071,1.711,1.594,2.42,2.118,9.565,5.9,9.571,5.91l.251-.318.923.638a.6.6,0,0,0,.833-.054l.243-.336.237.336a.607.607,0,0,0,.837.054l.793-.549.381.477c.007-.008,7.155-3.788,9.572-5.908.6-.526,1.227-1.126,1.71-1.6v35.964h.638v1.163a.74.74,0,0,0,.744.737h3.276a.741.741,0,0,0,.747-.737v-1.163h.641V106.468h1.113v22.308h.684v1.163a.744.744,0,0,0,.747.737h3.276a.741.741,0,0,0,.745-.737v-1.163h.687v-9.994h-2.377a1.912,1.912,0,0,1-1.848-1.965v-7.279c0-.662.743-1.179,1.693-1.179h2.531V89.017l.47,0-.057,16.689h.744v.937c0,.043.03.067.036.105a1.332,1.332,0,0,0-.85,1.24c0,.259-.011.533.011.777-.013.01-.021.028-.033.036h-2.852c-.676,0-1.247.34-1.247.739v4.022c0,.4.571.738,1.247.738h3.857a.534.534,0,0,1,.527-.46h1.333a.533.533,0,0,1,.527.46h3.86c.674,0,1.248-.339,1.248-.738v-4.022c0-.4-.574-.739-1.248-.739h-2.584l-.006-.006c.022-.254.011-.537.011-.808a1.318,1.318,0,0,0-.978-1.266c0-.029.027-.047.027-.079V105.7h.723V85.975l-4.766-1.51-3.171-1.137-2.5,8.442a.286.286,0,0,0-.043.039l.543-1.841-.936-4.737.87-1.9H746.73l.873,1.9h.031l-.937,4.736-1.968-6.64-3.168,1.137-4.793,6.58-8.539,5.324L719.3,90.8l-4.794-6.58-3.168-1.138-1.967,6.641-.937-4.735h.03l.873-1.906h-2.894l.874,1.906-.937,4.736.544,1.841c-.017-.012-.027-.025-.043-.038l-2.5-8.445-3.171,1.138-4.767,1.511v19.73h.724Zm59.637.863h1.454a.966.966,0,0,1,.961.968v.512c-.027.011-.037.045-.063.063H755.9c-.02-.014-.031-.042-.055-.056v-.519A.962.962,0,0,1,756.8,107.256Z" transform="translate(0)" fill="#109a8a"/>
    <path id="路径_17042" data-name="路径 17042" d="M766.569,118.675v-2.818a1.841,1.841,0,0,1-1.465.607h-3.855v.332a.556.556,0,0,1-.558.553H759.3a.556.556,0,0,1-.557-.553v-.332h-3.855a1.827,1.827,0,0,1-1.461-.607v2.818a1.538,1.538,0,0,0,1.461,1.607H765.1A1.539,1.539,0,0,0,766.569,118.675Z" transform="translate(-2.888 -2.044)" fill="#109a8a"/>
  </g>
</svg>
