<svg xmlns="http://www.w3.org/2000/svg" viewBox="0 0 916.74 125.73"><defs><style>.cls-1{fill:#161412;}.cls-2{fill:#686660;}.cls-3{fill:#4aa893;}.cls-4{fill:#f2f1f0;}.cls-5{fill:#fff;}.cls-6{fill:#e16810;}.cls-7{fill:#901d32;}.cls-8{fill:#eeb619;}.cls-9{fill:#1b9cc9;}.cls-10{fill:#da3b1d;}.cls-11{fill:#cfa214;}.cls-12{fill:#d51721;}.cls-13{fill:none;}.cls-14{fill:#8f2a82;}.cls-15{fill:#14325e;}.cls-16{fill:#014981;}.cls-17{fill:#417636;}.cls-18{fill:#ca8e0b;}.cls-19{fill:#ea9d17;}.cls-20{fill:#cc1372;}.cls-21{fill:#188f3b;}.cls-22{fill:#bb1a2a;}.cls-23{fill:#2f9f3a;}.cls-24{fill:#1170ae;}.cls-25{fill:#109a8a;}.cls-26{fill:#6d6e68;}</style></defs><g id="圖層_2" data-name="圖層 2"><g id="圖層_1-2" data-name="圖層 1"><path class="cls-1" d="M695.73,60.83c1.45,4.09.74,6.83-4.2,7.5-3.11.42-6.11,1.64-9.22,2-1.58.17-3.72,2.7-4.73.16-.85-2.13-3.83-4.28-.59-7.34,2.63-2.48,1.08-6.34,1.22-9.58,0-1.42-1.44-1.23-2.31-1.06-2.12.4-2.71-1-3.37-3.26-1.52,7.33-2.63,14-5.88,20.09-.69,1.29-1.32,3.2-3,1.16-1.41-1.7-6.27-.9-4.32-4.87,4.74-9.69,5.59-20,5.85-30.51.17-6.65.11-13.31,0-20,0-2.31.15-3.61,3.09-3.58,14.81.14,29.62.1,44.43,0,2.19,0,2.95.66,2.82,2.83a60.71,60.71,0,0,0,0,8c.36,4.66.48,8.86-6.32,7.32-1.64-.37-2.36.47-2.38,2.21,0,1.94,1.06,2.13,2.53,2.08s2.68.11,4,0c3.24-.33,2.7,1.87,2.85,3.86.16,2.31-.55,3.08-3,3.3-2.15.2-6.35-2-6.13,2.14s4.51,2,6.77,2c4-.1,5.91.7,5.25,5.09-.61,4-4,.94-5.25,2.39,5.2,6.36-3.94,4.73-4.46,8.2,2.7,2,6.3,2.46,9.62,3.6-3.62,7.64-4.08,7.8-11.47,4.15a30.63,30.63,0,0,1-9.16-6.77c-.72-.78-1.17-2.6-2.78-1,.47-3.39-2.82-8.2-5.68-8.48-2.66-.25-4.15.08-4,3.53.22,6.62,0,6.64,6.49,5.19C693.49,60.88,694.56,60.38,695.73,60.83Zm-5.54-42.27c-4.66,0-9.32,0-14,0-1.36,0-3-.59-3.09,2s1.49,2.11,3,2.11c9.48,0,19,0,28.44,0,1.59,0,2.93.1,2.84-2.23-.09-2.11-1.4-1.85-2.7-1.85ZM672.47,45.44c2.2,0,4.18.1,6.14,0,1.55-.11,3.86,1,3.83-2.2s-2.32-2.38-3.87-2.21c-3.56.39-4.55-1-4.31-4.43.26-3.8,3-2.47,4.71-2.42,2.88.08,4.68-1.29,3.13-3.59s-4.85-.72-7.37-.86c-2.1-.11-1.5,1.73-1.56,2.91C673,36.72,673.46,40.87,672.47,45.44Zm22.09-11.28c1.55-.82,4.65,1.59,4.72-2.36.05-3.61-2.8-2.18-4.27-2-1.69.17-4.68-2-5,1.8S692.83,33.53,694.56,34.16Zm.12,11.53c1-1.57,4.37,1.76,4.58-2.28S696.41,41,694.7,41,690,39.46,690,43.29C690,46.89,692.81,44.85,694.68,45.69Zm5.67,7c3,4.13,3,4.13,7.79,0Z"/><path class="cls-1" d="M741.43,29.05c-5.15,0-9-.13-12.93,0-2.63.12-3.39-.8-3.35-3.43s.52-3.92,3.55-3.81c6.16.21,12.33.08,18.49,0,1.38,0,3.1.53,3.09-2s-1.67-1.8-3.06-1.75c-4.16.14-8.33.19-12.49.39-2.1.1-3.05-.42-3.75-2.77-.94-3.17-.49-3.91,2.84-3.93a214.26,214.26,0,0,0,36.29-2.79c3.92-.69,4.23,3.69,7.06,4.76-4.87,2.33-10,2.26-14.88,3.12-1.62.29-4.32-.59-4.15,2.81.18,3.65,2.88,2,4.43,2.07,5.83.21,11.67.23,17.49,0,2.94-.1,3.16,1.3,3.15,3.63s-.14,3.81-3.11,3.62a35.42,35.42,0,0,0-11.18.94c4.31,1.64,8.67,3.16,12.89,5,1.27.55,4.49.32,2.94,3.16-1,1.89-1.54,5.34-5.64,3.26-5-2.53-10.36-4.37-15.58-6.45-3.85-1.54-3.86-1.5-1.6-5.23-3.58-.72-4-.68-3.67,2.15a14,14,0,0,1-4.5,12.64c4.21,0,8.42,0,12.62,0a2.39,2.39,0,0,0,2.28-1.48c2.13-3.45,6.46-3.5,8.42.21,1,1.8,2.14,1.27,3.16,1.18,2.85-.24,4.12.36,4,3.7,0,3.17-1.44,3.92-3.87,3.27-7.36-2-8.77,4.64-12.92,8.47L783,64.78c-5.3,6.42-5.35,6.56-12.73,3.84-6.35-2.34-12.29-3.41-19-.53-5.91,2.52-12.69,2.39-19.12,3.18-5.73.69-3.25-5-6.5-7.11l19.83-1.8c-3.88-2.88-8.45-1.88-12.07-4l5.4-6.81c-4.31,0-7.76-.17-11.18,0-3.09.2-3-1.59-3-3.76s.36-3.48,3-3.28a67.9,67.9,0,0,0,7,0c4.73-.12,9,.78,12.79-4.71a14.42,14.42,0,0,0,3-8.84c-4.92,3.94-9.41,7.22-14.52,9.55-6.89,3.15-6.86,3.21-11.71-3.45C729.63,35,735.41,33.34,741.43,29.05Zm22.8,22.72c-15.11-.85-15.11-.85-17.69,2.66C757.69,58.53,758.13,58.48,764.23,51.77Zm3.45-22.91-.38.32c.13.11.24.31.37.31s.24-.19.37-.29Z"/><path class="cls-1" d="M335.86,41.24c0-8.49.12-17-.06-25.47-.06-3,.43-4.32,4-4.27,16,.22,32,.17,48,0,2.9,0,4.05.44,4,3.74-.19,17.48-.07,35-.13,52.44,0,1.32.93,3.52-1.18,3.74s-5.18,1.41-6.47-.74-2.87-1.83-4.57-1.84c-9,0-18-.23-27,.1-3.35.12-6.95-1.67-10.15,2.39-2.15,2.72-6.42-.2-6.42-4.15Q335.86,54.23,335.86,41.24Zm32.81-21.73c2.3,6.42,2.3,6.42,6.84,5.25-1.35-1.68-5.75-2.35-1-6H363.79c-5.82,0-11.63.05-17.44.11-1.44,0-3.05-.3-3,2.12.07,10.66,0,21.32,0,32,1.79-3.21,4.77-2.36,7.1-2.72,4.08-.63,8.2-1,12.31-1.43,1.21-.12-.57,3.42,2,1.78,1.56-1,1.71-2.51,1.32-4.36A74.58,74.58,0,0,1,364.33,35c-.17-3.16-1.48-3.86-4.34-3.69-3.8.22-7.64-.06-11.45.09-2.46.1-3.08-.88-3.1-3.21s1-2.8,3-2.72c2.49.1,5-.28,7.47.09,4.91.74,8.18-.24,7.91-6.06A8.14,8.14,0,0,0,368.67,19.51Zm14.87,33.14c0-9.43-.25-18.89.23-28.3.26-5.12-1.52-6.41-6.13-5.26.23,1.82,2.14,1.87,3.09,2.91,1.4,1.54-2.41,2.76-.58,3.33,3.28,1,1.92,3.34,1.64,4.78-.44,2.24-2.77,1.19-4.27,1.22-7.6.16-7.61.11-6.35,7.68a10.43,10.43,0,0,0,.59,1.44c.72-2.07,1.39-3.72,1.89-5.42.92-3.16,3.17-1.43,4.86-1.28,2.6.23,1.49,1.85,1.05,3.26a43,43,0,0,1-4.68,10.39c-1.67,2.65-1,4.2,1.63,5.38,1.57-1.56.34-3.7,1.53-5.16,3.69,2.05,3.69,2.05,4.47,5-1.75,7.73-6.22,10-11.11,5.12-2.48-2.45-3.37-1.48-5.26.21-1.4,1.26-3.21,4.36-5.35.71-2.34-4-5.75-3.57-9.38-2.6-2.75.74-5.47,1.42-7.46-2.13-1,7.67-1,7.67,5.76,7.67h25.37C383.63,61.57,383.63,61.57,383.54,52.65Z"/><path class="cls-1" d="M247.36,62c-2.43,2-5,4.43-7.78,6.48-5,3.61-5,3.49-8.2-1.78-1-1.64-1.82-2.79.8-3.56a12.48,12.48,0,0,0,3-1.76c7.62-5,8-6,5-14.45-.72-2-1.4-4.06-2.15-6.24-1.29-.24-2.2,3.19-4.14.33S228.47,39.43,226,40s-.66,3.45-1.11,5.26c-.19.78.09,1.68-.05,2.48-.82,4.68.83,6,5.31,4.3,1.3-.48,4-2,4,1.41,0,2.21,1.95,5.31-2.58,6.18-8.14,1.56-16.18,3.66-24.27,5.49-1.32.3-3.52,1.43-3.64-.74s-2.73-5.33-.16-6.72c2.75-1.49,2.2-3.31,2.21-5.32,0-6.83.17-13.66-.05-20.48-.11-3.08,1.18-3.52,3.81-3.52s3.9.39,3.8,3.49c-.24,7-.11,14,0,21,0,.9-.78,2.69,1.27,2.44,1.22-.14,2.54-.41,2.52-2.38-.09-10.16-.05-20.32,0-30.48,0-1.73-1-1.78-2.25-1.78a37.39,37.39,0,0,0-6,.05c-4.55.74-5.3-1.52-4.9-5.33.19-1.78.43-2.72,2.51-2.69,8.33.09,16.66.14,25,0,3.8-.07,2.55,2.52,2.78,4.43.28,2.35-.18,3.77-3.1,3.63-2-.09-5.25-1.17-5.91.81a16.67,16.67,0,0,0-.11,9.34c.65,2.26,3.88.43,5.75,1.21,2.18.9,2.63-.7,3.2-2a63.08,63.08,0,0,0,5.33-18c.37-3,1.48-3.66,4.25-2.76,2.13.7,4.89-.2,3.9,4.14-1.67,7.29-1.29,7.38,6.44,7.38a27.66,27.66,0,0,1,5,.06c1.82.35,5-1.63,5.15,1.84.1,2.1,2.3,6.09-3,6.05-1.49,0-1.38,2.08-1.57,3.31a68.16,68.16,0,0,1-5.92,19.91,3.29,3.29,0,0,0,.66,4.32c2.41,2.55,4.81,5.15,8,6.7,2.42,1.18,2.19,1.88.55,3.78-4.24,4.9-4.11,5-9.17.8C251.47,65.81,249.53,64,247.36,62Zm.46-16.69a49.37,49.37,0,0,0,3.53-13.82c.08-.94,1.27-2.57-.55-2.83a21.69,21.69,0,0,0-6.87.09c-1.52.27-.78,2-.53,3C244.55,36.17,245.38,40.72,247.82,45.35Z"/><path class="cls-1" d="M618.21,65.56c-2.83,4.28-10.21,6.91-14.71,4.94-2.63-1.16-1.34-4.48-4-6.56,3.37,0,5.63,0,7.89,0,2,0,3.32-.56,4-2.84,1-3.37,1.06-5-3.47-4.84-9.1.34-9.11.06-7.83-8.93a23,23,0,0,0,.24-3c0-3.62,1.55-5.07,5.46-4.9,2.07.08,6.25,2.35,6.39-1.7.16-4.71-4.23-1.46-6.44-2.26s-4.25-.3-6.54.52c-3.93,1.4-3.42-3.57-6.51-4.78,2.41-1.06,4.18-1.78,5.89-2.61s3.17-1.67,4.77-2.52c-.64-2-2.54-2.23-3.76-3.25-.6-.52-1.88-1.23-1.06-1.69,3.62-2,1.53-5.07,1.6-7.65.05-2,.71-2.62,2.62-2.61,5,0,10-.24,15-.06s6.11,2.47,3.55,6.91a37.35,37.35,0,0,1-8.88,10.47c2.1,2.32,7.41-2.33,7.46,3.72,0,3.13,0,6.26,0,10a9.47,9.47,0,0,0,4.21-9.34c-.34-3.43,1-4.34,4.16-4,2.26.24,4.57.05,7.69.05-5.49-5.41-9.7-10.81-12.4-17.45,3.19-1.39,6.29-3.62,8.22,1.58.94,2.54,2.61,2.3,3.92.32,3.24-4.9,6.17-3.28,9.28.48-1.85,1.57-3.75,3.14-5.59,4.77-.72.64-2.49,1-.9,2.52,1.07,1,2.06,2.34,3.62.55.87-1,2.16-1.69,2.85-2.78,2.27-3.6,4.25-2,6.73-.14,1.91,1.44,1.45,2.1-.06,3.22-1.73,1.29-3.35,2.71-5.23,4.26,2.35,2.17,5.64,2.3,8.15,3.94-4,6.38-4,6.38-11.3,3.89,0,3.66-1.62,8.09,5,6.86,2.44-.45,2.58,1.15,2.82,3,.31,2.3-.71,2.78-2.75,3-9.3.86-11-.39-11.89-9.17-.13-1.39,0-2.7-2-2.57-1.63.1-3.43-.37-3.75,2.1-.53,4.07-2.41,7.46-6.58,11.07h17.7c7.27,0,8,1.23,4.39,7.51A9.75,9.75,0,0,1,644.49,58c-3.06,2.79-2,4.35,1.25,6,1.18.58,4.69.9,2.25,4-1.6,2-2.84,4.57-5.89,1.61-3.43-3.33-7.2-4.09-11.34-1a12.17,12.17,0,0,1-3.22,1.28c-6,2.08-6,2.08-8.47-4.27,3.37-1.11,7-1.54,10.56-3.77-2.42-1.4-4.54-2.59-6.61-3.86-.72-.44-2.46-.81-1.39-1.93,2.47-2.57-.86-5.56,1-8.24.64-.94-1.38-3-2-2.76-4,1.54-8.16.42-12.2.82-1.78.17-1.92,1.61-2.08,2.9-.22,1.89,1.25,1.58,2.33,1.6a64,64,0,0,0,7.46,0c3.33-.34,3.92,1,3.4,4C618.84,58,618.62,61.79,618.21,65.56Zm11-11.93c6.5,5.47,7.78,5,9.55,0Zm-24.63-36c2.42,1.62,5.24,6.77,7.35,0Z"/><path class="cls-1" d="M419.35,32.66c-1.45-1.8-3.39-.61-5-.63-2.68,0-4.14-.28-4.12-3.69s1.58-3.63,4.23-3.6c8.77.1,17.55,0,26.32,0,6.45,0,6.45,0,6.42,6.66-4.11.87-8.28.39-12.41.38a5.84,5.84,0,0,0-5,2.67c-1.11,1.62,1.19,2.32,1.79,3.53a43.16,43.16,0,0,0,3.07,4.64l12.68-9.43,6,4.8c-1.11.93-2,1.72-2.88,2.4-6.22,4.64-6.22,4.62-2.14,11.17a28.46,28.46,0,0,0,11.31,10.16,3.73,3.73,0,0,1-.31,1c-5.47,6.47-5.72,6.42-12,.26-4.06-4-6.25-9.12-8.78-14.13-2.33,1.35-1.08,3.16-1.05,4.61.07,3.67.26,7.32-1.18,10.8-2.29,5.55-8.95,9-14.34,7-3.36-1.22-1.05-5.17-3.53-7.07,3.44-1.6,7,.9,9.43-2a6,6,0,0,0,1.3-5.79,138.87,138.87,0,0,1-18.5,9.62c-7.08,2.89-7.07,2.91-10.88-4.32,8-2.29,15.8-5.09,22.92-9.45a49.73,49.73,0,0,0,4.14-2.77c.86-.66,2.21-1.47,1.15-2.77-.84-1-1.75.09-2.58.49-4.76,2.34-9.43,4.85-14.28,7-6.41,2.81-6.47,2.68-10.57-3.86,7.18-2.11,14.27-4.27,20.72-7.95,1.06-.61,3.58-.79,2.51-2.78s-2.56-.07-3.81.43c-2.77,1.1-5.47,2.37-8.27,3.38-6.55,2.37-6.57,2.33-10.54-4.23,6.1-2.24,12.72-2.93,18.16-6.67l.72-.45-.63-.18Z"/><path class="cls-1" d="M812.17,60.56l3.21,2.66a63,63,0,0,1-19,7.86c-3.43.87-4.3-3.51-7.32-5,4.57-2.4,9.54-2.49,13.59-5.37-7.2-1.78-7.2-1.78-7.2-9.65,0-5.82.12-11.64-.06-17.45-.09-2.74.61-3.81,3.56-3.78q20.46.21,40.91,0c2.95,0,3.65,1,3.58,3.72-.17,7.14-.29,14.3,0,21.43.19,4.14-.89,5.93-5.19,4.84a2.41,2.41,0,0,0-2.12.7l13.73,5.09c-5.33,6.36-5.33,6.31-12.61,3.5-4.71-1.81-9.49-3.45-14.23-5.16.31-2,2.5-1.77,3.45-4.24-5.1.72-9.76-.63-14.44,1l.15-.64-.58.08Zm7.42-9.05c-4.67,0-9.33,0-14,0-1,0-2.21-.1-2.21,1.31s1.14,1.46,2.16,1.46q13.74,0,27.48,0c1,0,2.09-.08,2.14-1.45s-1.15-1.34-2.09-1.34C828.58,51.5,824.08,51.51,819.59,51.51Zm-.06-8c-4.65,0-9.31,0-14,0-1,0-2.22,0-2.17,1.35s1.19,1.39,2.23,1.4h27.45c1,0,2.09-.08,2.09-1.48s-1.23-1.26-2.15-1.26C828.52,43.51,824,43.52,819.53,43.53Zm.44-7.94c-4.5,0-9-.05-13.49,0-1.19,0-3.08-.58-3.05,1.47,0,1.55,1.62,1.32,2.76,1.32h26.49c1.14,0,2.56.23,2.46-1.57s-1.68-1.21-2.67-1.22C828.3,35.54,824.14,35.59,820,35.59Z"/><path class="cls-1" d="M494.63,21.13c-4-1.46-8.09-2.87-12.1-4.4-1.18-.46-3.95.07-3-2.06s1.3-5.85,4.84-5.18a93.31,93.31,0,0,1,20.71,6.83c1.41.63,1.9,1.61.87,2.64-1.67,1.67-1,5.56-4.77,5.16-.72-.08-1.39-.79-2.46-.36-.88,5.67,2.09,10.35,4.31,15.89a69.13,69.13,0,0,0,10.52-10c3.91-4.42,5.21.95,7.37,2.06,3.34,1.71,0,2.89-1,3.78-4.09,3.64-8.36,7.08-12.68,10.68A36.74,36.74,0,0,0,522.09,59c1.8.87,3.11,1.19,1.11,3.62-4.32,5.26-4.11,5.4-9.74,1.61s-10.1-9-14.15-15.57c-1.25,4.41-.59,8.26-.67,12-.18,8.44-6.81,13.47-14.72,10.69-3.27-1.15-1.85-5.24-3.81-7.35.56-.41.81-.76,1.06-.75,8.91.13,8.91.14,8.91-8.76,0-7-.18-14,.08-21,.11-2.83-.89-3.39-3.35-3.26-3,.15-6-.16-9,.09-3.17.26-4.33-.6-4.35-4.07s1.18-4.17,4.3-4.06c5.32.2,10.65,0,16,0h2.16Z"/><path class="cls-1" d="M916.74,24.26c-3.65,1.78-3.59,7-8.66,5.42-1.22-.39-.75,1.49-.76,2.34-.06,3.83-.16,7.66,0,11.48.12,2.48-.85,3-3.17,3q-19.71-.15-39.45,0c-2.14,0-3-.59-2.87-2.8a50.62,50.62,0,0,0,0-8c-.24-2.27,2.11-6.33-3.67-5.56-1.08.14-3.33-3.23-3.78-5.25-.37-1.66,2.32-1.21,3.62-1.64C866.74,20.39,875.2,17,881.56,10c2.88-3.18,6.27-.89,7.36.57,5.7,7.62,14.32,9.3,22.41,12.17C912.73,23.21,914.19,23.54,916.74,24.26ZM867.92,27.9h34.3c-9.44-4.31-19.52-.46-29.13-2.52C871,24.93,869.56,26.6,867.92,27.9ZM873,33.19c-6-1.19-4.2,3-4.51,5.79-.23,2.11.88,2.62,2.68,2.45,2.47-.23,1.3-2,1-2.94C871.53,36.54,870.41,34.68,873,33.19Zm18.9.43c-6.69-1.74-3.67,3.42-4.36,5.77-.31,1.07.26,1.9,1.53,2,2.46.21.67-1.47,1-2.21C890.7,37.41,891.23,35.55,891.87,33.62Zm-10.78,3.86h.07a14.79,14.79,0,0,0,0-1.49c-.13-1,.54-2.51-1.28-2.68a4,4,0,0,0-2.42.18c-1.42,1,.09,2,.29,2.95a23.8,23.8,0,0,0,.67,3.32c.27.73-2.57,1-.26,1.63.9.26,2.48.65,2.89-.94A12.25,12.25,0,0,0,881.09,37.48Zm19.07-.1c-.52-1,1.32-3.34-1.21-3.73-3.18-.49.68,2.73-1.46,3.22-.5.12-.87,1.32-1.07,2.08s-1.61,2.3.63,2.42c1.11.07,2.8.81,3.09-1.27A21.85,21.85,0,0,0,900.16,37.38Zm-11-17c-4.36-4.69-4.36-4.69-7.86,0Z"/><path class="cls-1" d="M277.55,52.59c0,5.31-.1,10.63.08,15.93.08,2.59-1.09,3.1-3.29,2.93-1.92-.15-4,.53-4-2.78.1-18.25.05-36.51,0-54.76,0-1.24,0-2.47,1.64-2.49,5,0,10-.37,14.87.19,2,.24,4.89,1.56,4.39,4.93l.15-.16c-3,4.21-3.2,9.5-5.26,14.09-.56,1.23.27,2.24.9,3.2,2.91,4.35,3.44,9.2,3.21,14.27-.21,4.66-2.44,7.25-7.06,8.2-3.23.66-4.17-.75-4.22-3.55-.21-1.53-2.54-3.86,1.62-3.66,2,.1,2.7-1.47,2.72-3.41,0-2.34.32-4.94-1.07-6.76-4.13-5.39-2.13-10.83-.76-16.36.29-1.17,1.62-2.48.21-3.53a4,4,0,0,0-2.87-.2c-2.24.47-1.32,2.36-1.33,3.67C277.5,32.43,277.54,42.51,277.55,52.59Z"/><path class="cls-1" d="M285.84,64.92c6.62-2.4,11.55-6,12.88-13.34.59-3.24-.24-3.92-3-3.51-3.48.52-4.43-.83-4.48-4.34-.06-4.12,2.51-3.08,4.6-3.09,9.66,0,19.31,0,29-.06,2.66,0,4.33.09,4.23,3.6-.08,3-.86,4-3.95,4-6.57-.07-6.57.1-6.58,6.89,0,2,0,4,0,6,0,1.53.3,2.54,2.14,2.6,1.6,0,2-1,2.17-2.15.24-1.64.34-3.29.54-5.25,3.34,1.35,7.27,1.37,6,6.93s-2.69,7.32-8,7.39c-9.27.12-10.25-.84-10.33-10.19,0-3.33-.07-6.66,0-10,.05-1.42-.27-2.22-1.8-2.31a2.06,2.06,0,0,0-2.5,1.8c-.43,2.28-.81,4.57-1.38,6.81-1.45,5.61-5,9.58-9.88,12.54-3.17,1.93-5.89,3-7.58-1.64A12.83,12.83,0,0,0,285.84,64.92Z"/><path class="cls-1" d="M564.67,61.66c3.94,2.81,4.22,4.44.2,5.57a45.91,45.91,0,0,0-9.27,3.53c-3.47,1.86-4.22-.36-5.38-2.68-1.7-3.41,1.69-2.49,2.79-3.13,2-1.15,4.23-1.71,6.72-2.65-2.16-1.71-5.32.64-6.27-1.6-.85-2-.4-4.57-.42-6.89,0-2,.11-4,.15-6,.14-6.49.13-6.49,6.89-6.49,7.49,0,15,.11,22.47-.06,2.74-.06,3.92.55,3.69,3.53-.26,3.48-.06,7-.06,10.48,0,6,0,6-6.2,6.69,2.34,1,4.16,1.6,5.85,2.46,1.29.66,4.39.09,2.63,3.22-1.12,2-1.61,5-5.26,2.69a26.77,26.77,0,0,0-7.29-3.11c-3.23-.91-4.28-2.44-2-5.57Zm13.68-14.73,0-1H560.27v1Zm-18.08,8.9c0,.33,0,.67.05,1h18.11l0-1Zm0-5.1,0,1.64c6,0,12.08.44,18.09-.26l0-1.38Z"/><path class="cls-1" d="M884.93,48.44c5.31,0,10.63.14,15.93-.07,2.71-.1,3.4.82,3.29,3.39-.19,4.81,0,9.62,0,14.43,0,5.09-3,6.48-7.87,4.86-7.73-2.53-15.73-2.82-23.47.2-4.26,1.67-7.41,0-7.42-4.43,0-4.64.3-9.31-.09-13.93-.35-4,1.17-4.75,4.75-4.53C875,48.66,880,48.44,884.93,48.44Zm0,13.21H875c-.87,0-1.74.22-1.74,1.27a1.21,1.21,0,0,0,1.33,1.17q10,0,19.9,0c.68,0,1.4-.25,1.48-1,.12-1.07-.69-1.4-1.57-1.41C891.24,61.64,888.09,61.65,884.94,61.65Zm-.67-5.35h0c3.32,0,6.65,0,10,0,.87,0,1.79-.33,1.77-1.3s-1-1.26-1.84-1.26q-9.72,0-19.43,0c-.69,0-1.35.27-1.45,1-.12,1.07.61,1.46,1.51,1.47C878,56.32,881.12,56.3,884.27,56.3Z"/><path class="cls-2" d="M747,112.08c1-5.54,2.33-11,3.08-16.63.41-3,1.7-4.24,4.51-3.63,3,.65,1.41,2.81,1.07,4.34-1.76,7.94-3.71,15.84-5.38,23.79-.5,2.34-1.31,3.45-3.88,3.41s-2.93-1.17-3.37-3.26c-1.71-8.07-3.66-16.1-5.73-25-1.29,3.22-3.48,2.58-5.46,2.65-2.31.09-5-.94-5,3.36,0,3.91,2.47,3.38,4.65,3.13,3.53-.39,4,1.55,3.51,4.18s-2.66,1.57-4.06,1.49c-2.91-.16-4.08.6-4.11,3.83s1.43,3.66,4.19,3.78c1.81.09,5-2,5.34,2.18.18,2.3-.19,3.57-3.1,3.71-11.71.59-11.72.71-11.77-11.05,0-5.65.1-11.31,0-17-.05-2.39.35-3.75,3.2-3.65,5,.17,10,.16,15,0,2.83-.09,3.17,1.63,3.54,3.74,1,5.53,2,11,3.07,16.56Z"/><path class="cls-1" d="M549.49,39.6c1.46,2.26,1.65,4.89,2.23,7.41.11.48.37,1.3.23,1.39-6.16,3.69-.69,8.05-.25,11.8.36,3.07-.87,3.29-2.68,4-2.78,1-2.42-1.16-2.77-2.68-.45-2-.46-4.12-1.88-5.8l.11.1c0-1.12-.55-2.66,0-3.26,1.07-1.19,2.86-2,1.39-3.81-1.12-1.39-2.79-.17-4.17-.09-2.3.13-4.57.77-6.86,1.06-1.54.19-3.63,2.36-4.48-.67-.58-2.09-2.75-4.27.54-6.52,2.51-1.71,4.32-4.45,5.56-8-3.73.61-7.18,1.07-7.68-3.84-.08-.81-.49-1.43.22-2.15,4.79-4.88,6.81-11.27,9-17.46,1-3,2.4-2.12,3.88-1.26,1.32.77,4.52.3,2.64,3.76-2.35,4.32-4.26,8.88-6.42,13.48,3.83,1,4-2.26,5.42-4.21,1-1.4.26-5,3.72-3.79,3,1.09,4.91,3.08,2.9,6.58l.16-.13c-2.73,2.93-4.11,6.64-6.89,11.33C548.56,33.89,549.39,36.27,549.49,39.6Zm-6.55-2.78-3.67,5.5C542.61,41.76,546.15,42,542.94,36.82Z"/><path class="cls-1" d="M413.06,13.85a65.16,65.16,0,0,0,7-.06c1.4-.16,4.4,1.87,3.48-2.67-.38-1.84,3.79-1.67,5.85-2.52,1.54-.63,2.6.11,3,1.65.88,3.56,3.44,3.76,6.48,3.65,5-.18,10,.07,15-.1,2.52-.08,3.69.56,3.45,3.31-.22,2.48,0,5,0,7.49,0,4.65-2.33,6.37-6.67,4.85-2.52-.87-1.39-3.12-1.31-4.64.14-2.67-.76-3.35-3.34-3.32-11.15.13-22.3.2-33.45,0-3.26-.07-4.17,1-3.67,3.94.56,3.27-.76,4.16-4.07,4.24-3.62.1-4-1.37-4-4.37.05-11.42,0-11.42,11.32-11.42Z"/><path class="cls-1" d="M291.31,16.54h14.35c.64-1-.31-1.62-.3-2.37,0-1.53-3.45-3.53.46-4.53,2.42-.62,5.86-3.25,6.76,1.36,1.23,6.29,5.6,6.12,10.06,5.53,4.91-.66,6.57,1.13,5.79,5.88a33.24,33.24,0,0,0-.05,5.47c0,1-.15,2.23-1.46,2.07-3.19-.39-4.14,1-3.69,3.95.3,1.92-1,2.08-2.47,2.07-7.31,0-14.62,0-21.93,0a5.58,5.58,0,0,1-.95,0c-.34-4.4-5.82-5.31-6.48-9.13-.58-3.37,0-6.93.06-10.42Zm18.34,12.14c2.65,0,5.3,0,8,0,1.68,0,3.21.26,3.16-2.42-.05-2.31-.94-2.73-3-2.7q-8.19.15-16.38,0c-2.05,0-2.91.48-2.91,2.77s1,2.39,2.71,2.36C304,28.65,306.84,28.68,309.65,28.68Z"/><path class="cls-1" d="M820,27.73c-6,0-12-.11-17.94.06-2.65.07-3.72-.47-3.78-3.49-.26-13.61-.38-13.61,13.1-13.61,8.8,0,17.61.08,26.41,0,2.54,0,3.61.57,3.41,3.3-.31,4.43,1.3,10.11-.9,13s-8.06.6-12.33.8C825.31,27.84,822.65,27.73,820,27.73Zm-.47-6.25c3.49,0,7,0,10.48,0,1.52,0,2.55-.21,2.6-2.1s-1.17-2-2.58-2c-7,0-14,0-21,0-1.29,0-2.68-.19-2.59,1.94.07,1.87,1,2.17,2.57,2.15C812.52,21.46,816,21.48,819.52,21.48Z"/><path class="cls-1" d="M171,63.1c10.35-.38,10.35-.38,10.35-10.64,0-3.66-.1-7.31,0-11,.08-2.18-.67-2.9-2.85-2.82-4.49.14-9-.15-13.46.11-3.29.19-2.89-1.78-2.81-3.78s-.77-4.35,2.92-4.29c10.14.19,20.28.17,30.42,0,3.78-.06,2.61,2.48,2.79,4.4.2,2.14.15,4.2-2.93,3.57-5.8-1.19-6.34,2-6.07,6.61.34,5.79,0,11.62.09,17.44.09,4.8-2.07,7.22-6.85,8.05C173.42,72.41,173.31,72.49,171,63.1Z"/><path class="cls-2" d="M847.37,108.56c-.81,3.73-1.53,7.49-2.49,11.18-.38,1.44-.21,3.63-2.69,3.53s-2.05-2.29-2.43-3.74c-1.12-4.25-2.08-8.54-3.4-14-2.46,5.54.44,9.82-.32,14-.22,1.22.71,3-1,3.49-2,.57-4.44,1.11-4.4-2.54.08-8.5.05-17,0-25.48,0-1.85.11-3.41,2.56-3.23,2,.16,4.36-.74,5,2.6a98,98,0,0,0,4.52,16.94c1.16-5.32,2.53-10.61,3.4-16,.55-3.43,2.5-3.64,5.25-3.61,3.35,0,2.58,2.33,2.59,4.19,0,8,0,16,0,24,0,2.1-.16,3.54-2.86,3.46-2.45-.08-2.6-1.46-2.54-3.3.13-3.82.2-7.65.3-11.48v-4.49l-.42-.08Z"/><path class="cls-1" d="M147.45,45.16c-4,6.3-6.14,4.4-8.72.49-1.36-2.07-1.42-2.78.49-4.18a54.19,54.19,0,0,0,14.21-15.84c2.7-4.51,5.25-.81,7.47,0,3.34,1.26.18,3.17-.53,4-4.27,4.8-5.23,10.29-4.9,16.51.4,7.29-.13,14.63.19,21.93.16,3.63-1.66,3.45-4.18,3.52-2.76.08-4.26-.23-4.12-3.67C147.66,61,147.45,54,147.45,45.16Z"/><path class="cls-1" d="M550.09,25.64c11.48,0,23,.11,34.44-.12,3.21-.06,3.81,1,3.8,3.93,0,10.09.1,10.09-10.06,10.09h-27c-1.72-4.58-.08-9.41-1-14Zm21.42,6.3c.17-1.31-.93-1.37-2.18-1.36-1.52,0-1.9.89-1.85,2.19.06,1.53,1,1.75,2.29,1.78C571.43,34.59,571.52,33.54,571.51,31.94Zm9.83.36c.14-1.53-.78-1.79-2.11-1.72s-2,.78-1.9,2.16c.06,1.54,1,1.75,2.27,1.81C581.28,34.62,581.39,33.58,581.34,32.3Zm-19.79.31c.13-1.5-.58-2.1-2-2-1.17.05-2.33-.12-2.37,1.67s.51,2.39,2.28,2.32C560.81,34.51,561.63,34.13,561.55,32.61Z"/><path class="cls-2" d="M878.9,106.88c0,4.27,0,8.54,0,12.8,0,1.91.22,3.65-2.64,3.67-2.68,0-2.87-1.37-2.86-3.47.08-8.15,0-16.3.05-24.45,0-1.56-.6-3.48,2.06-3.68,2-.15,3.46.3,4.25,2.45a92.71,92.71,0,0,0,6.44,14.47c0-4.4,0-8.8,0-13.19,0-1.77-.54-3.7,2.46-3.77,3.3-.09,2.78,2,2.78,4,0,8,0,16,0,24,0,1.51.66,3.45-2.05,3.67a3.58,3.58,0,0,1-4.15-2.63c-1.76-4.71-3.65-9.36-5.49-14Z"/><path class="cls-2" d="M607.05,106.41c0,4.48-.07,9,0,13.46,0,2.07-.09,3.55-2.82,3.48-2.39-.07-2.63-1.32-2.62-3.22,0-8.33,0-16.65,0-25,0-1.44-.41-3.13,1.87-3.37,2-.2,3.53.08,4.34,2.29a99.81,99.81,0,0,0,6.47,14.67c0-4.66.08-9.32,0-14,0-2.07.49-3,2.75-3s2.67,1.24,2.65,3.18c-.06,8.32,0,16.65,0,25,0,1.41.4,3.14-1.87,3.41-2,.25-3.5-.21-4.29-2.36-1.82-4.92-3.79-9.79-5.7-14.68Z"/><path class="cls-1" d="M566.06,17c-4.23,0-8.46,0-12.68,0-1.8,0-3.13,0-3.2-2.5-.08-2.7,1.19-3,3.31-2.88a38.93,38.93,0,0,0,6.48,0c2.29-.27,5.16,1.48,6.59-2.47.43-1.22,5.18-1.26,6-.15C576.05,14,581,10.55,585,11.6c1.25.33,3.17-.82,3.3,1.75.12,2.22,0,3.79-3,3.68-3.89-.13-7.87-.52-12.9.61,4.28,1.86,7.58,1,10.77,1.13,1.82.1,3.15.07,3.18,2.57S585.19,24,583.3,24q-13.74-.09-27.48,0c-2,0-3-.23-3.11-2.59-.11-2.61,1.34-2.49,3.12-2.58C559.23,18.61,562.71,19.43,566.06,17Z"/><path class="cls-2" d="M371.67,108.11c0-4.31.13-8.63.09-13,0-2.09.25-3.52,2.92-3.44,2.51.08,2.46,1.53,2.45,3.32,0,8.32,0,16.64,0,25,0,1.42.46,3.16-1.89,3.29-1.9.1-3.48,0-4.3-2.31a83.84,83.84,0,0,0-6.59-14.66c0,4.48,0,9,0,13.44,0,1.86.25,3.63-2.65,3.61s-2.55-1.92-2.55-3.71c0-8.15,0-16.3,0-24.45,0-1.32-.71-3.22,1.71-3.41,1.9-.15,3.52-.08,4.38,2.22,1.83,4.92,3.9,9.75,5.88,14.63l.53.71A.78.78,0,0,0,371.67,108.11Z"/><path class="cls-3" d="M155.55,108.28c0-4.48.13-9,.09-13.44,0-2,.66-3.06,2.85-3.09,2.37,0,2.65,1.25,2.64,3.18-.07,8.31,0,16.62-.06,24.93,0,1.42.47,3.19-1.81,3.4-1.91.18-3.49,0-4.32-2.28a83.22,83.22,0,0,0-6.65-14.58v13.49c0,1.67.27,3.35-2.33,3.45-2.77.11-2.82-1.52-2.81-3.51,0-8.14,0-16.29,0-24.43,0-1.55-.54-3.46,2.13-3.63,2.18-.15,3.28.71,4.05,2.74,1.81,4.77,3.85,9.45,5.79,14.17.17.19.48.55.49.54C156.09,108.87,156,108.56,155.55,108.28Z"/><path class="cls-2" d="M246.12,108.72c0-4.62,0-9.25,0-13.87,0-1.91.27-3.14,2.66-3.13s2.56,1.38,2.55,3.22c-.05,8.31,0,16.61-.06,24.92,0,1.31.73,3.22-1.69,3.42-1.9.16-3.55.11-4.35-2.22-1.57-4.54-3.36-9-5.08-13.48-.22-.59-.43-1.27-1.59-1.2,0,4.55,0,9.1,0,13.66,0,1.75.09,3.26-2.46,3.32-2.76.07-2.8-1.45-2.78-3.48.06-8.14,0-16.28.05-24.42,0-1.48-.81-3.54,2-3.68,2-.11,3.43.16,4.23,2.43,1.73,4.94,3.77,9.77,5.68,14.65Z"/><path class="cls-1" d="M463.23,61.32a37.64,37.64,0,0,0,14-17.91c-2.84,0-5.41-.15-7.95,0-3.1.23-4.77-.21-4.77-4.13s1.73-3.88,4.52-3.8c4,.12,8-.05,11.95-.05,5.49,0,6.78,1.68,5.28,6.71a51.16,51.16,0,0,1-12.43,21.73c-2.58,2.63-4.89,4.31-7.57.15C465.64,63.14,464.57,62.51,463.23,61.32Z"/><path class="cls-2" d="M643,107.4c0-2.66-.17-5.33.05-8s-1.43-6.52,1.09-7.26c4-1.15,8.75-1.44,12.38,1.61a8.14,8.14,0,0,1,2.14,9.6,7.28,7.28,0,0,0,.19,7c3.22,6.62-1.08,12.75-8.52,13s-7.33.21-7.33-6.93Zm7.27,2.34c-3.09-.19-2,2.39-2.13,4.13s-.45,3.74,2.51,3.57c2.75-.15,3.75-1.57,3.68-4.12S653,109.77,650.3,109.74Zm-2.18-8.65c.24,1.6-.79,3.88,2.33,3.76,2.43-.09,3.66-1.29,3.59-3.66s-1.46-3.49-3.81-3.55C647.41,97.55,648.37,99.67,648.12,101.09Z"/><path class="cls-2" d="M475.12,91.77c9.48,0,14.57,6.43,10.34,14.23-2.65,4.88-.89,8.22,0,12.37.33,1.49,3.46,3.48.26,4.77-2.65,1.07-4.76-.2-5.42-3.31a25.4,25.4,0,0,0-1.5-4.72c-.47-1.09-.38-2.92-2.3-2.73-2.12.22-1.25,2-1.33,3.14a43.57,43.57,0,0,0,0,5.48c.09,1.78-.8,2.28-2.4,2.33-1.75,0-2.85-.33-2.84-2.41,0-9-.12-17.94.09-26.9C470.14,90,473.68,92.62,475.12,91.77Zm6.13,10c0-2.12-.81-4-3.84-4.09-2.71-.13-2.47,1.83-2.16,3.29.4,1.84-1.92,5,2.11,5.28C480,106.44,481.21,104.86,481.25,101.8Z"/><path class="cls-2" d="M790.16,107.44a21.93,21.93,0,0,1,2-10.66c1.58-3.17,3.87-5.42,7.7-5.3,3.64.1,5.93,2.42,7.15,5.41a27,27,0,0,1-.07,21.35c-1.28,3-3.57,5.28-7.19,5.33-3.82,0-6.09-2.25-7.63-5.45A21.93,21.93,0,0,1,790.16,107.44Zm13.34-.11c-.32-2.53.1-5.07-1-7.44a3.45,3.45,0,0,0-2.92-2.35,2.9,2.9,0,0,0-3,2.18,23.67,23.67,0,0,0,.1,15.61,2.91,2.91,0,0,0,3,2.2c1.55-.11,2.2-1.18,2.81-2.46C803.66,112.55,803.29,109.88,803.5,107.33Z"/><path class="cls-2" d="M467.31,107.15c.05,4.72-.38,8.84-2.74,12.47-3.45,5.32-9.49,5.38-13.09.2-4-5.71-4.06-18.5-.15-24.33,3.66-5.47,9.88-5.41,13.37.2A19.62,19.62,0,0,1,467.31,107.15Zm-13.4,1.24a50.48,50.48,0,0,0,.77,5.94c.36,1.61,1.22,3.23,3.29,3.19s2.8-1.55,3.25-3.23a25.36,25.36,0,0,0-.06-13.77c-.47-1.67-1.48-3.06-3.48-3-1.79.1-2.38,1.57-2.95,3C453.85,102.78,454.13,105.13,453.91,108.39Z"/><path class="cls-2" d="M212.1,107.75c0-4.68.28-8.82,2.77-12.41,3.62-5.22,9.63-5.18,13.15,0,3.83,5.67,3.82,18.74,0,24.4-3.52,5.17-9.7,5.17-13.16-.08C212.36,115.92,212,111.64,212.1,107.75Zm13.3-.6c-.16-2.11.23-4.8-1.09-7.28-.66-1.23-1.31-2.32-2.9-2.33a3,3,0,0,0-2.94,2.28,23.77,23.77,0,0,0,.14,15.6,2.92,2.92,0,0,0,3.06,2.12,3.29,3.29,0,0,0,2.58-2.08C225.52,113,225.36,110.31,225.4,107.15Z"/><path class="cls-2" d="M339.12,104.15c0-3,0-6,0-9-.05-2,0-3.54,2.82-3.46,2.59.07,2.42,1.64,2.41,3.34,0,5.65-.05,11.3,0,17,0,2.47-.1,5.62,3.42,5.47,3.17-.13,2.83-3.18,2.87-5.44.08-5.64.1-11.3,0-16.94,0-2.18.34-3.44,2.94-3.38s2.54,1.42,2.53,3.26c-.06,6,0,12-.06,17.94a12.51,12.51,0,0,1-2.52,7.92,7.41,7.41,0,0,1-8.09,2.51c-3.67-.95-5.57-3.83-5.95-7.26-.44-3.93-.1-8-.1-11.94Z"/><path class="cls-3" d="M719.13,107.52a19.75,19.75,0,0,1-1.55,9.11,11.39,11.39,0,0,1-13.5,6.67,2.12,2.12,0,0,1-1.82-2.45c0-8.79,0-17.59,0-26.39,0-1.91.73-2.52,2.58-2.75,7.12-.86,11.43,1.91,13.49,8.81A20.9,20.9,0,0,1,719.13,107.52Zm-11.8-.08c0,2.32,0,4.65,0,7,0,1.13-.29,2.49,1.23,2.89a3.5,3.5,0,0,0,3.54-1.35c2.6-2.78,2.64-13.69.09-16.69a3.57,3.57,0,0,0-3.47-1.54c-1.93.39-1.33,2-1.37,3.24C707.28,103.12,707.33,105.28,707.33,107.44Z"/><path class="cls-2" d="M336.49,107.62c0,3.66-.19,7.29-1.91,10.66-1.53,3-3.64,5.2-7.21,5.3s-6-1.91-7.37-5a26.83,26.83,0,0,1,.06-22.2A7.54,7.54,0,0,1,327,91.5c3.62-.1,5.8,2,7.41,5C336.29,100,336.52,103.77,336.49,107.62Zm-13.32-.41c.11,2.64-.19,5.32,1,7.84.59,1.26,1.29,2.37,2.82,2.49,1.82.14,2.77-1.11,3.23-2.57a24.15,24.15,0,0,0-.11-15.15,3.07,3.07,0,0,0-3-2.27c-1.53,0-2.33,1-2.92,2.33C323.1,102.22,323.23,104.73,323.17,107.21Z"/><path class="cls-2" d="M182.59,120.78c.72,2.09-.18,2.53-1.28,2.48-1.66-.07-3.83.8-4.18-2.11-.3-2.56-1.37-3.94-4.49-3.86-2.87.07-3.85,1.25-4.11,3.67-.35,3.15-2.74,2.54-4.54,2.22-2.78-.49-.81-2.46-.56-3.5,1.91-8.25,4-16.46,6.09-24.66.4-1.54.57-3.39,3-3.27,1.39.07,2.74,0,3.17,1.69C178.05,102.78,180.4,112.12,182.59,120.78Zm-10.07-18.49c-.53,2.52-1,4.6-1.41,6.67-.32,1.46-.29,2.62,1.75,2.57s1.84-1.41,1.62-2.73C174.13,106.74,174,104.61,172.52,102.29Z"/><path class="cls-2" d="M273,121.29c.4,1.18,0,2-1.29,2-1.56-.05-3.8.77-4.19-1.5-.49-2.79-1.08-4.42-4.54-4.47s-3.78,1.65-4.19,4.12-2.35,2-4,1.85c-2.56-.29-1.51-2.14-1.19-3.42,2.11-8.55,4.36-17.06,6.42-25.62.44-1.81,1.24-2.51,3-2.47,1.48,0,2.62.37,3,2Q269.54,107.51,273,121.29ZM263.5,102.8l-.92,0c-.45,2.22-.89,4.44-1.35,6.67-.31,1.54.46,2,1.87,2,1.24,0,2.39-.11,2-1.83C264.6,107.4,264,105.1,263.5,102.8Z"/><path class="cls-3" d="M504.83,123.56a8.67,8.67,0,0,1-8.58-7.52c-.16-1.27-.61-2.86,1.39-3.08,1.4-.16,3.14-.63,3.62,1.52s1.75,3.51,4.21,3.13a2.23,2.23,0,0,0,1.9-2c.5-2.61-1-4-3.09-5.06-3.9-1.9-7-4.43-7.69-9.06s2.17-9,6.41-9.84,8.15,1.56,9.32,6.14c.29,1.14,1.44,2.77-.56,3.33-1.48.41-3.52.94-4.29-1.18-.68-1.87-1.67-2.84-3.66-2.38A2.43,2.43,0,0,0,502,99.73c-.33,2.21,1.06,3.39,2.78,4.2,4.29,2,7.56,4.78,8.07,9.87C513.43,119.39,510,123.6,504.83,123.56Z"/><path class="cls-2" d="M678.28,107.29v-5c0-11.34,1.17-12.25,12.59-10.62,2.54.36,2.2,1.79,2.32,3.45.13,2-.67,2.72-2.58,2.58-1-.07-2,0-3,0-2.26-.07-4.15-.19-4.16,3.21,0,3.18,1.49,3.46,4,3.46,1.45,0,3.61-1.05,4.17,1.37.61,2.61.16,4.68-3.37,4.22-3-.4-4.86.17-4.78,4.1.08,4.31,2.84,3.07,5.08,3.31,2,.21,4.77-1.12,4.71,3s-2.85,2.86-4.84,2.89c-10.12.16-10.12.11-10.12-10Z"/><path class="cls-2" d="M641.1,120.72c.28,1.68-.05,2.57-1.69,2.58s-3.61.17-3.8-2.12c-.24-2.85-1.34-3.89-4.38-3.88s-3.89,1.37-4.25,4.08-2.75,2.05-4.43,1.8c-2.22-.33-1.06-2-.77-3.11,2.09-8.38,4.28-16.74,6.27-25.15.49-2.08,1.15-3.25,3.53-3.21s2.54,1.56,2.95,3.23C636.72,103.64,639,112.33,641.1,120.72Zm-9.37-18.27-.76-.08c-.56,2.45-1.15,4.89-1.65,7.35-.35,1.75.88,1.76,2.1,1.79,1.53,0,2.08-.65,1.77-2.12C632.7,107.08,632.22,104.76,631.73,102.45Z"/><path class="cls-2" d="M544,91.46c3.33.11,5.69,2.39,6.86,6.06.38,1.2,1.15,2.94-.43,3.53-1.32.49-3.36,1.16-4.3-1-.71-1.65-1.52-3-3.64-2.59a2.5,2.5,0,0,0-2.17,2.39c-.16,2.21,1.41,3.34,3.08,4.11,5.11,2.39,8.42,5.85,7.91,12-.41,4.81-3.47,7.77-8.08,7.66s-8.74-4.25-8.82-8.62c0-1.25.36-2,1.56-2,1.42,0,3.25-.61,3.79,1.4.59,2.18,1.49,3.7,4.07,3.32a2.45,2.45,0,0,0,2.24-2.3c.33-2.66-1.5-3.92-3.48-4.89-4.91-2.4-8.13-5.78-7.39-11.7C535.71,94.4,539,91.43,544,91.46Z"/><path class="cls-2" d="M573.52,123.27c-2,.25-2.67-.75-2.19-2.65,2.28-9,4.6-18,6.86-27.05.43-1.74,1.69-1.78,3.06-1.81a2.52,2.52,0,0,1,2.9,2.08c2.25,9,4.56,18,6.84,27.05.33,1.31.25,2.41-1.47,2.37-1.57,0-3.72.6-4-1.74-.38-2.61-1-4.11-4.19-4.23-3.52-.14-4.14,1.61-4.55,4.33C576.48,123.32,575,123.36,573.52,123.27Zm8.06-20.55-1,.06c-.45,2.23-.92,4.45-1.36,6.68-.31,1.52.41,2.07,1.86,2.05,1.3,0,2.35-.2,2-1.87C582.63,107.33,582.09,105,581.58,102.72Z"/><path class="cls-2" d="M515.18,103.77c0-3,.07-6,0-9-.06-2,.35-3.09,2.7-3.07,2.51,0,2.55,1.45,2.54,3.26,0,5.66-.07,11.32,0,17,0,2.46-.08,5.62,3.42,5.51,3.13-.1,3-3.16,3-5.41.12-5.66.06-11.32,0-17,0-1.75-.11-3.28,2.45-3.35,2.75-.08,2.83,1.43,2.8,3.48-.08,5.83,0,11.65-.06,17.48a17.47,17.47,0,0,1-.54,3.93c-1,4.12-3.32,6.93-7.89,7-4.86,0-7.45-3.09-8.06-7.34-.6-4.07-.13-8.29-.13-12.45Z"/><path class="cls-2" d="M811.26,107.16c0-4.14,0-8.28,0-12.42,0-1.11-.35-2.73,1.25-2.78,4.22-.13,8.76-1.41,12.37,1.88s4,7.9,2.82,12.41c-1,4.13-3.87,6.49-8.34,6.3-2.17-.09-3,.81-2.8,2.93.12,1.48,0,3,0,4.47.14,2.12-.25,3.47-2.89,3.4s-2.49-1.48-2.47-3.27C811.29,115.77,811.26,111.46,811.26,107.16Zm5.12-5c.28,2-1,4.67,2.76,4.53,3.13-.11,3.91-2.07,3.85-4.59s-1.13-4.44-4.1-4.49C815,97.59,816.9,100.55,816.38,102.19Z"/><path class="cls-2" d="M857,107.46c0-2-.12-4,0-6,.24-3.09-1.54-7.51.78-9,3.36-2.13,8.06-.6,12.18-.67,2.29,0,1.81,1.87,1.87,3.3s-.29,2.64-2.14,2.58c-1.33,0-2.67.09-4,0-2.31-.18-3.66.19-3.67,3.12s1.06,3.68,3.78,3.57c1.82-.07,4.46-1.22,4.51,2.64,0,3.69-2.35,3-4.33,2.87-3.07-.28-3.91.82-4,3.89-.08,3.47,1.54,3.85,4.22,3.6,1.16-.11,2.33,0,3.49,0,1.89,0,2.12,1.18,2.08,2.64s.33,3.16-2,3.27c-.33,0-.66,0-1,0-11.87,1-11.87,1-11.87-10.84Z"/><path class="cls-2" d="M758,107c0-4,.1-8,0-12-.08-2.61.94-3.54,3.52-3.36a78.66,78.66,0,0,0,8,0c2,0,3.45.15,3.49,2.87,0,2.93-1.4,3.32-3.7,3.12-.82-.07-1.66,0-2.49,0-2.25-.18-3.71.08-3.71,3.07s1,3.72,3.74,3.62c1.8-.07,4.46-1.27,4.54,2.59.07,3.65-2.27,3.1-4.29,2.92-3-.28-4,.71-4,3.84-.06,3.43,1.45,3.91,4.18,3.64,1.15-.12,2.33,0,3.49,0,1.85-.05,2.19,1.07,2.13,2.59s.38,3.34-1.91,3.27c-4.12-.11-8.82,1.49-12.16-.71-2.27-1.49-.53-5.9-.75-9C757.88,111.37,758,109.2,758,107Z"/><path class="cls-2" d="M384.94,107.93c.13,2,.15,4,.42,6,.23,1.7.93,3.27,2.89,3.6A3,3,0,0,0,392,115c.46-3.13,2.75-2.82,4.43-2.21,2.23.82.88,2.89.43,4.29-1.22,3.73-3.54,6.44-7.82,6.54s-6.74-2.53-8-6.28a29.38,29.38,0,0,1,.05-19.52c1.47-4.13,4.18-7,9-6.17s6.42,4.29,7.2,8.47c.2,1.06.67,2.52-1.23,2.56-1.24,0-3,.72-3.52-.86-.74-2.38-1.41-4.94-4.43-4.08-3.2.92-2.78,4.13-2.95,6.74-.08,1.16,0,2.33,0,3.49Z"/><path class="cls-3" d="M298.18,108c-.11-4.76.18-9,2.71-12.84,2.23-3.35,5.34-4.53,9.08-3.15,4.13,1.52,5.3,5.22,6,9.11.19,1.06-.61,1.51-1.5,1.51-1.4,0-3.2.65-3.73-1.45s-1.31-4-3.89-3.58c-2.8.42-2.93,3-3.19,5a31.37,31.37,0,0,0,.4,11.9c.41,1.57,1.1,2.84,2.87,3s3.05-.56,3.37-2.27c.51-2.71,2.37-3.26,4.42-2.52,2.79,1,.83,3.17.41,4.58-1.07,3.62-3.5,6-7.51,6.25s-6.45-2.21-7.94-5.68A22.65,22.65,0,0,1,298.18,108Z"/><path class="cls-2" d="M432.7,107.46c0-2-.14-4,0-6,.26-3.09-1.58-7.43.82-9,3.18-2.07,7.74-.57,11.7-.65,2.3,0,1.79,1.81,1.93,3.25.24,2.39-1.17,2.43-3,2.75-2.22.39-6.07-2.26-6.17,3-.06,2.92.55,4.36,3.81,4,2.24-.25,4.64-.67,4.55,3.21s-2.74,2.72-4.51,2.59c-3.21-.24-4.12,1.05-3.82,4,.2,2,0,4,.07,6s-.64,2.67-2.57,2.73c-2.17.06-2.93-.76-2.87-2.92C432.78,116.11,432.69,111.78,432.7,107.46Z"/><path class="cls-2" d="M899.67,110.49c0-2.66-.1-5.32,0-8,.14-2.9.13-5.4-4-4.84-2.54.35-2.34-1.53-2.44-3.25-.1-2,.74-2.69,2.61-2.67,4.16,0,8.32.08,12.47,0,2.06,0,3,.59,3,2.82s-.55,3.54-3,3.15c-3.23-.5-3.38,1.46-3.34,3.89.1,6.15,0,12.3,0,18.45,0,1.78.06,3.24-2.46,3.31s-3-1.24-2.94-3.39C899.75,116.8,899.67,113.64,899.67,110.49Z"/><path class="cls-1" d="M181.15,12.6c4.16,0,8.32.2,12.46-.06,3.15-.2,3.55,1.27,3.4,3.85-.13,2.2.34,4.24-3.14,4.16-8.63-.19-17.28-.21-25.91,0-3.59.1-2.94-2-3.07-4.16-.15-2.46.07-4.08,3.31-3.87C172.5,12.81,176.83,12.6,181.15,12.6Z"/><path class="cls-2" d="M189.81,110.41c0-2.32-.1-4.66,0-7,.18-3.34.45-6.42-4.59-5.81-2.31.29-1.65-1.92-1.8-3.29-.18-1.63.46-2.54,2.18-2.54,4.49,0,9,0,13.46,0,2.11,0,2.37,1.18,2.39,2.88,0,1.88-.18,3.45-2.59,3-3.93-.65-3.78,1.83-3.75,4.5.08,5.65.07,11.3,0,16.94,0,1.81.89,4.15-2.52,4.21-3.23.07-2.82-2-2.81-4C189.82,116.39,189.81,113.4,189.81,110.41Z"/><path class="cls-2" d="M779.93,104.73a48.85,48.85,0,0,1,0,5c-.53,5-.29,9.07,6.62,7.69,2-.41,2.46,1,2.41,2.78-.05,1.58.06,3.11-2.17,3.09-.34,0-.67,0-1,0-11.26.75-11.26.75-11.26-10.48,0-6,.06-12,0-18,0-2,.41-3.1,2.71-3.11s2.87.92,2.79,3C779.84,98.06,779.94,101.4,779.93,104.73Z"/><path class="cls-2" d="M559,110.44c0-2.33,0-4.66,0-7,.07-3.19.71-6.59-4.52-5.82-2.31.34-1.87-1.73-2-3.16s.22-2.69,2.06-2.69q7,0,14,0c2.35,0,1.91,1.76,2,3.2.12,1.77-.35,3.06-2.44,2.71-4.11-.7-4.07,1.8-4,4.73.13,5.83,0,11.66.07,17.48,0,2.1-.13,3.53-2.84,3.44S559,121.6,559,119.93C559,116.77,559,113.6,559,110.44Z"/><path class="cls-2" d="M667.38,104.62c0,1.82.13,3.65,0,5.46-.4,4.71-.24,8.77,6.42,7.31,1.87-.41,2.69.61,2.57,2.54-.11,1.67.21,3.43-2.38,3.37q-4.72-.1-9.45,0c-2.13,0-2.34-1.22-2.33-2.9q.06-12.91,0-25.85c0-1.75.33-2.77,2.4-2.83,2.24-.06,2.88.89,2.82,3C667.31,98,667.38,101.3,667.38,104.62Z"/><path class="cls-2" d="M280.2,104.72c0,1.82.15,3.66,0,5.47-.48,4.82-.06,8.65,6.48,7.22,1.86-.41,2.64.65,2.56,2.58-.08,1.72.14,3.46-2.41,3.32a2.68,2.68,0,0,0-.49,0c-11.32,1-11.32,1-11.33-10.4,0-5.64-.05-11.28,0-16.91,0-1.78-.92-4.17,2.48-4.26s2.69,2.1,2.7,4C280.21,98.75,280.2,101.73,280.2,104.72Z"/><path class="cls-2" d="M414.21,104.52c0,1.66.13,3.33,0,5-.46,5-.35,9.35,6.78,7.93,2.19-.44,2.24,1.24,2.24,2.85s.06,3.09-2.16,3a4.13,4.13,0,0,0-.5,0C409,124.6,409,124.6,409,113.16c0-6,0-12,0-17.92,0-2,0-3.58,2.79-3.5,2.54.07,2.44,1.57,2.41,3.32C414.18,98.21,414.21,101.37,414.21,104.52Z"/><path class="cls-2" d="M209.2,107.53c0,4.32-.1,8.64.05,13,.07,2.23-.81,2.88-2.9,2.86s-2.45-1.09-2.44-2.84c0-8.64.07-17.27,0-25.91,0-2.19.81-2.92,2.93-2.87s2.45,1.06,2.41,2.85C209.14,98.89,209.2,103.21,209.2,107.53Z"/><path class="cls-1" d="M160.12,12a80.94,80.94,0,0,1-15.87,16.13c-.85.66-2.12,2.63-2.88.19-.67-2.12-4.88-3.64-2.23-6,4.42-4,8.67-8.18,12.87-12.44C154.33,7.48,157.15,11.18,160.12,12Z"/><path class="cls-2" d="M593.17,107.36c0-4.3.05-8.61,0-12.92,0-1.81.46-2.74,2.49-2.73,1.84,0,2.73.55,2.72,2.53q-.08,13.17,0,26.34c0,1.78-.46,2.71-2.49,2.76-2.35.06-2.75-1.1-2.71-3C593.23,116,593.18,111.67,593.17,107.36Z"/><path class="cls-2" d="M400.26,107.52c0-4.3.05-8.61,0-12.91,0-1.73.25-2.81,2.37-2.88s2.86.84,2.85,2.92c-.07,8.61,0,17.22,0,25.84,0,1.68-.23,2.84-2.38,2.87s-2.9-.78-2.83-2.92C400.35,116.14,400.26,111.83,400.26,107.52Z"/><path class="cls-4" d="M618.21,65.56c.41-3.77.63-7.58,1.29-11.31.52-3-.07-4.34-3.4-4a64,64,0,0,1-7.46,0c-1.08,0-2.55.29-2.33-1.6.16-1.29.3-2.73,2.08-2.9,4-.4,8.16.72,12.2-.82.63-.24,2.65,1.82,2,2.76-1.83,2.68,1.5,5.67-1,8.24-1.07,1.12.67,1.49,1.39,1.93,2.07,1.27,4.19,2.46,6.61,3.86-3.58,2.23-7.19,2.66-10.56,3.77l-.43.07Z"/><path class="cls-4" d="M277.55,52.59c0-10.08-.05-20.16,0-30.25,0-1.31-.91-3.2,1.33-3.67a4,4,0,0,1,2.87.2c1.41,1.05.08,2.36-.21,3.53-1.37,5.53-3.37,11,.76,16.36,1.39,1.82,1.1,4.42,1.07,6.76,0,1.94-.71,3.51-2.72,3.41-4.16-.2-1.83,2.13-1.62,3.66Z"/><path class="cls-1" d="M537.11,56.21c-.62,3.56-1.16,7.14-1.9,10.67-.34,1.66.3,4.52-3.09,3.51-2.37-.7-4.51-1.19-3-4.88,1.25-3.12,1.2-6.76,1.7-10.17.22-1.5.26-3.24,2.54-2.38C534.92,53.55,537.81,52.84,537.11,56.21Z"/><path class="cls-4" d="M447.27,33.22l-12.68,9.43A43.16,43.16,0,0,1,431.52,38c-.6-1.21-2.9-1.91-1.79-3.53a5.84,5.84,0,0,1,5-2.67c4.13,0,8.3.49,12.41-.38Z"/><path class="cls-1" d="M544.37,55.7c-.87,3.22-.18,6.46.25,9.61.42,3-1.24,3-3.31,3.53-3.21.79-2.2-1.53-2.36-2.88a65.53,65.53,0,0,1-.63-7.91c0-1.86-1.2-4,2-5.21,3.54-1.32,2.12,3,4.15,3Z"/><path class="cls-4" d="M550.25,25.51c1,4.63-.69,9.46,1,14l-1.79.05c-.1-3.33-.93-5.71-6.13-2.76C546.14,32.15,547.52,28.44,550.25,25.51Z"/><path class="cls-4" d="M847.37,108.56l1.12-4.57.42.08v4.49Z"/><path class="cls-5" d="M690.19,18.56h14.47c1.3,0,2.61-.26,2.7,1.85.09,2.33-1.25,2.24-2.84,2.23-9.48,0-19,0-28.44,0-1.46,0-3,.37-3-2.11s1.73-1.94,3.09-2C680.87,18.54,685.53,18.56,690.19,18.56Z"/><path class="cls-4" d="M672.47,45.44c1-4.57.5-8.72.7-12.83.06-1.18-.54-3,1.56-2.91,2.52.14,5.85-1.39,7.37.86s-.25,3.67-3.13,3.59c-1.76,0-4.45-1.38-4.71,2.42C674,40,675,41.39,678.57,41c1.55-.17,3.84-.93,3.87,2.21s-2.28,2.09-3.83,2.2C676.65,45.54,674.67,45.44,672.47,45.44Z"/><path class="cls-5" d="M695.73,60.83c-1.17-.45-2.24.05-3.36.3-6.53,1.45-6.27,1.43-6.49-5.19-.11-3.45,1.38-3.78,4-3.53,2.86.28,6.15,5.09,5.68,8.48Z"/><path class="cls-4" d="M694.56,34.16c-1.73-.63-4.91,1.33-4.56-2.59.33-3.77,3.32-1.63,5-1.8,1.47-.15,4.32-1.58,4.27,2C699.21,35.75,696.11,33.34,694.56,34.16Z"/><path class="cls-4" d="M694.68,45.69c-1.87-.84-4.72,1.2-4.71-2.4,0-3.83,3-2.21,4.73-2.25s4.77-1.53,4.56,2.37S695.71,44.12,694.68,45.69Z"/><path class="cls-5" d="M700.35,52.65h7.79C703.39,56.78,703.39,56.78,700.35,52.65Z"/><path class="cls-5" d="M764.23,51.77c-6.1,6.71-6.54,6.76-17.69,2.66C749.12,50.92,749.12,50.92,764.23,51.77Z"/><path class="cls-5" d="M767.68,28.86l.36.34c-.13.1-.25.29-.37.29s-.24-.2-.37-.31Z"/><path class="cls-4" d="M363.82,19.51c.26,5.82-3,6.8-7.92,6.06-2.44-.37-5,0-7.47-.09-2-.08-3,.36-3,2.72s.64,3.31,3.1,3.21c3.81-.15,7.65.13,11.45-.09,2.86-.17,4.17.53,4.34,3.69a74.58,74.58,0,0,0,1.73,11.26c.39,1.85.24,3.36-1.32,4.36-2.56,1.64-.78-1.9-2-1.78-4.11.42-8.23.8-12.31,1.43-2.33.36-5.31-.49-7.1,2.72,0-10.65,0-21.31,0-32,0-2.42,1.6-2.11,3-2.12,5.81-.06,11.62-.08,17.43-.11,0,0-.25.38-.25.38ZM355,33.79c-7.65,0-7.32,0-7.77,7.49-.28,4.7,1.28,5.75,5.72,5.6,9.83-.34,9.73-.1,9.27-10.05-.11-2.48-.94-3.25-3.23-3.06C357.63,33.87,356.29,33.78,355,33.79Z"/><path class="cls-4" d="M382.51,52.59c-.78-2.92-.78-2.92-4.47-5-1.19,1.46,0,3.6-1.53,5.16-2.6-1.18-3.3-2.73-1.63-5.38A43,43,0,0,0,379.56,37c.44-1.41,1.55-3-1.05-3.26-1.69-.15-3.94-1.88-4.86,1.28-.5,1.7-1.17,3.35-1.89,5.42a10.43,10.43,0,0,1-.59-1.44c-1.26-7.57-1.25-7.52,6.35-7.68,1.5,0,3.83,1,4.27-1.22.28-1.44,1.64-3.78-1.64-4.78-1.83-.57,2-1.79.58-3.33-1-1-2.86-1.09-3.09-2.91,4.61-1.15,6.39.14,6.13,5.26-.48,9.41-.19,18.87-.23,28.3Z"/><path class="cls-5" d="M382.51,52.59l1,.06c.09,8.92.09,8.92-8.46,8.92H349.71c-6.75,0-6.75,0-5.76-7.67,2,3.55,4.71,2.87,7.46,2.13,3.63-1,7-1.4,9.38,2.6,2.14,3.65,3.95.55,5.35-.71,1.89-1.69,2.78-2.66,5.26-.21C376.29,62.56,380.76,60.32,382.51,52.59Z"/><path class="cls-4" d="M368.72,18.8h5.76c-4.72,3.61-.32,4.28,1,6-4.54,1.17-4.54,1.17-6.84-5.25,0,0,.28-.34.28-.34Z"/><path class="cls-3" d="M368.72,18.8l.23.37s-.27.34-.28.34a8.14,8.14,0,0,1-4.86,0s-.28-.33-.28-.33.24-.38.25-.38Z"/><path class="cls-5" d="M247.82,45.35c-2.44-4.63-3.27-9.18-4.42-13.6-.25-.95-1-2.69.53-3a21.69,21.69,0,0,1,6.87-.09c1.82.26.63,1.89.55,2.83A49.37,49.37,0,0,1,247.82,45.35Z"/><path class="cls-5" d="M629.21,53.63h9.55C637,58.63,635.71,59.1,629.21,53.63Z"/><path class="cls-4" d="M604.58,17.62h7.35C609.82,24.39,607,19.24,604.58,17.62Z"/><path class="cls-5" d="M419.35,32.66l0-.71.63.18-.72.45Z"/><path class="cls-4" d="M819.59,51.51c4.49,0,9,0,13.49,0,.94,0,2.14-.18,2.09,1.34s-1.1,1.45-2.14,1.45q-13.74,0-27.48,0c-1,0-2.17-.15-2.16-1.46s1.25-1.3,2.21-1.31C810.26,51.49,814.92,51.51,819.59,51.51Z"/><path class="cls-4" d="M819.53,43.53c4.49,0,9,0,13.48,0,.92,0,2.14-.25,2.15,1.26s-1,1.48-2.09,1.48H805.62c-1,0-2.19-.14-2.23-1.4s1.2-1.35,2.17-1.35C810.22,43.51,814.88,43.53,819.53,43.53Z"/><path class="cls-4" d="M820,35.59c4.17,0,8.33-.05,12.5,0,1,0,2.56-.64,2.67,1.22s-1.32,1.56-2.46,1.57H806.19c-1.14,0-2.73.23-2.76-1.32,0-2,1.86-1.45,3.05-1.47C811,35.54,815.47,35.59,820,35.59Z"/><path class="cls-5" d="M812.17,60.56l-.56-.48.58-.08-.15.64Z"/><path class="cls-5" d="M494.63,21.13l1.28,1.05h-2.16Z"/><path class="cls-4" d="M867.92,27.9c1.64-1.3,3.1-3,5.17-2.52,9.61,2.06,19.69-1.79,29.13,2.52Z"/><path class="cls-4" d="M873,33.19c-2.56,1.49-1.44,3.35-.84,5.3.31,1,1.48,2.71-1,2.94-1.8.17-2.91-.34-2.68-2.45C868.77,36.2,867,32,873,33.19Z"/><path class="cls-4" d="M891.87,33.62c-.64,1.93-1.17,3.79-1.87,5.57-.29.74,1.5,2.42-1,2.21-1.27-.11-1.84-.94-1.53-2C888.2,37,885.18,31.88,891.87,33.62Z"/><path class="cls-4" d="M881.09,37.48a12.25,12.25,0,0,1-.05,3c-.41,1.59-2,1.2-2.89.94-2.31-.67.53-.9.26-1.63a23.8,23.8,0,0,1-.67-3.32c-.2-1-1.71-2-.29-2.95a4,4,0,0,1,2.42-.18c1.82.17,1.15,1.64,1.28,2.68a14.79,14.79,0,0,1,0,1.49Z"/><path class="cls-4" d="M900.16,37.38a21.85,21.85,0,0,1,0,2.72c-.29,2.08-2,1.34-3.09,1.27-2.24-.12-.87-1.54-.63-2.42s.57-2,1.07-2.08c2.14-.49-1.72-3.71,1.46-3.22C901.48,34,899.64,36.35,900.16,37.38Z"/><path class="cls-4" d="M889.13,20.39h-7.86C884.77,15.7,884.77,15.7,889.13,20.39Z"/><path class="cls-4" d="M578.35,46.93H560.26v-1h18.12Z"/><path class="cls-4" d="M560.27,55.83H578.4l0,1H560.32C560.31,56.5,560.29,56.16,560.27,55.83Z"/><path class="cls-4" d="M560.3,50.73h18.08l0,1.38c-6,.7-12.06.28-18.09.26Z"/><path class="cls-4" d="M884.94,61.65c3.15,0,6.3,0,9.45,0,.88,0,1.69.34,1.57,1.41-.08.76-.8,1-1.48,1q-9.94,0-19.9,0a1.21,1.21,0,0,1-1.33-1.17c0-1,.87-1.26,1.74-1.27h10Z"/><path class="cls-4" d="M884.27,56.3c-3.15,0-6.31,0-9.47,0-.9,0-1.63-.4-1.51-1.47.1-.78.76-1,1.45-1q9.72,0,19.43,0c.88,0,1.81.3,1.84,1.26s-.9,1.3-1.77,1.3c-3.32,0-6.65,0-10,0Z"/><path class="cls-4" d="M542.94,36.82c3.21,5.14-.33,4.94-3.67,5.5Z"/><path class="cls-5" d="M309.65,28.68c-2.81,0-5.62,0-8.43,0-1.68,0-2.71-.15-2.71-2.36s.86-2.8,2.91-2.77q8.19.15,16.38,0c2,0,2.91.39,3,2.7.05,2.68-1.48,2.43-3.16,2.42C315,28.67,312.3,28.68,309.65,28.68Z"/><path class="cls-4" d="M819.52,21.48c-3.5,0-7,0-10.49,0-1.52,0-2.5-.28-2.57-2.15-.09-2.13,1.3-1.94,2.59-1.94,7,0,14,0,21,0,1.41,0,2.63,0,2.58,2s-1.08,2.12-2.6,2.1C826.51,21.45,823,21.48,819.52,21.48Z"/><path class="cls-4" d="M571.51,31.94c0,1.6-.08,2.65-1.74,2.61-1.28,0-2.23-.25-2.29-1.78-.05-1.3.33-2.18,1.85-2.19C570.58,30.57,571.68,30.63,571.51,31.94Z"/><path class="cls-4" d="M581.34,32.3c0,1.28-.06,2.32-1.74,2.25-1.25-.06-2.21-.27-2.27-1.81-.06-1.38.44-2.1,1.9-2.16S581.48,30.77,581.34,32.3Z"/><path class="cls-4" d="M561.55,32.6c.08,1.53-.74,1.91-2.14,2-1.77.07-2.32-.64-2.28-2.32s1.2-1.62,2.37-1.67C561,30.51,561.68,31.11,561.55,32.6Z"/><path class="cls-5" d="M371.67,108.11a.78.78,0,0,1,0,1.25l-.53-.71C371.31,108.46,371.49,108.29,371.67,108.11Z"/><path class="cls-5" d="M155.55,108.28c.42.28.54.59.09.94,0,0-.32-.35-.49-.54C155.28,108.55,155.41,108.41,155.55,108.28Z"/><path class="cls-4" d="M650.3,109.74c2.7,0,4,1.13,4.06,3.58s-.93,4-3.68,4.12c-3,.17-2.62-1.81-2.51-3.57S647.21,109.55,650.3,109.74Z"/><path class="cls-4" d="M648.12,101.09c.25-1.42-.71-3.54,2.11-3.45,2.35.06,3.75,1.16,3.81,3.55s-1.16,3.57-3.59,3.66C647.33,105,648.36,102.69,648.12,101.09Z"/><path class="cls-5" d="M481.25,101.8c0,3.06-1.29,4.64-3.89,4.48-4-.25-1.71-3.44-2.11-5.28-.31-1.46-.55-3.42,2.16-3.29C480.44,97.85,481.27,99.68,481.25,101.8Z"/><path class="cls-5" d="M803.5,107.33c-.21,2.55.16,5.22-1,7.74-.61,1.28-1.26,2.35-2.81,2.46a2.91,2.91,0,0,1-3-2.2,23.67,23.67,0,0,1-.1-15.61,2.9,2.9,0,0,1,3-2.18,3.45,3.45,0,0,1,2.92,2.35C803.6,102.26,803.18,104.8,803.5,107.33Z"/><path class="cls-5" d="M453.91,108.39c.22-3.26-.06-5.61.82-7.84.57-1.41,1.16-2.88,2.95-3,2-.11,3,1.28,3.48,3a25.36,25.36,0,0,1,.06,13.77c-.45,1.68-1.23,3.18-3.25,3.23s-2.93-1.58-3.29-3.19A50.48,50.48,0,0,1,453.91,108.39Z"/><path class="cls-5" d="M225.4,107.15c0,3.16.12,5.83-1.15,8.31a3.29,3.29,0,0,1-2.58,2.08,2.92,2.92,0,0,1-3.06-2.12,23.77,23.77,0,0,1-.14-15.6,3,3,0,0,1,2.94-2.28c1.59,0,2.24,1.1,2.9,2.33C225.63,102.35,225.24,105,225.4,107.15Z"/><path class="cls-4" d="M707.33,107.44c0-2.16-.05-4.32,0-6.48,0-1.22-.56-2.85,1.37-3.24a3.57,3.57,0,0,1,3.47,1.54c2.55,3,2.51,13.91-.09,16.69a3.5,3.5,0,0,1-3.54,1.35c-1.52-.4-1.22-1.76-1.23-2.89C707.32,112.09,707.33,109.76,707.33,107.44Z"/><path class="cls-5" d="M323.18,107.21c.05-2.48-.08-5,1-7.33.59-1.28,1.39-2.31,2.92-2.33a3.07,3.07,0,0,1,3,2.27,24.15,24.15,0,0,1,.11,15.15c-.46,1.46-1.41,2.71-3.23,2.57-1.53-.12-2.23-1.23-2.82-2.49C323,112.53,323.28,109.85,323.18,107.21Z"/><path class="cls-4" d="M172.52,102.29c1.48,2.32,1.61,4.45,2,6.51.22,1.32.5,2.68-1.62,2.73s-2.07-1.11-1.75-2.57C171.55,106.89,172,104.81,172.52,102.29Z"/><path class="cls-4" d="M263.5,102.8c.54,2.3,1.1,4.6,1.61,6.91.38,1.72-.77,1.8-2,1.83-1.41,0-2.18-.48-1.87-2,.46-2.23.9-4.45,1.35-6.67Z"/><path class="cls-4" d="M631.73,102.45c.49,2.31,1,4.63,1.46,6.94.31,1.47-.24,2.16-1.77,2.12-1.22,0-2.45,0-2.1-1.79.5-2.46,1.09-4.9,1.65-7.35Z"/><path class="cls-4" d="M581.58,102.72c.51,2.31,1,4.61,1.53,6.92.35,1.67-.7,1.86-2,1.87-1.45,0-2.17-.53-1.86-2.05.44-2.23.91-4.45,1.36-6.68Z"/><path class="cls-4" d="M816.38,102.19c.52-1.64-1.34-4.6,2.51-4.55,3,0,4,1.93,4.1,4.49s-.72,4.48-3.85,4.59C815.4,106.86,816.66,104.16,816.38,102.19Z"/><path class="cls-1" d="M355,33.79c1.33,0,2.67.08,4,0,2.29-.19,3.12.58,3.23,3.06.46,10,.56,9.71-9.27,10.05-4.44.15-6-.9-5.72-5.6C347.64,33.81,347.31,33.79,355,33.79Zm1.5,6.68c.21-1.38-.31-2.17-1.86-2-1.06.1-2.38-.35-2.32,1.6.05,1.56.35,2.48,2.16,2.49C355.94,42.54,356.55,42,356.46,40.47Z"/><path class="cls-4" d="M356.46,40.47c.09,1.48-.52,2.07-2,2.06-1.81,0-2.11-.93-2.16-2.49-.06-1.95,1.26-1.5,2.32-1.6C356.15,38.3,356.67,39.09,356.46,40.47Z"/><circle class="cls-6" cx="120.25" cy="62.86" r="6.67"/><circle class="cls-7" cx="117.96" cy="46.87" r="6.67"/><circle class="cls-8" cx="111.24" cy="32.16" r="6.67"/><circle class="cls-9" cx="100.66" cy="19.96" r="6.67"/><circle class="cls-10" cx="87.06" cy="11.22" r="6.67"/><circle class="cls-11" cx="39.88" cy="11.21" r="6.67"/><circle class="cls-12" cx="26.29" cy="19.95" r="6.67"/><circle class="cls-13" cx="15.7" cy="32.17" r="6.67"/><circle class="cls-13" cx="9" cy="46.87" r="6.67"/><circle class="cls-13" cx="8.98" cy="78.85" r="6.67"/><circle class="cls-14" cx="15.61" cy="93.45" r="6.66"/><circle class="cls-15" cx="26.29" cy="105.76" r="6.67"/><circle class="cls-16" cx="39.89" cy="114.51" r="6.67"/><circle class="cls-17" cx="87.04" cy="114.53" r="6.67"/><circle class="cls-18" cx="100.65" cy="105.79" r="6.67"/><circle class="cls-19" cx="111.24" cy="93.57" r="6.67"/><circle class="cls-20" cx="117.95" cy="78.87" r="6.67"/><circle class="cls-21" cx="55.38" cy="6.67" r="6.67"/><circle class="cls-22" cx="71.55" cy="6.67" r="6.67"/><circle class="cls-23" cx="55.38" cy="119.07" r="6.67"/><circle class="cls-24" cx="71.55" cy="119.07" r="6.67"/><path class="cls-25" d="M3.78,39.6a2.06,2.06,0,0,0-3,2A3.84,3.84,0,0,0,2,44.53a4.06,4.06,0,0,1-.65,3.58,2,2,0,0,0,0,1.33s-1.27,1.2,1.8,6.07a1,1,0,0,0,.61,1.34,1.09,1.09,0,0,0,.44.06s1-.15,1.53,4.24c0,0-.18.33.32.61,0,0-.56.54,1.38,2.44a1.83,1.83,0,0,1,.45,1.11,2.49,2.49,0,0,0,.77,1,2.33,2.33,0,0,0,.71,1.79,1.49,1.49,0,0,1,.65.79s-.43.47,1.09,1.2a5.38,5.38,0,0,1,1.2,2.48.37.37,0,0,0,.47.19A2.36,2.36,0,0,0,13.4,74s-.5.29.49,1.22c0,0,1.25,2.94,2,3.08a2.66,2.66,0,0,0,1.45,2.76s.67,2.38,1.94,2a37.62,37.62,0,0,1,4.23,2.19,2.44,2.44,0,0,0,1.21,1.41s-.3.83,1.28,1.6a3.08,3.08,0,0,0,1.36,1,.9.9,0,0,0,.86,1h.2A7.8,7.8,0,0,1,32,89.82a19.53,19.53,0,0,0,4.68.81,1.75,1.75,0,0,1,1.14.5,1.09,1.09,0,0,0,1.38,0,1.56,1.56,0,0,1,1.27.29s.7.39.7-.32A2,2,0,0,0,43,90s1,0,1-.63c0,0,.2,1.42.85-.16a30.61,30.61,0,0,1,3.38-1.16,1.44,1.44,0,0,0,1.8.23,13.19,13.19,0,0,1,3.38,1.29c.66.59.84,1,1.49.63,0,0,2.51,1.5,1.67-.56,0,0-.42-.59,1.27-1.06,0,0,.66-.12.62-.5,0,0,.15-.7-.87-.36s-1-.25-1-.25a1.8,1.8,0,0,0-1-1.79s-2.46-1.47-3.28-1.79a3.85,3.85,0,0,1-2.54-2,2.8,2.8,0,0,1-1.31-1.09c-.36-.7-2.65-3.74-2.65-3.74a1.75,1.75,0,0,1,0-1.35,2.2,2.2,0,0,0-.49-1.36.94.94,0,0,0,0-1c-.41-.45-1.52-.57-1.36-1.43a7.3,7.3,0,0,0-1.4-3,1.8,1.8,0,0,0-.93-1.19,2.46,2.46,0,0,1-.68-1.79,11,11,0,0,1-2.17-1.66,6.2,6.2,0,0,0-2.13-2.57,18.86,18.86,0,0,1-1.38-1.43,4.78,4.78,0,0,0-1.56-1.11,33.08,33.08,0,0,1-3.12-2.92c-.89-1.09-1.39-.79-2.16-1.79s-1-.09-1.89-2.15A1.67,1.67,0,0,0,25.35,52c-.62.22-.48-.93-1.12-1.43a2.31,2.31,0,0,1-1.29-2.45s.34-.74-2.41-2.44a6,6,0,0,1-.71-1.56c0-.34,0-.86-.86-.7A1.69,1.69,0,0,0,17.07,42a1.54,1.54,0,0,0-.37.09,11.34,11.34,0,0,0-3-.88s-2.9-2.58-2.26-4.73c0,0,.31-.54-.44-.82,0,0-.49-.34-.88.79,0,0-.25.43-1-.09,0,0-1.15-1.22-1.79,0a2.5,2.5,0,0,1-1.1,1.45A4.4,4.4,0,0,0,5.2,39C5,39.71,4.34,38,3.78,39.6Z"/><path class="cls-25" d="M87.87,76.6a3.69,3.69,0,0,1-4.25.27,10,10,0,0,0-1.47-.72,8.46,8.46,0,0,0-7.7,1.29C73,74,68.73,69.79,67.05,72.68a11.11,11.11,0,0,0-.81,4.49c-.1,1.15-.19,2.28-.39,3.41a7.88,7.88,0,0,1-.4,1.59,2,2,0,0,0-.17.36c-.56.61-1.8-.25-2.42-.66A10.24,10.24,0,0,1,60,78.52c-.44-.81-.8-1.69-1.21-2.51q-1.15-2.15-2.37-4.25a50.16,50.16,0,0,0-7-9.66c-1.27-1.3-2.69-2.47-3.94-3.79a4.08,4.08,0,0,1-1.4-2.19,3.22,3.22,0,0,1,1.43-1.79c1.15-1,2.8-2,2.58-3.75a4.55,4.55,0,0,0-2.77-2.95,17.13,17.13,0,0,0-5.79-1.49,22,22,0,0,0-5.38.18,4.83,4.83,0,0,1-1.56-1.65c-.55-.75-1-1.56-1.55-2.31A45.8,45.8,0,0,0,27.52,38a32.69,32.69,0,0,0-9.12-7A22.59,22.59,0,0,0,7.45,28.58a8.91,8.91,0,0,0-4.87,1.15A6.18,6.18,0,0,0,0,34,5.83,5.83,0,0,1,4.5,29.6a18.6,18.6,0,0,1,7.31.54,25,25,0,0,1,10,5.37,37.09,37.09,0,0,1,7.7,9A10.75,10.75,0,0,0,33,48.72a6.12,6.12,0,0,0,3.42.12,19.06,19.06,0,0,1,5.77.79,6.48,6.48,0,0,1,2.62,1.28c-.34.3-.88.6-1.09.77A11.14,11.14,0,0,0,42.27,53,4.34,4.34,0,0,0,41,56.84c.52,2.68,3.13,4.51,5,6.32a42.9,42.9,0,0,1,7.17,9.46q1.6,2.64,3,5.38a18.36,18.36,0,0,0,3,4.75c2,2,6.39,4.74,8.54,1.41A10.94,10.94,0,0,0,69,79.29a31.07,31.07,0,0,1,.34-4.41c.52-.52,4,2.29,4.55,4.35a2.58,2.58,0,0,0,1.38-.43,6.94,6.94,0,0,1,3.59-.87,8.91,8.91,0,0,1,3.22.66h0c2,.55,5,.52,5.75-1.9Z"/><path class="cls-25" d="M87.87,76.6A20.09,20.09,0,0,1,81,88.09,15.33,15.33,0,0,1,74.09,91a23.25,23.25,0,0,1-3.82.31,14.35,14.35,0,0,0-2.93,0h-.18a6.82,6.82,0,0,0-2,1.79,16,16,0,0,1-2.51,2.29A10.14,10.14,0,0,1,58.59,97a14.29,14.29,0,0,1-10.75-2.38,17.49,17.49,0,0,0,10.52-.21,9.18,9.18,0,0,0,2.36-1.24,14.64,14.64,0,0,0,2-2.11,8,8,0,0,1,3.58-3,11.78,11.78,0,0,1,3.19-.23,25.11,25.11,0,0,0,5.79-.56,18,18,0,0,0,9.44-6.32C85.85,79.48,86.92,78,87.87,76.6Z"/><path class="cls-26" d="M66.08,61a1.68,1.68,0,0,0-.66-1.42,8.82,8.82,0,0,0-2.35-1,17.73,17.73,0,0,1-2.69-1.07,4.38,4.38,0,0,1-2.68-3.92,3.78,3.78,0,0,1,.71-2.3,4.71,4.71,0,0,1,2.08-1.58,8,8,0,0,1,3.14-.55,7.21,7.21,0,0,1,3,.61,4.83,4.83,0,0,1,2.06,1.79A4.53,4.53,0,0,1,69.34,54H66.1a2.13,2.13,0,0,0-.68-1.7,2.83,2.83,0,0,0-1.92-.61,3,3,0,0,0-1.79.5,1.59,1.59,0,0,0-.66,1.33,1.52,1.52,0,0,0,.77,1.29,8.61,8.61,0,0,0,2.29,1,9.91,9.91,0,0,1,4,2.08A4.11,4.11,0,0,1,69.43,61a3.8,3.8,0,0,1-1.56,3.23,6.78,6.78,0,0,1-4.17,1.16,8.11,8.11,0,0,1-3.41-.59A5.3,5.3,0,0,1,58,63a4.74,4.74,0,0,1-.79-2.69h3.26c0,1.75,1.05,2.62,3.14,2.62a3.05,3.05,0,0,0,1.79-.47A1.51,1.51,0,0,0,66.08,61Z"/><path class="cls-26" d="M71.15,65.19V49.36H76a7.33,7.33,0,0,1,3.72.94A6.48,6.48,0,0,1,82.32,53a8.29,8.29,0,0,1,.93,3.94v.71a8.24,8.24,0,0,1-.92,3.93,6.51,6.51,0,0,1-2.58,2.67,7.44,7.44,0,0,1-3.72,1H71.15ZM74.38,52V62.55H76a3.57,3.57,0,0,0,2.92-1.25,5.67,5.67,0,0,0,1-3.59v-.8a5.8,5.8,0,0,0-1-3.59A3.58,3.58,0,0,0,76,52.09H74.38Z"/><path class="cls-26" d="M97.67,63.18a5.62,5.62,0,0,1-2.49,1.63,10.37,10.37,0,0,1-3.58.57A7,7,0,0,1,88,64.49a6.1,6.1,0,0,1-2.38-2.6,9.14,9.14,0,0,1-.86-4V56.8a9.63,9.63,0,0,1,.81-4.1,5.84,5.84,0,0,1,2.31-2.65,7.56,7.56,0,0,1,8,.41,5.74,5.74,0,0,1,1.79,3.9H94.55a3.18,3.18,0,0,0-1-2,3.08,3.08,0,0,0-2-.62A2.87,2.87,0,0,0,89,53a6.51,6.51,0,0,0-.88,3.71v1a6.25,6.25,0,0,0,1,3.77,3.26,3.26,0,0,0,2.78,1.27A3.57,3.57,0,0,0,94.48,62V59.27h-3v-2.4h6.16Z"/><path class="cls-26" d="M106.13,61.92a1,1,0,0,0-.57-.91,6.67,6.67,0,0,0-1.8-.59q-4.19-.89-4.19-3.58a3.24,3.24,0,0,1,1.29-2.62,5.21,5.21,0,0,1,3.39-1,5.66,5.66,0,0,1,3.58,1.06A3.28,3.28,0,0,1,109.17,57H106a1.5,1.5,0,0,0-.43-1.15,2,2,0,0,0-2.52,0,1.13,1.13,0,0,0-.43.92.94.94,0,0,0,.43.87,5.17,5.17,0,0,0,1.66.56,13.28,13.28,0,0,1,2,.52,3.24,3.24,0,0,1,2.49,3.15,3,3,0,0,1-1.37,2.6,6,6,0,0,1-3.59,1,6.36,6.36,0,0,1-2.6-.65,4.43,4.43,0,0,1-1.79-1.45,3.31,3.31,0,0,1-.64-2h3a1.62,1.62,0,0,0,.63,1.29,2.43,2.43,0,0,0,1.54.45,2.32,2.32,0,0,0,1.36-.34A1.06,1.06,0,0,0,106.13,61.92Z"/><path class="cls-26" d="M49.65,34.76H46.43v9H45.12v-9H41.91V33.69h7.74Z"/><path class="cls-26" d="M56.1,41.09H51.89l-1,2.61H49.6l3.83-10H54.6l3.83,10H57.05ZM52.3,40h3.41l-1.79-4.69Z"/><path class="cls-26" d="M61.55,43.7H60.22v-10h1.33Z"/><path class="cls-26" d="M66.51,40.55l.2,1.32L67,40.69l2-7h1.08l1.93,7,.27,1.22.31-1.34,1.56-6.86h1.32L73,43.7H71.74l-2.06-7.31-.16-.77-.16.77L67.21,43.7H66l-2.4-10H65Z"/><path class="cls-26" d="M82.44,41.09H78.25l-1,2.61H75.94l3.81-10h1.17l3.83,10H83.34ZM78.64,40h3.41l-1.79-4.69Z"/><path class="cls-26" d="M93.87,43.7H92.53l-5-7.72V43.7H86.17v-10h1.32l5.06,7.81V33.69h1.31v10Z"/></g></g></svg>