<svg xmlns="http://www.w3.org/2000/svg" xmlns:xlink="http://www.w3.org/1999/xlink" width="252" height="321" viewBox="0 0 252 321">
  <defs>
    <style>
      .cls-1, .cls-10 {
        fill: #fff;
      }

      .cls-1 {
        stroke: #707070;
      }

      .cls-2, .cls-7 {
        fill: none;
      }

      .cls-3 {
        clip-path: url(#clip-path);
      }

      .cls-4 {
        fill: #8cb9c9;
      }

      .cls-4, .cls-8 {
        fill-rule: evenodd;
      }

      .cls-5, .cls-9 {
        fill: #ffa845;
      }

      .cls-6 {
        clip-path: url(#clip-path-2);
      }

      .cls-7 {
        stroke: #fff;
        stroke-miterlimit: 22.926;
        stroke-width: 14.4px;
        opacity: 0.5;
      }

      .cls-8 {
        fill: #fa8b37;
      }

      .cls-9 {
        font-size: 34.002px;
        font-family: Poppins-Black, Poppins;
        font-weight: 800;
      }

      .cls-11 {
        fill: #003a2c;
        font-size: 21px;
        font-family: GenSenMaruGothicTW-Bold-TTF, GenSenMaruGothic TW TTF;
      }
    </style>
    <clipPath id="clip-path">
      <rect id="矩形_3002" data-name="矩形 3002" class="cls-1" width="252" height="321" transform="translate(-69.1 16.833)"/>
    </clipPath>
    <clipPath id="clip-path-2">
      <circle id="椭圆_78" data-name="椭圆 78" class="cls-2" cx="100.987" cy="100.987" r="100.987" transform="translate(181.6 156.106) rotate(105)"/>
    </clipPath>
  </defs>
  <g id="m_01_btn" transform="translate(190.1 -8.833)">
    <g id="蒙版组_32" data-name="蒙版组 32" class="cls-3" transform="translate(-121 -8)">
      <path id="路径_25839" data-name="路径 25839" class="cls-4" d="M61.813,80H46.663a1.2,1.2,0,0,0,0,2.4h6.375v29.241a3.993,3.993,0,1,0,2.4,0V82.395h6.374a1.2,1.2,0,1,0,0-2.4Z"/>
      <circle id="椭圆_76" data-name="椭圆 76" class="cls-5" cx="100.987" cy="100.987" r="100.987" transform="translate(-84.899 227.514) rotate(-45)"/>
      <g id="组_3717" data-name="组 3717">
        <g id="组_3716" data-name="组 3716" class="cls-6">
          <g id="组_3715" data-name="组 3715">
            <circle id="椭圆_77" data-name="椭圆 77" class="cls-7" cx="100.987" cy="100.987" r="100.987" transform="translate(-84.899 227.514) rotate(-45)"/>
          </g>
        </g>
      </g>
      <path id="路径_25840" data-name="路径 25840" class="cls-8" d="M-5.572,190.859A73.311,73.311,0,1,1,21.262,291,73.311,73.311,0,0,1-5.572,190.859Z"/>
      <text id="_01" data-name="01" class="cls-9" transform="translate(54.238 42.833)"><tspan x="-18.038" y="0">01</tspan></text>
      <g id="房子co1_2" data-name="房子co1 2">
        <g id="组_3718" data-name="组 3718">
          <path id="路径_6411" data-name="路径 6411" class="cls-10" d="M76.36,197.234v8.125c-.421-.257-.707-.41-.97-.595q-5.841-4.13-11.676-8.269a9.1,9.1,0,0,0-11.068.015q-12.729,8.98-25.475,17.938c-3.312,2.329-3.325,4.887-.019,7.2,1.423,1,2.822,2.022,4.268,2.985a1.526,1.526,0,0,1,.739,1.453c-.023,6.358-.014,12.717-.014,19.074,0,3.556,2.075,5.705,5.689,5.763,3.5.058,7.009.013,10.513.021a1.684,1.684,0,0,1,.8.109c1.873,1.088,3.728,2.208,5.73,3.4a2.065,2.065,0,0,1-.446.147c-5.862-.007-11.727.1-17.583-.076a10.066,10.066,0,0,1-7.945-4.044,7.06,7.06,0,0,1-1.462-4.415c0-6.109-.012-12.22.014-18.33a1.519,1.519,0,0,0-.751-1.442c-1.288-.861-2.581-1.73-3.787-2.7-4.017-3.232-3.932-8.238.248-11.266,4.722-3.418,9.518-6.731,14.282-10.089q6.2-4.368,12.4-8.727a14.808,14.808,0,0,1,16.695.007c1.648,1.145,3.286,2.307,5.009,3.518,1.026-2.85,3.257-3.374,5.845-3.318,2.23.048,4.468-.038,6.7.035a7.2,7.2,0,0,1,2.512.537,3.531,3.531,0,0,1,2.321,3.563c-.041,3.5.007,7.009-.026,10.514a1.5,1.5,0,0,0,.756,1.441q1.749,1.146,3.425,2.4c2.412,1.8,3.774,4.1,3.14,7.222a7.277,7.277,0,0,1-3.065,4.4c-1.145.85-2.31,1.675-3.5,2.463a1.527,1.527,0,0,0-.757,1.446c.026,5.768.015,11.537.015,17.306,0,4.626-2.216,7.651-6.684,8.954a13.766,13.766,0,0,1-3.65.575c-5.552.06-11.105.027-16.657.024-.2,0-.4-.037-.889-.085,1.468-.881,2.749-1.556,3.928-2.379a6.854,6.854,0,0,1,4.418-1.237c2.942.116,5.9.129,8.836-.013a9.564,9.564,0,0,0,3.7-.991,4.183,4.183,0,0,0,2.306-4.05c-.026-6.606,0-13.213-.024-19.819a1.445,1.445,0,0,1,.71-1.365c1.618-1.092,3.2-2.233,4.8-3.359a4.064,4.064,0,0,0,1.923-2.836,3.686,3.686,0,0,0-1.787-3.55c-1.579-1.148-3.164-2.293-4.8-3.368a1.723,1.723,0,0,1-.853-1.673c.038-3.877-.006-7.754.036-11.631.009-.831-.238-1.053-1.052-1.033C80.96,197.27,78.733,197.234,76.36,197.234Z"/>
          <path id="路径_6412" data-name="路径 6412" class="cls-10" d="M50.108,219.984c-.71,0-1.423-.038-2.128.012-.578.041-.7-.182-.759-.7a6.229,6.229,0,0,0-.479-1.979,2.285,2.285,0,0,0-2.156-1.366,2.161,2.161,0,0,0-2.149,1.352,7.55,7.55,0,0,0-.737,2.677,40.085,40.085,0,0,0,.241,5.65,3.207,3.207,0,0,0,1.112,1.864,2.615,2.615,0,0,0,4.174-1.854c.2-1.151.2-1.162,1.425-1.108,1.305.058,2.61.14,3.914.208.4.02.728.066.664.6-.414,3.4-2.338,6.2-5.557,7.054-6.47,1.728-11.232-1.526-12.294-7.089a14.559,14.559,0,0,1,.98-9.284c1.74-3.6,5.26-5.317,9.5-4.734,4.314.591,6.992,3.363,7.364,7.571.057.646-.142.91-.813.91-.767,0-1.534.058-2.3.091Z"/>
          <path id="路径_6413" data-name="路径 6413" class="cls-10" d="M80.308,228.9l3.55.233c-.036.674-.066,1.247-.1,1.928H76.783a2.12,2.12,0,0,1,.956-2.854,11.7,11.7,0,0,0,2.77-2.354c.353-.432.125-1.341.16-2.033a14.686,14.686,0,0,1-1.577.687c-.728.225-1.481.359-2.439.583.368-2.473,1.671-3.556,3.42-3.489,1.165.045,2.847.712,3.333,1.618C84.845,225.9,82.452,227.2,80.308,228.9Z"/>
          <path id="路径_6414" data-name="路径 6414" class="cls-10" d="M74.383,218.7c-1.046-4.718-4.272-7.2-10.136-7.426-3.8-.148-6.951,2.339-8.337,6.152a13.778,13.778,0,0,0,.033,9.669,8.987,8.987,0,0,0,8.835,5.956,9.329,9.329,0,0,0,9.555-7.531A15.117,15.117,0,0,0,74.383,218.7Zm-6.761,7.109a3.519,3.519,0,0,1-.417,1.162,2.356,2.356,0,0,1-4.132.209,5,5,0,0,1-.709-1.753,14.885,14.885,0,0,1,.091-6.653,4.726,4.726,0,0,1,.9-1.839,2.2,2.2,0,0,1,3.773.347,10.339,10.339,0,0,1,.795,2.843,10.486,10.486,0,0,1,.021,1.9l.142.012C67.935,223.292,67.807,224.554,67.622,225.806Z"/>
          <rect id="矩形_151" data-name="矩形 151" class="cls-10" width="8.363" height="14.784" transform="translate(53.993 233.845)"/>
          <path id="路径_6415" data-name="路径 6415" class="cls-10" d="M45.2,244.433l25.545-1.142L58.216,254.623Z"/>
        </g>
      </g>
      <text id="去碳能源工作圈" class="cls-11" transform="translate(-19.912 51.249)"><tspan x="0" y="18">去碳能源工作圈</tspan></text>
    </g>
  </g>
</svg>
