<svg xmlns="http://www.w3.org/2000/svg" xmlns:xlink="http://www.w3.org/1999/xlink" width="237" height="323.97" viewBox="0 0 237 323.97">
  <defs>
    <style>
      .cls-1, .cls-4, .cls-6, .cls-9 {
        fill: none;
      }

      .cls-2 {
        fill: #3eb9e6;
      }

      .cls-3 {
        clip-path: url(#clip-path);
      }

      .cls-4, .cls-9 {
        stroke: #fff;
      }

      .cls-4 {
        stroke-miterlimit: 22.926;
        stroke-width: 14.4px;
        opacity: 0.5;
      }

      .cls-5 {
        fill: #1ca4d6;
      }

      .cls-6 {
        stroke: #8cb9c9;
        stroke-linecap: round;
        stroke-linejoin: round;
        stroke-width: 2.4px;
      }

      .cls-7 {
        fill: #8cb9c9;
        fill-rule: evenodd;
      }

      .cls-8 {
        fill: #003a2c;
        font-size: 21px;
        font-family: GenSenMaruGothicTW-Bold-TTF, GenSenMaruGothic TW TTF;
      }

      .cls-9 {
        stroke-miterlimit: 10;
        stroke-width: 4px;
      }

      .cls-10 {
        fill: #fff;
      }
    </style>
    <clipPath id="clip-path">
      <circle id="椭圆_74" data-name="椭圆 74" class="cls-1" cx="100.987" cy="100.987" r="100.987" transform="translate(175.086 140.495) rotate(-5.886)"/>
    </clipPath>
  </defs>
  <g id="m_02_btn" transform="translate(-172.624 -17.434)">
    <circle id="椭圆_72" data-name="椭圆 72" class="cls-2" cx="100.987" cy="100.987" r="100.987" transform="translate(175.086 140.495) rotate(-5.886)"/>
    <g id="组_3712" data-name="组 3712">
      <g id="组_3711" data-name="组 3711" class="cls-3">
        <g id="组_3710" data-name="组 3710">
          <circle id="椭圆_73" data-name="椭圆 73" class="cls-4" cx="100.987" cy="100.987" r="100.987" transform="translate(154.307 286.095) rotate(-67.869)"/>
        </g>
      </g>
    </g>
    <circle id="椭圆_75" data-name="椭圆 75" class="cls-5" cx="73.311" cy="73.311" r="73.311" transform="translate(182.779 241.338) rotate(-50.949)"/>
    <g id="组_3713" data-name="组 3713">
      <path id="路径_25833" data-name="路径 25833" class="cls-2" d="M276.138,17.434c7.173,0,10.2,5.167,10.2,12.612,0,7.48-3.026,12.647-10.2,12.647-7.207,0-10.2-5.167-10.2-12.647C265.939,22.6,268.931,17.434,276.138,17.434Zm0,7.139c-2.481,0-2.788,2.38-2.788,5.473,0,3.128.307,5.508,2.788,5.508,2.448,0,2.754-2.38,2.754-5.508C278.892,26.953,278.586,24.573,276.138,24.573Z"/>
      <path id="路径_25834" data-name="路径 25834" class="cls-2" d="M288.279,36.812c4.793-3.6,9.859-7.786,9.859-11.355,0-1.088-.511-1.7-1.292-1.7-.816,0-1.5.816-1.36,2.822h-7.309c.237-6.6,4.521-9.145,9.178-9.145,6.188,0,8.4,3.5,8.4,7.445,0,4.93-3.74,9.043-7.683,11.525h7.785v6.085H288.279Z"/>
    </g>
    <line id="直线_26" data-name="直线 26" class="cls-6" y1="34.229" transform="translate(285.898 82.724)"/>
    <line id="直线_27" data-name="直线 27" class="cls-6" x2="15.15" transform="translate(278.323 82.724)"/>
    <path id="路径_25835" data-name="路径 25835" class="cls-7" d="M285.9,120.945a3.993,3.993,0,1,0-3.992-3.993A4,4,0,0,0,285.9,120.945Z"/>
    <text id="產業及能源效率工作圈" class="cls-8" transform="translate(172.624 54.089)"><tspan x="0" y="18">產業及能源效率工作圈</tspan></text>
    <g id="组_3714" data-name="组 3714">
      <path id="路径_25836" data-name="路径 25836" class="cls-9" d="M296.878,213.782a1.833,1.833,0,0,0-1.533-.829H281.1a1.832,1.832,0,0,0-1.777,1.387l-4.07,16.28a1.833,1.833,0,0,0,1.777,2.276h2.657l-1.426,14.266a1.831,1.831,0,0,0,3.287,1.281l15.262-20.35a1.832,1.832,0,0,0-1.465-2.931H292.8l4.219-9.644a1.831,1.831,0,0,0-.145-1.736Zm0,0"/>
      <path id="路径_25837" data-name="路径 25837" class="cls-10" d="M329.369,223.878a2.53,2.53,0,0,0-3.57.238l-1.6,1.834A37.958,37.958,0,0,0,251.28,214.7a2.531,2.531,0,0,0,4.679,1.929,32.9,32.9,0,0,1,63.115,8.944l-1.274-1.455a2.53,2.53,0,0,0-3.808,3.332l5.9,6.747a2.531,2.531,0,0,0,3.809,0l5.9-6.747a2.529,2.529,0,0,0-.238-3.57Zm0,0"/>
      <path id="路径_25838" data-name="路径 25838" class="cls-10" d="M320.1,240.31a2.531,2.531,0,0,0-3.3,1.375,32.9,32.9,0,0,1-63.115-8.945l1.273,1.455a2.53,2.53,0,1,0,3.808-3.332l-5.9-6.747a2.532,2.532,0,0,0-3.808,0l-5.9,6.747a2.53,2.53,0,1,0,3.809,3.332l1.6-1.834a37.958,37.958,0,0,0,72.914,11.253,2.531,2.531,0,0,0-1.374-3.3Zm0,0"/>
    </g>
  </g>
</svg>
