<svg xmlns="http://www.w3.org/2000/svg" xmlns:xlink="http://www.w3.org/1999/xlink" width="253" height="312.418" viewBox="0 0 253 312.418">
  <defs>
    <style>
      .cls-1, .cls-10, .cls-4, .cls-6 {
        fill: none;
      }

      .cls-2 {
        fill: #f76897;
      }

      .cls-3 {
        clip-path: url(#clip-path);
      }

      .cls-10, .cls-4 {
        stroke: #fff;
      }

      .cls-4 {
        stroke-miterlimit: 22.926;
        stroke-width: 14.4px;
        opacity: 0.5;
      }

      .cls-5 {
        fill: #e64077;
      }

      .cls-6 {
        stroke: #8cb9c9;
        stroke-linecap: round;
        stroke-linejoin: round;
        stroke-width: 2.4px;
      }

      .cls-7 {
        fill: #8cb9c9;
      }

      .cls-8 {
        fill: #003a2c;
        font-size: 21px;
        font-family: GenSenMaruGothicTW-Bold-TTF, GenSenMaruGothic TW TTF;
      }

      .cls-9 {
        fill: #fff;
      }

      .cls-10 {
        stroke-miterlimit: 10;
        stroke-width: 3px;
      }
    </style>
    <clipPath id="clip-path">
      <circle id="椭圆_69" data-name="椭圆 69" class="cls-1" cx="100.987" cy="100.987" r="100.987" transform="translate(-63.141 674.117) rotate(-89.702)"/>
    </clipPath>
  </defs>
  <g id="m_03_btn" transform="translate(88.1 -362.751)">
    <circle id="椭圆_67" data-name="椭圆 67" class="cls-2" cx="100.987" cy="100.987" r="100.987" transform="translate(-63.141 674.117) rotate(-89.702)"/>
    <g id="组_3707" data-name="组 3707">
      <g id="组_3706" data-name="组 3706" class="cls-3">
        <g id="组_3705" data-name="组 3705">
          <circle id="椭圆_68" data-name="椭圆 68" class="cls-4" cx="100.987" cy="100.987" r="100.987" transform="translate(-99.759 609.945) rotate(-59.72)"/>
        </g>
      </g>
    </g>
    <circle id="椭圆_70" data-name="椭圆 70" class="cls-5" cx="73.31" cy="73.31" r="73.31" transform="translate(-61.136 602.766) rotate(-61.306)"/>
    <g id="组_3708" data-name="组 3708">
      <path id="路径_25828" data-name="路径 25828" class="cls-2" d="M28.289,362.751c7.173,0,10.2,5.167,10.2,12.612,0,7.48-3.026,12.647-10.2,12.647-7.207,0-10.2-5.167-10.2-12.647C18.09,367.918,21.082,362.751,28.289,362.751Zm0,7.139c-2.482,0-2.788,2.38-2.788,5.473,0,3.128.306,5.508,2.788,5.508,2.448,0,2.754-2.38,2.754-5.508C31.043,372.27,30.737,369.89,28.289,369.89Z"/>
      <path id="路径_25829" data-name="路径 25829" class="cls-2" d="M49.778,362.751c5.508,0,8.432,3.059,8.432,6.935a5.434,5.434,0,0,1-3.638,5.542v.135a5.662,5.662,0,0,1,4.079,5.678c0,4.385-3.161,7.343-8.4,7.343-5.577,0-9.418-2.448-9.52-8.7h7.344c-.1,1.6.407,2.482,1.835,2.482a1.485,1.485,0,0,0,1.428-1.666c0-1.224-.68-1.938-2.753-1.938H47.331v-6.085h1.223c.613.034,2.312.068,2.312-1.836,0-1.224-.611-1.666-1.258-1.666-1.088,0-1.258,1.122-1.258,2.108H41.007C41.143,365.674,44.237,362.751,49.778,362.751Z"/>
    </g>
    <line id="直线_24" data-name="直线 24" class="cls-6" y1="34.229" transform="translate(38.371 425.789)"/>
    <line id="直线_25" data-name="直线 25" class="cls-6" x2="15.149" transform="translate(30.796 425.789)"/>
    <circle id="椭圆_71" data-name="椭圆 71" class="cls-7" cx="3.992" cy="3.992" r="3.992" transform="translate(34.378 456.025)"/>
    <text id="綠運輸及運具電氣化工作圈" class="cls-8" transform="translate(-88.1 398.424)"><tspan x="0" y="18">綠運輸及運具電氣化工作圈</tspan></text>
    <g id="组_3709" data-name="组 3709">
      <path id="路径_25830" data-name="路径 25830" class="cls-9" d="M83.161,567.676c-.05-4.809.106-8.315-.063-10.1-2.1-8.425-3.553-14.122-5.6-16.227-2.442-2.8-5.646-2.665-10.955-2.441-3.026.127-6.791.285-11.863.055v0H43.7a2.1,2.1,0,0,0-2.095,2.1v27.331H25.817A17.735,17.735,0,0,0,9.632,566.4a17.735,17.735,0,0,0-16.185,1.986h-5.691a2.1,2.1,0,0,0-1.495.627,2.1,2.1,0,0,0-.6,1.507c.021,1.167,0,2.306-.024,3.408-.41,7.718,1.1,12.75,9.825,12.661,1.4,5.991,9.628,8.435,14.155,3.347a8.333,8.333,0,0,0,14.23-3.422h25.8c1.954,7.993,13.754,8.43,16.032-.075,2.031.023,4.287.218,6.391.212,5.6.139,11.034-1.73,11.088-8.006,0-1.124,0-6.074,0-10.97ZM66.718,543.095c4.831-.2,6.556-.211,7.621,1.01,1.32,1.512,2.337,5.2,3.99,11.706l-18.947-1.253L57.118,543.24c3.994.091,7.167-.042,9.6-.145Zm-13.89.055,2.259,11.3H45.8v-11.3ZM45.8,558.637h9.749v9.749H45.8ZM3.477,588.52a4.1,4.1,0,1,1,0-8.2A4.1,4.1,0,0,1,3.477,588.52Zm12.39,0a4.1,4.1,0,1,1,0-8.2A4.1,4.1,0,0,1,15.867,588.52Zm33.783-6.2h-25.8A8.333,8.333,0,0,0,9.618,578.9c-4.6-5.15-12.89-2.577-14.193,3.5-2.186.015-3.686-.35-4.468-1.089-1.466-1.209-1.146-5.682-1.1-8.739h4.291a2.094,2.094,0,0,0,1.3-.45,13.457,13.457,0,0,1,13.313-1.55,2.1,2.1,0,0,0,1.76,0,13.455,13.455,0,0,1,13.312,1.55,2.1,2.1,0,0,0,1.3.45H55.548v3.842a8.023,8.023,0,0,0-5.9,5.907Zm8.033,6.2a4.1,4.1,0,1,1,0-8.2A4.1,4.1,0,0,1,57.683,588.52ZM78.972,578.6a3.18,3.18,0,0,1-.9,2.5c-2.325,2.113-8.663,1.147-12.425,1.158a8.321,8.321,0,0,0-5.906-5.852V558.78l19.236,1.272C78.974,563.976,78.967,576.415,78.972,578.6Z"/>
      <path id="路径_25831" data-name="路径 25831" class="cls-9" d="M78.971,573.033h-4.1a2.094,2.094,0,1,0,0,4.189h4.1C78.97,576.181,78.97,574.709,78.971,573.033Z"/>
    </g>
    <path id="路径_25832" data-name="路径 25832" class="cls-10" d="M29.857,530.347a1.662,1.662,0,0,0-1.39-.751H15.552a1.658,1.658,0,0,0-1.61,1.258l-3.69,14.759a1.66,1.66,0,0,0,1.61,2.063h2.409L12.978,560.61a1.66,1.66,0,0,0,2.98,1.162L29.8,543.322a1.661,1.661,0,0,0-1.328-2.657h-2.3l3.825-8.743a1.662,1.662,0,0,0-.131-1.575Zm0,0"/>
  </g>
</svg>
