<svg xmlns="http://www.w3.org/2000/svg" xmlns:xlink="http://www.w3.org/1999/xlink" width="242.649" height="333.112" viewBox="0 0 242.649 333.112">
  <defs>
    <style>
      .cls-1, .cls-4 {
        fill: none;
      }

      .cls-2 {
        fill: #d661b5;
      }

      .cls-3 {
        clip-path: url(#clip-path);
      }

      .cls-4 {
        stroke: #fff;
        stroke-miterlimit: 22.926;
        stroke-width: 14.4px;
        opacity: 0.5;
      }

      .cls-5 {
        fill: #bf4a9e;
      }

      .cls-6 {
        fill: #8cb9c9;
      }

      .cls-6, .cls-8 {
        fill-rule: evenodd;
      }

      .cls-7 {
        fill: #003a2c;
        font-size: 21px;
        font-family: GenSenMaruGothicTW-Bold-TTF, GenSenMaruGothic TW TTF;
      }

      .cls-8, .cls-9 {
        fill: #fff;
      }
    </style>
    <clipPath id="clip-path">
      <circle id="椭圆_65" data-name="椭圆 65" class="cls-1" cx="100.987" cy="100.987" r="100.987" transform="translate(169.367 649.435) rotate(-76.842)"/>
    </clipPath>
  </defs>
  <g id="m_04_btn" transform="translate(-169.367 -362.302)">
    <circle id="椭圆_63" data-name="椭圆 63" class="cls-2" cx="100.987" cy="100.987" r="100.987" transform="translate(169.367 649.435) rotate(-76.842)"/>
    <g id="组_3702" data-name="组 3702">
      <g id="组_3701" data-name="组 3701" class="cls-3">
        <g id="组_3700" data-name="组 3700">
          <circle id="椭圆_64" data-name="椭圆 64" class="cls-4" cx="100.987" cy="100.987" r="100.987" transform="translate(158.486 628.109) rotate(-67.225)"/>
        </g>
      </g>
    </g>
    <circle id="椭圆_66" data-name="椭圆 66" class="cls-5" cx="73.311" cy="73.311" r="73.311" transform="translate(192.845 608.367) rotate(-64.307)"/>
    <g id="组_3703" data-name="组 3703">
      <path id="路径_25815" data-name="路径 25815" class="cls-2" d="M278.962,362.3c7.172,0,10.2,5.168,10.2,12.613,0,7.48-3.027,12.647-10.2,12.647-7.207,0-10.2-5.167-10.2-12.647C268.762,367.47,271.755,362.3,278.962,362.3Zm0,7.14c-2.483,0-2.789,2.379-2.789,5.473,0,3.128.306,5.508,2.789,5.508,2.447,0,2.753-2.38,2.753-5.508C281.715,371.821,281.409,369.442,278.962,369.442Z"/>
      <path id="路径_25816" data-name="路径 25816" class="cls-2" d="M302.558,383.958H291.917v-6.289l10.13-14.449h8.126v14.211h2.448v6.527h-2.448v3.74h-7.615Zm.612-6.527v-5.61l-3.672,5.61Z"/>
    </g>
    <path id="路径_25817" data-name="路径 25817" class="cls-6" d="M298.266,425.021H283.117a1.2,1.2,0,1,0,0,2.4h6.375v29.241a3.994,3.994,0,1,0,2.4,0V427.42h6.374a1.2,1.2,0,1,0,0-2.4Z"/>
    <text id="負碳技術工作圈" class="cls-7" transform="translate(213.245 396.585)"><tspan x="0" y="18">負碳技術工作圈</tspan></text>
    <g id="组_3704" data-name="组 3704">
      <path id="路径_25818" data-name="路径 25818" class="cls-8" d="M291.228,585.405a19.445,19.445,0,0,1,.734-2.665h-33.55a11.988,11.988,0,0,1-11.974-11.975v-3.273a11.988,11.988,0,0,1,11.974-11.974,11.851,11.851,0,0,1,4.91,1.053,2.555,2.555,0,0,0,3.615-2.323v-3.521a11.985,11.985,0,0,1,.593-3.734,1.332,1.332,0,0,0-2.531-.83,14.611,14.611,0,0,0-.726,4.564v3.35a14.507,14.507,0,0,0-5.861-1.224,14.657,14.657,0,0,0-14.639,14.639v3.273a14.657,14.657,0,0,0,14.639,14.64Z"/>
      <path id="路径_25819" data-name="路径 25819" class="cls-9" d="M278.938,551.58c4.008,0,6.2,2.515,6.2,4.007a1.427,1.427,0,0,1-1.577,1.578c-2.025,0-1.428-2.772-4.626-2.772-2.2,0-4.007,1.9-4.007,5.223,0,2.792,1.108,5.222,4.135,5.222,2.751,0,2.686-2.941,4.369-2.941a1.535,1.535,0,0,1,1.706,1.343c0,2.217-2.686,4.412-6.075,4.412-4.8,0-7.631-2.75-7.631-8.037C271.435,555.289,273.993,551.58,278.938,551.58Z"/>
      <path id="路径_25820" data-name="路径 25820" class="cls-9" d="M294.393,551.58c5.03,0,7.758,3.347,7.758,7.844,0,4.328-2.515,8.228-7.758,8.228-5.5,0-7.76-3.581-7.76-8.228C286.633,554.927,289.362,551.58,294.393,551.58Zm0,13.258c3.176,0,4.262-2.472,4.262-5.414s-1.406-5.031-4.262-5.031-4.263,2.089-4.263,5.031S291.109,564.838,294.393,564.838Z"/>
      <path id="路径_25821" data-name="路径 25821" class="cls-9" d="M309.893,566.905a1.141,1.141,0,1,1,0,2.281h-5.535a1.113,1.113,0,0,1-1.153-1.127c0-.841.2-1.276,2.7-3.012l1.289-.9c.664-.461.909-.841.909-1.4a1.063,1.063,0,0,0-1.18-1.1c-1.547,0-.746,1.885-2.28,1.885a1.173,1.173,0,0,1-1.329-1.316c0-1.3,1.275-2.686,3.691-2.686,2.889,0,3.893,1.574,3.893,3.079a3.09,3.09,0,0,1-1.777,2.713l-2.456,1.547v.027Z"/>
      <path id="路径_25822" data-name="路径 25822" class="cls-9" d="M318.967,535.636a4.374,4.374,0,1,1,4.373-4.373A4.378,4.378,0,0,1,318.967,535.636Zm0-6.083a1.709,1.709,0,1,0,1.709,1.71A1.711,1.711,0,0,0,318.967,529.553Z"/>
      <path id="路径_25823" data-name="路径 25823" class="cls-9" d="M262.219,600a3.361,3.361,0,1,1,3.36-3.36A3.363,3.363,0,0,1,262.219,600Zm0-4.056a.7.7,0,1,0,.7.7A.7.7,0,0,0,262.219,595.942Z"/>
      <path id="路径_25824" data-name="路径 25824" class="cls-9" d="M274.431,597.136a5.189,5.189,0,1,1,5.189-5.189A5.2,5.2,0,0,1,274.431,597.136Zm0-7.713a2.524,2.524,0,1,0,2.524,2.524A2.527,2.527,0,0,0,274.431,589.423Z"/>
      <path id="路径_25825" data-name="路径 25825" class="cls-8" d="M327.577,579.955a11.967,11.967,0,0,0,4.307-9.191v-7.775A11.978,11.978,0,0,0,315,552.066a2.555,2.555,0,0,1-3.615-2.323v-3.876a11.974,11.974,0,0,0-22.324-6.02,2.524,2.524,0,0,1-1.616,1.2,2.574,2.574,0,0,1-2-.352,11.977,11.977,0,0,0-14.854,1.418,1.332,1.332,0,1,1-1.85-1.916,14.639,14.639,0,0,1,18.073-1.789,14.638,14.638,0,0,1,27.233,7.461v3.706a14.638,14.638,0,0,1,20.5,13.416v7.775a14.625,14.625,0,0,1-5.836,11.69A19.426,19.426,0,0,0,327.577,579.955Z"/>
      <path id="路径_25826" data-name="路径 25826" class="cls-8" d="M310.389,604.4a15.139,15.139,0,1,0-15.139-15.139A15.14,15.14,0,0,0,310.389,604.4Zm0,2.269a17.409,17.409,0,1,0-17.408-17.408A17.408,17.408,0,0,0,310.389,606.666Z"/>
      <path id="路径_25827" data-name="路径 25827" class="cls-9" d="M308.968,576.468v3.044a5.673,5.673,0,0,0,1.421,11.167,2.842,2.842,0,1,1-2.842,2.842H304.7A5.684,5.684,0,0,0,308.968,599v3.045h2.842V599a5.673,5.673,0,0,0-1.421-11.167,2.841,2.841,0,1,1,2.843-2.842h2.842a5.683,5.683,0,0,0-4.264-5.483v-3.044Z"/>
    </g>
  </g>
</svg>
