<svg xmlns="http://www.w3.org/2000/svg" xmlns:xlink="http://www.w3.org/1999/xlink" width="256.941" height="335.936" viewBox="0 0 256.941 335.936">
  <defs>
    <style>
      .cls-1, .cls-5 {
        fill: none;
      }

      .cls-2 {
        fill: #8cb9c9;
      }

      .cls-2, .cls-6, .cls-7 {
        fill-rule: evenodd;
      }

      .cls-3 {
        fill: #21d8de;
      }

      .cls-4 {
        clip-path: url(#clip-path);
      }

      .cls-5 {
        stroke: #fff;
        stroke-linecap: round;
        stroke-linejoin: round;
        stroke-width: 14.4px;
        opacity: 0.5;
      }

      .cls-6 {
        fill: #00b7bd;
      }

      .cls-7 {
        fill: #fff;
      }

      .cls-8 {
        fill: #003a2c;
        font-size: 21px;
        font-family: GenSenMaruGothicTW-Bold-TTF, GenSenMaruGothic TW TTF;
      }
    </style>
    <clipPath id="clip-path">
      <circle id="椭圆_62" data-name="椭圆 62" class="cls-1" cx="100.986" cy="100.986" r="100.986" transform="translate(24.779 837.939) rotate(-19.099)"/>
    </clipPath>
  </defs>
  <g id="m_05_btn" transform="translate(-24.779 -692.858)">
    <path id="路径_25802" data-name="路径 25802" class="cls-2" d="M160.824,751.831H145.675a1.2,1.2,0,1,0,0,2.4h6.375v29.241a3.992,3.992,0,1,0,2.4,0V754.23h6.374a1.2,1.2,0,1,0,0-2.4Z"/>
    <circle id="椭圆_60" data-name="椭圆 60" class="cls-3" cx="100.986" cy="100.986" r="100.986" transform="translate(24.779 837.939) rotate(-19.099)"/>
    <g id="组_3697" data-name="组 3697">
      <g id="组_3696" data-name="组 3696" class="cls-4">
        <g id="组_3695" data-name="组 3695">
          <circle id="椭圆_61" data-name="椭圆 61" class="cls-5" cx="100.987" cy="100.987" r="100.987" transform="translate(10.433 900.323) rotate(-45)"/>
        </g>
      </g>
    </g>
    <path id="路径_25803" data-name="路径 25803" class="cls-6" d="M89.761,863.668A73.31,73.31,0,1,1,116.6,963.812,73.31,73.31,0,0,1,89.761,863.668Z"/>
    <g id="组_3698" data-name="组 3698">
      <path id="路径_25804" data-name="路径 25804" class="cls-3" d="M142.217,692.858c7.172,0,10.2,5.167,10.2,12.612,0,7.48-3.027,12.647-10.2,12.647-7.208,0-10.2-5.167-10.2-12.647C132.017,698.025,135.009,692.858,142.217,692.858Zm0,7.138c-2.483,0-2.789,2.38-2.789,5.474,0,3.128.306,5.508,2.789,5.508,2.447,0,2.753-2.38,2.753-5.508C144.97,702.376,144.664,700,142.217,700Z"/>
      <path id="路径_25805" data-name="路径 25805" class="cls-3" d="M173.258,693.4v6.629H163.4v2.855a5.959,5.959,0,0,1,4.012-1.258c4.827,0,7.071,3.775,7.071,8.024,0,5.473-3.264,8.6-8.6,8.6-5.984,0-9.417-3.332-9.315-7.955h7.343a1.455,1.455,0,0,0,1.6,1.5c1.19,0,1.666-.951,1.666-2.277,0-1.36-.68-2.006-1.768-2.006-1.021,0-1.462.578-1.462,1.122H156.6V693.4Z"/>
    </g>
    <g id="组_3699" data-name="组 3699">
      <path id="路径_25806" data-name="路径 25806" class="cls-7" d="M151.948,869.669a1.889,1.889,0,0,0,1.889-1.888v-2.519a1.889,1.889,0,1,0-3.778,0v2.519A1.889,1.889,0,0,0,151.948,869.669Z"/>
      <path id="路径_25807" data-name="路径 25807" class="cls-7" d="M167.759,872.5a1.888,1.888,0,0,0-2.58-.691L163,873.07a1.889,1.889,0,1,0,1.889,3.271l2.181-1.259A1.889,1.889,0,0,0,167.759,872.5Z"/>
      <path id="路径_25808" data-name="路径 25808" class="cls-7" d="M161.077,865.82a1.887,1.887,0,0,0-2.58.691l-1.259,2.181a1.889,1.889,0,0,0,3.271,1.889l1.259-2.181A1.89,1.89,0,0,0,161.077,865.82Z"/>
      <path id="路径_25809" data-name="路径 25809" class="cls-7" d="M145.967,871.272a1.888,1.888,0,0,0,.691-2.58l-1.259-2.181a1.889,1.889,0,0,0-3.271,1.889l1.26,2.181A1.889,1.889,0,0,0,145.967,871.272Z"/>
      <path id="路径_25810" data-name="路径 25810" class="cls-7" d="M140.9,873.07l-2.181-1.259a1.889,1.889,0,0,0-1.889,3.271l2.181,1.259a1.889,1.889,0,1,0,1.889-3.271Z"/>
      <path id="路径_25811" data-name="路径 25811" class="cls-7" d="M151.948,872.187a9.435,9.435,0,0,0-7.907,14.6,8.964,8.964,0,0,1,1.611,4.919v5.037a4.413,4.413,0,0,0,4.407,4.407h3.778a4.412,4.412,0,0,0,4.406-4.407V891.7a8.966,8.966,0,0,1,1.612-4.919,9.437,9.437,0,0,0-7.907-14.6Zm2.518,24.553a.63.63,0,0,1-.629.629h-3.778a.631.631,0,0,1-.629-.629v-3.148h5.036v3.148Zm2.228-12.024a13.519,13.519,0,0,0-2.063,5.1h-5.367a13.514,13.514,0,0,0-2.063-5.1,5.666,5.666,0,1,1,9.493,0Z"/>
      <path id="路径_25812" data-name="路径 25812" class="cls-7" d="M133.865,915.251a5.633,5.633,0,0,0,.959-3.15v-2.518a5.666,5.666,0,1,0-11.332,0V912.1a5.626,5.626,0,0,0,.96,3.15,9.449,9.449,0,0,0-4.737,8.182v2.518a1.889,1.889,0,0,0,1.888,1.889h15.11a1.889,1.889,0,0,0,1.888-1.889v-2.518a9.45,9.45,0,0,0-4.736-8.182Zm-6.6-5.668a1.889,1.889,0,1,1,3.777,0V912.1a1.889,1.889,0,1,1-3.777,0v-2.518Zm7.554,14.48H123.492v-.63a5.666,5.666,0,0,1,11.332,0Z"/>
      <path id="路径_25813" data-name="路径 25813" class="cls-7" d="M156.654,915.251a5.626,5.626,0,0,0,.96-3.15v-2.518a5.666,5.666,0,1,0-11.332,0V912.1a5.626,5.626,0,0,0,.96,3.15,9.447,9.447,0,0,0-4.738,8.182v2.518a1.889,1.889,0,0,0,1.889,1.889H159.5a1.889,1.889,0,0,0,1.889-1.889v-2.518a9.449,9.449,0,0,0-4.737-8.182Zm-6.6-5.668a1.889,1.889,0,1,1,3.778,0V912.1a1.889,1.889,0,0,1-3.778,0v-2.518Zm7.555,14.48H146.282v-.63a5.666,5.666,0,0,1,11.332,0Z"/>
      <path id="路径_25814" data-name="路径 25814" class="cls-7" d="M179.444,915.251a5.626,5.626,0,0,0,.96-3.15v-2.518a5.666,5.666,0,1,0-11.332,0V912.1a5.633,5.633,0,0,0,.959,3.15,9.449,9.449,0,0,0-4.737,8.182v2.518a1.889,1.889,0,0,0,1.889,1.889h15.109a1.889,1.889,0,0,0,1.889-1.889v-2.518a9.449,9.449,0,0,0-4.737-8.182Zm-6.6-5.668a1.889,1.889,0,1,1,3.778,0V912.1a1.889,1.889,0,0,1-3.778,0v-2.518Zm7.555,14.48H169.072v-.63a5.666,5.666,0,0,1,11.332,0Z"/>
    </g>
    <text id="治理工作圈" class="cls-8" transform="translate(100.75 743.885)"><tspan x="0" y="0">治理工作圈</tspan></text>
  </g>
</svg>
