<svg xmlns="http://www.w3.org/2000/svg" width="87" height="61.977" viewBox="0 0 87 61.977">
  <g id="sex_ico" transform="translate(-58.776 -124.029)">
    <path id="路径_17034" data-name="路径 17034" d="M189.787,143a.932.932,0,0,0-.933.933v5.108a.932.932,0,0,0,.933.933h7.345l-3.934,3.934-5.115,5.115a20.767,20.767,0,0,0-26.65,2.254h0a20.767,20.767,0,0,0-1.347,27.841c.421.511.869,1.008,1.347,1.486a20.76,20.76,0,0,0,29.973-.675c.242-.264.474-.536.7-.811a20.739,20.739,0,0,0,4.2-8.5,20.49,20.49,0,0,0,.495-3.425,20.982,20.982,0,0,0-.383-5.419,20.529,20.529,0,0,0-3.4-7.821l.68-.68,8.367-8.367v7.345a.932.932,0,0,0,.932.933H208.1a.933.933,0,0,0,.933-.933V143Zm-3.959,23.208a13.759,13.759,0,0,1-5.769,22.91,13.86,13.86,0,0,1-7.927,0,13.735,13.735,0,0,1-8.979-8.5,13.85,13.85,0,0,1-.17-8.844,13.669,13.669,0,0,1,3.379-5.565h0a13.685,13.685,0,0,1,4.362-2.936,13.835,13.835,0,0,1,10.742,0A13.683,13.683,0,0,1,185.828,166.206Z" transform="translate(-63.261 -11.245)" fill="#109a8a"/>
    <path id="路径_17035" data-name="路径 17035" d="M100.389,143.486a20.824,20.824,0,0,0-41.563,0c-.03.455-.05.913-.05,1.375a20.7,20.7,0,0,0,1.687,8.2,20.948,20.948,0,0,0,7.209,8.853,22.786,22.786,0,0,0,8.407,3.411v7.082H70.256a.851.851,0,0,0-.851.851V177.9a.851.851,0,0,0,.851.851h5.823v6.4a.851.851,0,0,0,.851.851h5.3a.852.852,0,0,0,.851-.851v-6.4h5.822a.851.851,0,0,0,.851-.851v-4.638a.851.851,0,0,0-.851-.851H83.087v-7.082a23.013,23.013,0,0,0,8.457-3.411,20.948,20.948,0,0,0,7.209-8.853,20.7,20.7,0,0,0,1.687-8.2C100.44,144.4,100.419,143.941,100.389,143.486Zm-20.781,15.1a13.763,13.763,0,0,1-13.74-13.74,13.71,13.71,0,0,1,13.74-13.74,13.74,13.74,0,0,1,0,27.48Z" transform="translate(0 0)" fill="#109a8a"/>
  </g>
</svg>
