<svg xmlns="http://www.w3.org/2000/svg" xmlns:xlink="http://www.w3.org/1999/xlink" viewBox="0 0 844.5 299.4"><defs><clipPath id="a" transform="translate(0 7.2)"><path d="M422.25,0C601.22,0,752,120.62,797.77,285h-751C92.51,120.62,243.28,0,422.25,0Z" fill="none" clip-rule="evenodd"/></clipPath></defs><path d="M422.25,279.78c233,0,422,2.34,422,5.22s-188.92,5.23-422,5.23S.28,287.89.28,285,189.2,279.78,422.25,279.78Z" transform="translate(0 7.2)" stroke="#2a5869" stroke-miterlimit="22.93" stroke-width="0.57" fill-rule="evenodd" opacity="0.15"/><path d="M422.25,0C601.22,0,752,120.62,797.77,285h-751C92.51,120.62,243.28,0,422.25,0Z" transform="translate(0 7.2)" fill="#ebf2f4" fill-rule="evenodd"/><g clip-path="url(#a)"><path d="M46.74,285C92.51,120.62,243.28,0,422.25,0S752,120.62,797.77,285" transform="translate(0 7.2)" fill="none" stroke="#fff" stroke-linecap="round" stroke-linejoin="round" stroke-width="14.4" fill-rule="evenodd"/></g><path d="M315.11,211a41.19,41.19,0,0,0-5.16-3.12c-1.07-.51-1.24-1.3-.52-2.37a1.56,1.56,0,0,1,2.13-.52,29.44,29.44,0,0,1,5.92,3.31,1.52,1.52,0,0,1,.14,2.23C316.9,211.66,316.06,211.82,315.11,211Zm-1.65,14.39c.44-.82,1-2,1.79-3.69s1.2-2.61,1.33-2.89q.75-1.76,2.37-.57a1.71,1.71,0,0,1,.66,2.18q-2.79,6.44-6,12.59c-.6,1.14-1.47,1.31-2.61.52a1.68,1.68,0,0,1-.66-2.46Q311.94,228.4,313.46,225.42Zm4.07-27a57.88,57.88,0,0,0-5.21-3.4c-1.07-.54-1.21-1.31-.43-2.32a1.57,1.57,0,0,1,2.09-.57,36.69,36.69,0,0,1,6,3.69c.66.6.68,1.34.05,2.23C319.23,199.12,318.41,199.25,317.53,198.39Zm8.52,7.53h19.5a2.69,2.69,0,0,1,2,.78,2.86,2.86,0,0,1,.76,2.06v4.92h2.32a1.38,1.38,0,0,1,1.56,1.56,1.4,1.4,0,0,1-1.56,1.61h-2.32v5.07a2.88,2.88,0,0,1-.76,2.06,2.69,2.69,0,0,1-2,.78h-8.33v6.58a5.08,5.08,0,0,1-.43,2.31,2.58,2.58,0,0,1-1.51,1.19,24.82,24.82,0,0,1-5.45.52c-1.32,0-2.14-.43-2.46-1.28a1.23,1.23,0,0,1,1-1.77,9.82,9.82,0,0,1,1.47-.15,14.28,14.28,0,0,1,1.61.05,5.32,5.32,0,0,0,1.34,0,1.39,1.39,0,0,0,.79-.24.94.94,0,0,0,.21-.71v-6.48h-8.05c-1,0-1.51-.52-1.51-1.57a1.34,1.34,0,0,1,1.51-1.51h8.05v-4.83h-12a1.4,1.4,0,0,1-1.57-1.61,1.38,1.38,0,0,1,1.57-1.56h12V209h-7.76a1.52,1.52,0,1,1,0-3Zm20.39-11.64a116.64,116.64,0,0,1-18.22,3,44.81,44.81,0,0,1-4.21,8.66,1.5,1.5,0,0,1-2.37.47c-.6-.34-.94-.7-1-1.06a2,2,0,0,1,.45-1.4,40,40,0,0,0,3.83-7.86,2.57,2.57,0,0,1,1.28-1.49,2.49,2.49,0,0,1,1.94-.11,98.17,98.17,0,0,0,16.8-3,1.78,1.78,0,0,1,1.8.56,3.18,3.18,0,0,1,.8,1,.62.62,0,0,1-.07.73A2.15,2.15,0,0,1,346.44,194.28Zm-11.64,9.51a33.06,33.06,0,0,0-1.18-3.93,1.36,1.36,0,0,1,1-2.08,1.47,1.47,0,0,1,1.94.95,39.62,39.62,0,0,1,1.47,4.44c.22.86-.18,1.44-1.19,1.76S335,204.93,334.8,203.79Zm9.14,5.16h-6.72v4.73h7.71v-3.74A.88.88,0,0,0,343.94,209Zm-6.72,12.73h6.72a.88.88,0,0,0,1-1v-3.84h-7.71Zm9.22-19.78a29.6,29.6,0,0,0-2.46-3.46q-1.19-1.42.48-2.22a1.55,1.55,0,0,1,2,.42,39.77,39.77,0,0,1,4.88,7.15c.34.79.08,1.44-.81,1.94-1.07.57-1.83.38-2.27-.57C348.16,204.85,347.55,203.76,346.44,201.9Z" transform="translate(0 7.2)" fill="#686868"/><path d="M386.58,219.74H372.14a2,2,0,0,1-1.46-.52,2,2,0,0,1-.52-1.47v-.14a70.22,70.22,0,0,1-10.32,4.21,1.73,1.73,0,0,1-2.18-.75c-.6-1-.19-1.77,1.23-2.18q11-3.31,17-8.71a3.21,3.21,0,0,1,2.37-.81h.28a3.57,3.57,0,0,1,2.41.81q7,5.53,17.94,8.23c1.39.32,1.72,1.09,1,2.32a1.62,1.62,0,0,1-2,.81,56.67,56.67,0,0,1-10.41-3.93v1.23A.8.8,0,0,1,386.58,219.74Zm-23.85-26.69h32.09a1.37,1.37,0,1,1,0,2.74H380.38v2.75h15.81a2.6,2.6,0,0,1,2.79,2.79v4a1.46,1.46,0,0,1-1.66,1.66,1.49,1.49,0,0,1-1.7-1.66V202a.88.88,0,0,0-1-1H380.38v5.73a1.75,1.75,0,0,1-3.5,0V201h-14a.89.89,0,0,0-1,1v3.31a1.42,1.42,0,0,1-1.61,1.61,1.44,1.44,0,0,1-1.65-1.61v-4a2.6,2.6,0,0,1,2.79-2.79h15.48v-2.75H362.73a1.37,1.37,0,1,1,0-2.74Zm.71,29.72H391a2.6,2.6,0,0,1,2.79,2.79v3.88a4.45,4.45,0,0,1-.35,2,2.08,2.08,0,0,1-1.4.94,15.37,15.37,0,0,1-5,.57c-1.23,0-2-.38-2.32-1.13s-.17-1,.26-1.33a3.29,3.29,0,0,1,1.82-.42h2.65c.63,0,.95-.24.95-.71v-3c0-.67-.35-1-1.05-1H377.07v8.28a1.71,1.71,0,1,1-3.41,0v-8.28H363.44c-.86,0-1.28-.44-1.28-1.32A1.13,1.13,0,0,1,363.44,222.77Zm9.93-12h-9.08a1.19,1.19,0,1,1,0-2.37h9.08a1.19,1.19,0,1,1,0,2.37Zm0-4.88h-8.14c-.72,0-1.08-.38-1.08-1.13s.36-1.14,1.08-1.14h8.14a1.14,1.14,0,1,1,0,2.27ZM371,217.18h15.62a39.68,39.68,0,0,1-8-5.2A36.15,36.15,0,0,1,371,217.18Zm21.3-11.31h-8.38a1.14,1.14,0,0,1,0-2.27h8.38c.72,0,1.09.38,1.09,1.14A1,1,0,0,1,392.26,205.87Zm1.13,4.88h-9.46a1.19,1.19,0,0,1,0-2.37h9.46a1.19,1.19,0,1,1,0,2.37Z" transform="translate(0 7.2)" fill="#686868"/><path d="M446.92,231.67H407.64a1.8,1.8,0,0,1,0-3.6h17.51V200.24H410.24a1.82,1.82,0,1,1,0-3.64h34.22a1.61,1.61,0,0,1,1.8,1.84,1.59,1.59,0,0,1-1.8,1.8H429.08v27.83h17.84a1.8,1.8,0,0,1,0,3.6Z" transform="translate(0 7.2)" fill="#686868"/><path d="M464,202.8v30.76a1.54,1.54,0,0,1-1.75,1.75,1.57,1.57,0,0,1-1.8-1.75V208.33a37.81,37.81,0,0,1-3,3.93q-1.74,1.89-2.84-.19a2.12,2.12,0,0,1,.33-2.74,53.46,53.46,0,0,0,10-16.33,1.59,1.59,0,0,1,2.27-1.18,1.55,1.55,0,0,1,1.09,2.27A86.94,86.94,0,0,1,464,202.8Zm13.78-3.6H496a1.51,1.51,0,0,1,1.7,1.7,1.53,1.53,0,0,1-1.7,1.75h-13v6.91h12a1.45,1.45,0,0,1,1.61,1.66c0,1.14-.53,1.7-1.61,1.7h-12v7.29h12.64a1.71,1.71,0,0,1,0,3.41H482.94v9.94a1.59,1.59,0,0,1-1.8,1.8,1.61,1.61,0,0,1-1.84-1.8V202.65H476a58.06,58.06,0,0,1-5.68,8.71,1.52,1.52,0,0,1-2.5.14,1.84,1.84,0,0,1-.81-1.2,1.9,1.9,0,0,1,.62-1.35,51.72,51.72,0,0,0,8.75-15.53,1.69,1.69,0,0,1,2.23-1.27,1.54,1.54,0,0,1,1.13,2.27q-.37.95-1.11,2.67C478.12,198.24,477.83,199,477.74,199.2Z" transform="translate(0 7.2)" fill="#686868"/><path d="M507.08,193.24h34.17a2.85,2.85,0,0,1,2.06.75,2.73,2.73,0,0,1,.78,2v34.45a2.68,2.68,0,0,1-2.84,2.84H507.08a2.68,2.68,0,0,1-2.84-2.84V196a2.73,2.73,0,0,1,.78-2A2.85,2.85,0,0,1,507.08,193.24Zm32.51,3.31h-31a.88.88,0,0,0-1,1v31.52a.88.88,0,0,0,1,1h31a.88.88,0,0,0,1-1V197.54A.88.88,0,0,0,539.59,196.55Zm-21.81,18.6h11.83a.8.8,0,0,1,.9.9v.14c-.19,3.28-.51,5.21-1,5.77a2.36,2.36,0,0,1-1.16.69,5.91,5.91,0,0,1-1.63.21c-.6,0-1.28,0-2,0a1.47,1.47,0,0,1-1.42-.95c0-.22,0-.4,0-.55s.05-.25.21-.35a2,2,0,0,1,.4-.19,3.59,3.59,0,0,1,.55-.07c.25,0,.46,0,.64,0s.38,0,.64,0,.44,0,.56,0c.57,0,.93-.1,1.07-.3a3.92,3.92,0,0,0,.35-1.45c.1-1-.22-1.56-.94-1.56h-7.72v6.86a1.25,1.25,0,0,0,.52,1.19,5.75,5.75,0,0,0,2.28.28h8.42c1,0,1.63-.31,1.85-.95a4.54,4.54,0,0,1,.61-1.84.94.94,0,0,1,1.23-.47c.7.25,1,1.07.81,2.46a3.73,3.73,0,0,1-1.26,2.5,5,5,0,0,1-2.91.67h-8.9c-2.21,0-3.68-.25-4.42-.74s-1.11-1.5-1.11-3V216.9a30.9,30.9,0,0,1-3.7,3,1.45,1.45,0,0,1-2.13-.23c-.72-.86-.56-1.6.48-2.23a21.81,21.81,0,0,0,5.77-5.35h-5.3a1.18,1.18,0,0,1,0-2.36h6.86a27.88,27.88,0,0,0,1.76-3.6h-3.18a1.55,1.55,0,0,1-1.75-1.75v-.14c-.75.88-1.32,1.51-1.7,1.89a1.36,1.36,0,0,1-1.89.09c-.82-.59-.79-1.26.09-2a20.64,20.64,0,0,0,3.79-4.74,1.26,1.26,0,0,1,1.61-.66c.94.25,1.21.8.8,1.66a24.53,24.53,0,0,1-2.27,3.31h5.35c.6-2.18,1-3.6,1.09-4.26.15-1,.71-1.44,1.65-1.28a1.31,1.31,0,0,1,1.19,1.75c-.26,1.23-.59,2.5-1,3.79h9.8a39.64,39.64,0,0,0-2.79-3c-.67-.66-.57-1.25.28-1.75a1.18,1.18,0,0,1,1.56.14,36,36,0,0,1,5.07,5.68c.38.57.19,1.07-.57,1.51s-1.36.4-1.8-.23a21.53,21.53,0,0,0-1.7-2.32v1.32c0,.63-.34,1-1,1h-4.07a27.69,27.69,0,0,0,1.75,3.6H537a1.18,1.18,0,0,1,0,2.36h-5.21a18,18,0,0,0,5.35,4.78c1.17.57,1.37,1.31.62,2.23a1.5,1.5,0,0,1-2.09.23,22.14,22.14,0,0,1-7.05-7.24H520A25.56,25.56,0,0,1,517.78,215.15Zm3.59-5.44h6a33.31,33.31,0,0,1-1.46-3.6h-3C522.51,207.12,522,208.32,521.37,209.71Z" transform="translate(0 7.2)" fill="#686868"/><path d="M400.89,69.93a1.7,1.7,0,0,0,2.31.61,1.68,1.68,0,0,0,.62-2.3l-4-7a1.69,1.69,0,0,0-2.93,1.69Zm-18.43,31.92h-8.08a1.69,1.69,0,1,0,0,3.38h8.08a1.69,1.69,0,0,0,0-3.38Zm39.79-36.41a1.69,1.69,0,0,0,1.69-1.69V55.67a1.69,1.69,0,0,0-3.38,0v8.08A1.69,1.69,0,0,0,422.25,65.44Zm19.05,5.1a1.7,1.7,0,0,0,2.31-.61l4-7a1.69,1.69,0,1,0-2.92-1.69l-4.05,7A1.69,1.69,0,0,0,441.3,70.54Zm28.82,31.31H462a1.69,1.69,0,1,0,0,3.38h8.08a1.69,1.69,0,0,0,0-3.38Zm-4.95-23.09a1.69,1.69,0,0,0-2.31-.62l-7,4a1.69,1.69,0,1,0,1.69,2.93l7-4A1.69,1.69,0,0,0,465.17,78.76ZM422.25,71.7h0A31.94,31.94,0,0,0,410.39,74a1.69,1.69,0,0,0,1.26,3.14,28.55,28.55,0,0,1,10.6-2h0a28.49,28.49,0,0,1,16.54,51.72,19.79,19.79,0,0,0-8.28,14.38h-6.57V126.09a2.69,2.69,0,0,0,.57-.45l9.7-9.7a17.53,17.53,0,0,0,0-24.8l-9.7-9.7a3.21,3.21,0,0,0-4.52,0l-9.7,9.7a17.53,17.53,0,0,0,0,24.8l9.7,9.7a3,3,0,0,0,.57.45v15.08H414a19.39,19.39,0,0,0-8.13-14.27A28.49,28.49,0,0,1,406.2,80a1.69,1.69,0,0,0-1.9-2.79,31.88,31.88,0,0,0-.39,52.45,16,16,0,0,1,6.72,11.85,4.6,4.6,0,0,0-2.85,4.25v2.9a4.55,4.55,0,0,0,1,2.9,4.58,4.58,0,0,0-1,2.91v2.9a4.6,4.6,0,0,0,4.59,4.59h1.68v3.7a3.63,3.63,0,0,0,3.62,3.63h9.16a3.63,3.63,0,0,0,3.62-3.63V162h1.68a4.6,4.6,0,0,0,4.59-4.59v-2.9a4.63,4.63,0,0,0-1-2.91,4.6,4.6,0,0,0,1-2.9v-2.9a4.6,4.6,0,0,0-2.85-4.25,16.41,16.41,0,0,1,6.88-12,31.87,31.87,0,0,0-18.5-57.85Zm-9.57,41.86a14.16,14.16,0,0,1,0-20L422.25,84l9.57,9.57a14.16,14.16,0,0,1,0,20l-7.88,7.88v-7l3.9-3.9a1.68,1.68,0,0,0,0-2.38,1.7,1.7,0,0,0-2.39,0l-1.51,1.52v-2l3.9-3.9a1.69,1.69,0,0,0-2.39-2.39l-1.51,1.51V99a1.69,1.69,0,0,0-3.38,0v6.14l-1.51-1.51a1.69,1.69,0,1,0-2.39,2.39l3.9,3.9v2l-1.51-1.51a1.69,1.69,0,1,0-2.39,2.39l3.9,3.89v4.72Zm14.4,52.1a.25.25,0,0,1-.25.25h-9.16a.25.25,0,0,1-.24-.25V162h9.65Zm6.27-17a1.22,1.22,0,0,1-1.22,1.21H429a1.69,1.69,0,1,0,0,3.38h3.12a1.22,1.22,0,0,1,1.22,1.21v2.91a1.22,1.22,0,0,1-1.22,1.21H412.37a1.21,1.21,0,0,1-1.21-1.21v-2.91a1.21,1.21,0,0,1,1.21-1.21h9.88a1.69,1.69,0,1,0,0-3.38h-9.88a1.21,1.21,0,0,1-1.21-1.21v-2.9a1.22,1.22,0,0,1,1.21-1.22h19.76a1.22,1.22,0,0,1,1.22,1.22v2.9ZM388.64,82.18l-7-4A1.69,1.69,0,1,0,380,81.07l7,4a1.69,1.69,0,0,0,1.69-2.93Z" transform="translate(0 7.2)" fill="#008f70"/></svg>