<svg xmlns="http://www.w3.org/2000/svg" width="160.253" height="158.763" viewBox="0 0 160.253 158.763">
  <g id="组_7239" data-name="组 7239" transform="translate(417.406 -46.907)">
    <circle id="椭圆_195" data-name="椭圆 195" cx="8.422" cy="8.422" r="8.422" transform="translate(-273.996 117.854)" fill="#e16810"/>
    <circle id="椭圆_196" data-name="椭圆 196" cx="8.422" cy="8.422" r="8.422" transform="translate(-276.888 97.665)" fill="#901d32"/>
    <circle id="椭圆_197" data-name="椭圆 197" cx="8.422" cy="8.422" r="8.422" transform="translate(-285.373 79.091)" fill="#eeb619"/>
    <circle id="椭圆_198" data-name="椭圆 198" cx="8.422" cy="8.422" r="8.422" transform="translate(-298.731 63.687)" fill="#1b9cc9"/>
    <circle id="椭圆_199" data-name="椭圆 199" cx="8.422" cy="8.422" r="8.422" transform="translate(-315.903 52.652)" fill="#da3b1d"/>
    <circle id="椭圆_200" data-name="椭圆 200" cx="8.422" cy="8.422" r="8.422" transform="translate(-375.474 52.639)" fill="#cfa214"/>
    <circle id="椭圆_201" data-name="椭圆 201" cx="8.422" cy="8.422" r="8.422" transform="translate(-392.633 63.674)" fill="#d51721"/>
    <circle id="椭圆_202" data-name="椭圆 202" cx="8.422" cy="8.422" r="8.422" transform="translate(-406.004 79.104)" fill="none"/>
    <circle id="椭圆_203" data-name="椭圆 203" cx="8.422" cy="8.422" r="8.422" transform="translate(-414.464 97.665)" fill="none"/>
    <circle id="椭圆_204" data-name="椭圆 204" cx="8.422" cy="8.422" r="8.422" transform="translate(-414.489 138.044)" fill="none"/>
    <circle id="椭圆_205" data-name="椭圆 205" cx="8.409" cy="8.409" r="8.409" transform="translate(-406.105 156.491)" fill="#8f2a82"/>
    <circle id="椭圆_206" data-name="椭圆 206" cx="8.422" cy="8.422" r="8.422" transform="translate(-392.633 172.021)" fill="#14325e"/>
    <circle id="椭圆_207" data-name="椭圆 207" cx="8.422" cy="8.422" r="8.422" transform="translate(-375.461 183.069)" fill="#014981"/>
    <circle id="椭圆_208" data-name="椭圆 208" cx="8.422" cy="8.422" r="8.422" transform="translate(-315.928 183.094)" fill="#417636"/>
    <circle id="椭圆_209" data-name="椭圆 209" cx="8.422" cy="8.422" r="8.422" transform="translate(-298.744 172.059)" fill="#ca8e0b"/>
    <circle id="椭圆_210" data-name="椭圆 210" cx="8.422" cy="8.422" r="8.422" transform="translate(-285.373 156.63)" fill="#ea9d17"/>
    <circle id="椭圆_211" data-name="椭圆 211" cx="8.422" cy="8.422" r="8.422" transform="translate(-276.901 138.069)" fill="#cc1372"/>
    <circle id="椭圆_212" data-name="椭圆 212" cx="8.422" cy="8.422" r="8.422" transform="translate(-355.903 46.907)" fill="#188f3b"/>
    <circle id="椭圆_213" data-name="椭圆 213" cx="8.422" cy="8.422" r="8.422" transform="translate(-335.486 46.907)" fill="#bb1a2a"/>
    <circle id="椭圆_214" data-name="椭圆 214" cx="8.422" cy="8.422" r="8.422" transform="translate(-355.903 188.826)" fill="#2f9f3a"/>
    <circle id="椭圆_215" data-name="椭圆 215" cx="8.422" cy="8.422" r="8.422" transform="translate(-335.486 188.826)" fill="#1170ae"/>
    <path id="路径_16176" data-name="路径 16176" d="M-412.633,96.907a2.6,2.6,0,0,0-3.506,1.115,2.6,2.6,0,0,0-.282,1.41,4.85,4.85,0,0,0,1.541,3.7,5.129,5.129,0,0,1-.821,4.52,2.522,2.522,0,0,0,0,1.68s-1.6,1.515,2.273,7.663a1.263,1.263,0,0,0,.67,1.654c.033.013.066.026.1.037a1.363,1.363,0,0,0,.556.075s1.262-.188,1.933,5.357c0,0-.226.416.4.77,0,0-.707.682,1.742,3.082a2.313,2.313,0,0,1,.568,1.4,3.17,3.17,0,0,0,.97,1.26,2.937,2.937,0,0,0,.9,2.26,1.881,1.881,0,0,1,.822,1s-.543.593,1.376,1.515a6.8,6.8,0,0,1,1.515,3.132.467.467,0,0,0,.594.24,2.987,2.987,0,0,0,.8,1.566s-.631.366.619,1.54c0,0,1.579,3.712,2.526,3.889a3.358,3.358,0,0,0,1.831,3.485s.845,3.007,2.449,2.525a47.391,47.391,0,0,1,5.338,2.766,3.086,3.086,0,0,0,1.528,1.78s-.376,1.048,1.617,2.02a3.884,3.884,0,0,0,1.717,1.263,1.137,1.137,0,0,0,1,1.256c.028,0,.056,0,.084.006h.253a9.854,9.854,0,0,1,4.52-.556,24.7,24.7,0,0,0,5.909,1.023,2.212,2.212,0,0,1,1.439.631,1.377,1.377,0,0,0,1.742,0,1.974,1.974,0,0,1,1.6.367s.884.492.884-.4a2.526,2.526,0,0,0,2.311-1.389s1.262,0,1.262-.795c0,0,.253,1.793,1.073-.2a38.49,38.49,0,0,1,4.268-1.464,1.817,1.817,0,0,0,2.273.29A16.623,16.623,0,0,1-349.971,160c.833.745,1.061,1.262,1.88.795,0,0,3.169,1.894,2.105-.707,0,0-.53-.745,1.6-1.338,0,0,.833-.15.782-.632,0,0,.19-.884-1.1-.451s-1.262-.315-1.262-.315a2.275,2.275,0,0,0-1.263-2.261s-3.106-1.856-4.141-2.26a4.861,4.861,0,0,1-3.207-2.525,3.539,3.539,0,0,1-1.654-1.376c-.451-.884-3.346-4.723-3.346-4.723a2.208,2.208,0,0,1,0-1.7,2.768,2.768,0,0,0-.618-1.717,1.189,1.189,0,0,0,0-1.263c-.519-.568-1.92-.719-1.718-1.8a9.223,9.223,0,0,0-1.767-3.788,2.279,2.279,0,0,0-1.175-1.5,3.107,3.107,0,0,1-.858-2.26,13.917,13.917,0,0,1-2.733-2.1,7.838,7.838,0,0,0-2.69-3.245,23.937,23.937,0,0,1-1.742-1.805,6.02,6.02,0,0,0-1.97-1.4,41.829,41.829,0,0,1-3.939-3.684c-1.124-1.376-1.755-1-2.727-2.26s-1.262-.114-2.386-2.715a2.1,2.1,0,0,0-1.5-.392c-.783.277-.606-1.175-1.414-1.805a2.915,2.915,0,0,1-1.628-3.1s.429-.935-3.043-3.083a7.591,7.591,0,0,1-.9-1.97c0-.429,0-1.086-1.086-.884a2.133,2.133,0,0,0-2.386-1.793,1.966,1.966,0,0,0-.467.113,14.344,14.344,0,0,0-3.788-1.111s-3.662-3.258-2.857-5.972c0,0,.392-.682-.556-1.035,0,0-.619-.43-1.111,1,0,0-.316.543-1.262-.113,0,0-1.452-1.541-2.261,0a3.157,3.157,0,0,1-1.387,1.831,5.554,5.554,0,0,0-1.3,1.5C-411.092,97.046-411.926,94.887-412.633,96.907Z" fill="#109a8a"/>
    <path id="路径_16177" data-name="路径 16177" d="M-306.459,143.625a4.661,4.661,0,0,1-5.366.341,12.5,12.5,0,0,0-1.856-.909,10.682,10.682,0,0,0-9.723,1.628c-1.83-4.343-7.222-9.659-9.343-6.01a14.015,14.015,0,0,0-1.023,5.669c-.126,1.452-.239,2.879-.492,4.306a10.072,10.072,0,0,1-.505,2.007,2.591,2.591,0,0,0-.215.451c-.706.77-2.273-.316-3.055-.833a12.919,12.919,0,0,1-3.609-4.23c-.556-1.022-1.01-2.134-1.528-3.169q-1.452-2.714-2.992-5.366a63.385,63.385,0,0,0-8.841-12.193c-1.6-1.641-3.4-3.119-4.975-4.786a5.149,5.149,0,0,1-1.768-2.765,4.06,4.06,0,0,1,1.8-2.26c1.452-1.263,3.534-2.526,3.258-4.737a5.75,5.75,0,0,0-3.5-3.725,21.628,21.628,0,0,0-7.31-1.879,27.833,27.833,0,0,0-6.793.225,6.081,6.081,0,0,1-1.97-2.083c-.7-.948-1.263-1.97-1.955-2.917a57.843,57.843,0,0,0-4.445-5.5,41.28,41.28,0,0,0-11.515-8.836A28.527,28.527,0,0,0-408,82.994a11.24,11.24,0,0,0-6.149,1.452,7.8,7.8,0,0,0-3.258,5.391,7.363,7.363,0,0,1,5.682-5.557,23.5,23.5,0,0,1,9.23.682,31.576,31.576,0,0,1,12.626,6.78,46.816,46.816,0,0,1,9.722,11.365,13.575,13.575,0,0,0,4.407,5.316,7.738,7.738,0,0,0,4.318.15,24.052,24.052,0,0,1,7.286,1,8.18,8.18,0,0,1,3.308,1.616c-.429.376-1.111.758-1.376.972a14.277,14.277,0,0,0-1.832,1.669,5.484,5.484,0,0,0-1.6,4.849c.656,3.384,3.952,5.695,6.315,7.98a54.144,54.144,0,0,1,9.051,11.942q2.022,3.333,3.788,6.794a23.174,23.174,0,0,0,3.788,6c2.526,2.526,8.068,5.985,10.783,1.781a13.81,13.81,0,0,0,1.628-6.149,39.159,39.159,0,0,1,.43-5.568c.656-.657,5.05,2.891,5.745,5.492a3.258,3.258,0,0,0,1.742-.543,8.752,8.752,0,0,1,4.533-1.1,11.212,11.212,0,0,1,4.065.833h0c2.526.694,6.316.656,7.26-2.4Z" fill="#109a8a"/>
    <path id="路径_16178" data-name="路径 16178" d="M-306.459,143.624a25.368,25.368,0,0,1-8.674,14.511,19.358,19.358,0,0,1-8.722,3.675,29.4,29.4,0,0,1-4.823.391,18.145,18.145,0,0,0-3.7,0h-.226a8.623,8.623,0,0,0-2.525,2.26,20.214,20.214,0,0,1-3.169,2.892,12.8,12.8,0,0,1-5.127,2.03A18.043,18.043,0,0,1-357,166.376a22.09,22.09,0,0,0,13.283-.266,11.6,11.6,0,0,0,2.98-1.565,18.446,18.446,0,0,0,2.525-2.664,10.109,10.109,0,0,1,4.521-3.788,14.877,14.877,0,0,1,4.027-.29,31.735,31.735,0,0,0,7.311-.707,22.736,22.736,0,0,0,11.919-7.979C-309.009,147.26-307.658,145.392-306.459,143.624Z" fill="#109a8a"/>
    <path id="路径_16179" data-name="路径 16179" d="M-333.971,123.928a2.12,2.12,0,0,0-.832-1.793,11.124,11.124,0,0,0-2.967-1.262,22.586,22.586,0,0,1-3.4-1.354,5.527,5.527,0,0,1-3.383-4.949,4.772,4.772,0,0,1,.9-2.9,5.962,5.962,0,0,1,2.626-2,10.1,10.1,0,0,1,3.965-.694,9.094,9.094,0,0,1,3.788.77,6.1,6.1,0,0,1,2.6,2.26,5.723,5.723,0,0,1,.821,3.082h-4.094a2.683,2.683,0,0,0-.857-2.146,3.576,3.576,0,0,0-2.424-.77,3.792,3.792,0,0,0-2.26.631,2.008,2.008,0,0,0-.833,1.68,1.92,1.92,0,0,0,.972,1.629,10.871,10.871,0,0,0,2.891,1.262,12.52,12.52,0,0,1,5.05,2.626,5.19,5.19,0,0,1,1.667,3.927,4.794,4.794,0,0,1-1.97,4.078,8.563,8.563,0,0,1-5.263,1.465,10.235,10.235,0,0,1-4.306-.745,6.7,6.7,0,0,1-2.894-2.276,5.974,5.974,0,0,1-1-3.4h4.117c0,2.21,1.325,3.308,3.964,3.308a3.859,3.859,0,0,0,2.26-.593A1.907,1.907,0,0,0-333.971,123.928Z" fill="#6d6e68"/>
    <path id="路径_16180" data-name="路径 16180" d="M-327.57,129.218V109.231h6.124a9.246,9.246,0,0,1,4.7,1.187,8.185,8.185,0,0,1,3.283,3.409,10.47,10.47,0,0,1,1.174,4.974v.9a10.4,10.4,0,0,1-1.161,4.962,8.226,8.226,0,0,1-3.258,3.371,9.4,9.4,0,0,1-4.7,1.263h-6.166Zm4.078-16.653v13.32h2.046a4.509,4.509,0,0,0,3.684-1.579,7.158,7.158,0,0,0,1.263-4.533v-1.009a7.322,7.322,0,0,0-1.259-4.533,4.517,4.517,0,0,0-3.684-1.554h-2.05Z" fill="#6d6e68"/>
    <path id="路径_16181" data-name="路径 16181" d="M-294.085,126.68a7.1,7.1,0,0,1-3.144,2.058,13.09,13.09,0,0,1-4.52.72,8.837,8.837,0,0,1-4.547-1.124,7.7,7.7,0,0,1-3.008-3.282A11.561,11.561,0,0,1-310.39,120v-1.376a12.172,12.172,0,0,1,1.023-5.176,7.376,7.376,0,0,1,2.92-3.345,9.551,9.551,0,0,1,10.1.518,7.255,7.255,0,0,1,2.26,4.924h-3.941a4.018,4.018,0,0,0-1.262-2.525,3.89,3.89,0,0,0-2.526-.783,3.623,3.623,0,0,0-3.219,1.591,8.221,8.221,0,0,0-1.112,4.684v1.26a7.9,7.9,0,0,0,1.263,4.761,4.119,4.119,0,0,0,3.51,1.6,4.51,4.51,0,0,0,3.258-.947v-3.447H-301.9v-3.03h7.778Z" fill="#6d6e68"/>
    <path id="路径_16182" data-name="路径 16182" d="M-283.4,125.089a1.263,1.263,0,0,0-.719-1.149,8.442,8.442,0,0,0-2.273-.745q-5.291-1.124-5.29-4.52a4.087,4.087,0,0,1,1.628-3.308,6.582,6.582,0,0,1,4.281-1.263,7.145,7.145,0,0,1,4.52,1.339,4.14,4.14,0,0,1,1.691,3.434h-4a1.893,1.893,0,0,0-.543-1.452,2.526,2.526,0,0,0-3.182,0,1.429,1.429,0,0,0-.542,1.162,1.185,1.185,0,0,0,.542,1.1,6.5,6.5,0,0,0,2.1.707,16.672,16.672,0,0,1,2.525.657,4.091,4.091,0,0,1,3.145,3.977,3.79,3.79,0,0,1-1.73,3.283,7.578,7.578,0,0,1-4.533,1.262,8.046,8.046,0,0,1-3.282-.821,5.592,5.592,0,0,1-2.261-1.831,4.187,4.187,0,0,1-.808-2.525h3.788a2.045,2.045,0,0,0,.8,1.628,3.069,3.069,0,0,0,1.944.569,2.929,2.929,0,0,0,1.717-.43A1.338,1.338,0,0,0-283.4,125.089Z" fill="#6d6e68"/>
    <path id="路径_16183" data-name="路径 16183" d="M-354.716,90.8h-4.066v11.362h-1.654V90.8h-4.053V89.443h9.775Z" fill="#6d6e68"/>
    <path id="路径_16184" data-name="路径 16184" d="M-346.572,98.788h-5.315l-1.263,3.3h-1.629l4.836-12.627h1.48l4.836,12.627h-1.745Zm-4.8-1.376h4.306l-2.261-5.925Z" fill="#6d6e68"/>
    <path id="路径_16185" data-name="路径 16185" d="M-339.691,102.084h-1.679V89.457h1.679Z" fill="#6d6e68"/>
    <path id="路径_16186" data-name="路径 16186" d="M-333.428,98.107l.252,1.667.366-1.49,2.525-8.839h1.364l2.437,8.839.341,1.54.391-1.692,1.97-8.661h1.667l-3.119,12.613h-1.591l-2.6-9.23-.2-.972-.2.972-2.714,9.23h-1.528l-3.03-12.626h1.768Z" fill="#6d6e68"/>
    <path id="路径_16187" data-name="路径 16187" d="M-313.314,98.788h-5.291l-1.263,3.3h-1.654l4.812-12.627h1.474l4.836,12.627h-1.778Zm-4.8-1.376h4.3l-2.259-5.925Z" fill="#6d6e68"/>
    <path id="路径_16188" data-name="路径 16188" d="M-298.883,102.084h-1.692l-6.315-9.747v9.747h-1.715V89.458h1.667l6.391,9.862V89.445h1.654v12.627Z" fill="#6d6e68"/>
  </g>
</svg>
